<svg width="131" height="24" viewBox="0 0 131 24" fill="none" xmlns="http://www.w3.org/2000/svg">
<path d="M3.38352 1.04545V18.5H0.221591V1.04545H3.38352ZM9.75639 10.8295V18.5H6.67116V5.40909H9.62003V7.63352H9.77344C10.0746 6.90057 10.5547 6.31818 11.2138 5.88636C11.8786 5.45455 12.6996 5.23864 13.6768 5.23864C14.5803 5.23864 15.3672 5.43182 16.0376 5.81818C16.7138 6.20455 17.2365 6.7642 17.6058 7.49716C17.9808 8.23011 18.1655 9.11932 18.1598 10.1648V18.5H15.0746V10.642C15.0746 9.76705 14.8473 9.08239 14.3928 8.58807C13.9439 8.09375 13.3217 7.84659 12.5263 7.84659C11.9865 7.84659 11.5064 7.96591 11.0859 8.20455C10.6712 8.4375 10.3445 8.77557 10.1058 9.21875C9.87287 9.66193 9.75639 10.1989 9.75639 10.8295ZM27.8331 5.40909V7.79545H20.3075V5.40909H27.8331ZM22.1655 2.27273H25.2507V14.5625C25.2507 14.9773 25.3132 15.2955 25.4382 15.517C25.5689 15.733 25.7393 15.8807 25.9496 15.9602C26.1598 16.0398 26.3928 16.0795 26.6484 16.0795C26.8416 16.0795 27.0178 16.0653 27.1768 16.0369C27.3416 16.0085 27.4666 15.983 27.5518 15.9602L28.0717 18.3722C27.907 18.429 27.6712 18.4915 27.3643 18.5597C27.0632 18.6278 26.6939 18.6676 26.2564 18.679C25.4837 18.7017 24.7876 18.5852 24.1683 18.3295C23.549 18.0682 23.0575 17.6648 22.6939 17.1193C22.3359 16.5739 22.1598 15.892 22.1655 15.0739V2.27273ZM36.0682 18.7557C34.7557 18.7557 33.6222 18.483 32.6676 17.9375C31.7188 17.3864 30.9886 16.608 30.4773 15.6023C29.9659 14.5909 29.7102 13.4006 29.7102 12.0312C29.7102 10.6847 29.9659 9.50284 30.4773 8.4858C30.9943 7.46307 31.7159 6.66761 32.642 6.09943C33.5682 5.52557 34.6562 5.23864 35.9062 5.23864C36.7131 5.23864 37.4744 5.36932 38.1903 5.63068C38.9119 5.88636 39.5483 6.28409 40.0994 6.82386C40.6563 7.36364 41.0938 8.05114 41.4119 8.88636C41.7301 9.71591 41.8892 10.7045 41.8892 11.8523V12.7983H31.1591V10.7188H38.9318C38.9261 10.1278 38.7983 9.60227 38.5483 9.14205C38.2983 8.67614 37.9489 8.30966 37.5 8.04261C37.0568 7.77557 36.5398 7.64205 35.9489 7.64205C35.3182 7.64205 34.7642 7.79545 34.2869 8.10227C33.8097 8.40341 33.4375 8.80114 33.1705 9.29545C32.9091 9.78409 32.7756 10.321 32.7699 10.9062V12.7216C32.7699 13.483 32.9091 14.1364 33.1875 14.6818C33.4659 15.2216 33.8551 15.6364 34.3551 15.9261C34.8551 16.2102 35.4403 16.3523 36.1108 16.3523C36.5597 16.3523 36.9659 16.2898 37.3295 16.1648C37.6932 16.0341 38.0085 15.8438 38.2756 15.5938C38.5426 15.3438 38.7443 15.0341 38.8807 14.6648L41.7614 14.9886C41.5795 15.75 41.233 16.4148 40.7216 16.983C40.2159 17.5455 39.5682 17.983 38.7784 18.2955C37.9886 18.6023 37.0852 18.7557 36.0682 18.7557ZM50.1925 23.6818C49.0845 23.6818 48.1328 23.5313 47.3374 23.2301C46.5419 22.9347 45.9027 22.5369 45.4197 22.0369C44.9368 21.5369 44.6016 20.983 44.4141 20.375L47.1925 19.7017C47.3175 19.9574 47.4993 20.2102 47.7379 20.4602C47.9766 20.7159 48.2976 20.9261 48.701 21.0909C49.1101 21.2614 49.6243 21.3466 50.2436 21.3466C51.1186 21.3466 51.843 21.1335 52.4169 20.7074C52.9908 20.2869 53.2777 19.5938 53.2777 18.6278V16.1477H53.1243C52.9652 16.4659 52.7322 16.7926 52.4254 17.1278C52.1243 17.4631 51.7237 17.7443 51.2237 17.9716C50.7294 18.1989 50.1072 18.3125 49.3572 18.3125C48.3516 18.3125 47.4396 18.0767 46.6214 17.6051C45.8089 17.1278 45.1612 16.4176 44.6783 15.4744C44.201 14.5256 43.9624 13.3381 43.9624 11.9119C43.9624 10.4744 44.201 9.26136 44.6783 8.27273C45.1612 7.27841 45.8118 6.52557 46.63 6.0142C47.4482 5.49716 48.3601 5.23864 49.3658 5.23864C50.1328 5.23864 50.7635 5.36932 51.2578 5.63068C51.7578 5.88636 52.1555 6.19602 52.451 6.55966C52.7464 6.91761 52.9709 7.25568 53.1243 7.57386H53.2947V5.40909H56.3374V18.7131C56.3374 19.8324 56.0703 20.7585 55.5362 21.4915C55.0021 22.2244 54.272 22.7727 53.3459 23.1364C52.4197 23.5 51.3686 23.6818 50.1925 23.6818ZM50.218 15.892C50.8714 15.892 51.4283 15.733 51.8885 15.4148C52.3487 15.0966 52.6982 14.6392 52.9368 14.0426C53.1754 13.446 53.2947 12.7301 53.2947 11.8949C53.2947 11.071 53.1754 10.3494 52.9368 9.73011C52.7038 9.1108 52.3572 8.63068 51.897 8.28977C51.4425 7.94318 50.8828 7.76989 50.218 7.76989C49.5305 7.76989 48.9567 7.94886 48.4964 8.30682C48.0362 8.66477 47.6896 9.15625 47.4567 9.78125C47.2237 10.4006 47.1072 11.1051 47.1072 11.8949C47.1072 12.696 47.2237 13.3977 47.4567 14C47.6953 14.5966 48.0447 15.0625 48.505 15.3977C48.9709 15.7273 49.5419 15.892 50.218 15.892ZM59.4993 18.5V5.40909H62.4908V7.59091H62.6271C62.8658 6.83523 63.2749 6.25284 63.8544 5.84375C64.4396 5.42898 65.1072 5.22159 65.8572 5.22159C66.0277 5.22159 66.218 5.23011 66.4283 5.24716C66.6442 5.25852 66.8232 5.27841 66.9652 5.30682V8.14489C66.8345 8.09943 66.6271 8.05966 66.343 8.02557C66.0646 7.9858 65.7947 7.96591 65.5334 7.96591C64.9709 7.96591 64.4652 8.08807 64.0163 8.33239C63.5732 8.57102 63.2237 8.90341 62.968 9.32955C62.7124 9.75568 62.5845 10.2472 62.5845 10.804V18.5H59.4993ZM72.5476 18.7642C71.718 18.7642 70.9709 18.6165 70.3061 18.321C69.647 18.0199 69.1243 17.5767 68.7379 16.9915C68.3572 16.4062 68.1669 15.6847 68.1669 14.8267C68.1669 14.0881 68.3033 13.4773 68.576 12.9943C68.8487 12.5114 69.2209 12.125 69.6925 11.8352C70.1641 11.5455 70.6953 11.3267 71.2862 11.179C71.8828 11.0256 72.4993 10.9148 73.1357 10.8466C73.9027 10.767 74.5249 10.696 75.0021 10.6335C75.4794 10.5653 75.826 10.4631 76.0419 10.3267C76.2635 10.1847 76.3743 9.96591 76.3743 9.67045V9.61932C76.3743 8.97727 76.1839 8.48011 75.8033 8.12784C75.4226 7.77557 74.8743 7.59943 74.1584 7.59943C73.4027 7.59943 72.8033 7.7642 72.3601 8.09375C71.9226 8.4233 71.6271 8.8125 71.4737 9.26136L68.593 8.85227C68.8203 8.05682 69.1953 7.39205 69.718 6.85795C70.2408 6.31818 70.88 5.91477 71.6357 5.64773C72.3913 5.375 73.2266 5.23864 74.1413 5.23864C74.772 5.23864 75.3999 5.3125 76.0249 5.46023C76.6499 5.60795 77.2209 5.85227 77.7379 6.19318C78.255 6.52841 78.6697 6.9858 78.9822 7.56534C79.3004 8.14489 79.4595 8.86932 79.4595 9.73864V18.5H76.4936V16.7017H76.3913C76.2038 17.0653 75.9396 17.4062 75.5987 17.7244C75.2635 18.0369 74.8402 18.2898 74.3288 18.483C73.8232 18.6705 73.2294 18.7642 72.5476 18.7642ZM73.3487 16.4972C73.968 16.4972 74.505 16.375 74.9595 16.1307C75.4141 15.8807 75.7635 15.5511 76.0078 15.142C76.2578 14.733 76.3828 14.2869 76.3828 13.804V12.2614C76.2862 12.3409 76.1214 12.4148 75.8885 12.483C75.6612 12.5511 75.4055 12.6108 75.1214 12.6619C74.8374 12.7131 74.5561 12.7585 74.2777 12.7983C73.9993 12.8381 73.7578 12.8722 73.5533 12.9006C73.093 12.9631 72.6811 13.0653 72.3175 13.2074C71.9538 13.3494 71.6669 13.5483 71.4567 13.804C71.2464 14.054 71.1413 14.3778 71.1413 14.7756C71.1413 15.3438 71.3487 15.7727 71.7635 16.0625C72.1783 16.3523 72.7067 16.4972 73.3487 16.4972ZM89.1925 5.40909V7.79545H81.4538V5.40909H89.1925ZM83.3885 18.5V4.17329C83.3885 3.29261 83.5703 2.55966 83.9339 1.97443C84.3033 1.3892 84.7976 0.951704 85.4169 0.661931C86.0362 0.372158 86.7237 0.227272 87.4794 0.227272C88.0135 0.227272 88.4879 0.269886 88.9027 0.355114C89.3175 0.440341 89.6243 0.517045 89.8232 0.585227L89.2095 2.97159C89.0788 2.93182 88.9141 2.89204 88.7152 2.85227C88.5163 2.80682 88.2947 2.78409 88.0504 2.78409C87.4766 2.78409 87.0703 2.9233 86.8317 3.2017C86.5987 3.47443 86.4822 3.86648 86.4822 4.37784V18.5H83.3885ZM94.6939 1.04545V18.5H91.6087V1.04545H94.6939ZM103.577 18.7557C102.298 18.7557 101.19 18.4744 100.253 17.9119C99.3153 17.3494 98.5881 16.5625 98.071 15.5511C97.5597 14.5398 97.304 13.358 97.304 12.0057C97.304 10.6534 97.5597 9.46875 98.071 8.4517C98.5881 7.43466 99.3153 6.64489 100.253 6.08239C101.19 5.51989 102.298 5.23864 103.577 5.23864C104.855 5.23864 105.963 5.51989 106.901 6.08239C107.838 6.64489 108.563 7.43466 109.074 8.4517C109.591 9.46875 109.849 10.6534 109.849 12.0057C109.849 13.358 109.591 14.5398 109.074 15.5511C108.563 16.5625 107.838 17.3494 106.901 17.9119C105.963 18.4744 104.855 18.7557 103.577 18.7557ZM103.594 16.2841C104.287 16.2841 104.866 16.0937 105.332 15.7131C105.798 15.3267 106.145 14.8097 106.372 14.1619C106.605 13.5142 106.722 12.7926 106.722 11.9972C106.722 11.196 106.605 10.4716 106.372 9.82386C106.145 9.17045 105.798 8.65057 105.332 8.2642C104.866 7.87784 104.287 7.68466 103.594 7.68466C102.884 7.68466 102.293 7.87784 101.821 8.2642C101.355 8.65057 101.006 9.17045 100.773 9.82386C100.545 10.4716 100.432 11.196 100.432 11.9972C100.432 12.7926 100.545 13.5142 100.773 14.1619C101.006 14.8097 101.355 15.3267 101.821 15.7131C102.293 16.0937 102.884 16.2841 103.594 16.2841ZM114.795 18.5L111.096 5.40909H114.241L116.542 14.6136H116.661L119.013 5.40909H122.124L124.477 14.5625H124.604L126.871 5.40909H130.025L126.317 18.5H123.104L120.65 9.65341H120.471L118.016 18.5H114.795Z" fill="#241663"/>
</svg>
