<svg width="181" height="27" viewBox="0 0 181 27" fill="none" xmlns="http://www.w3.org/2000/svg">
<path fill-rule="evenodd" clip-rule="evenodd" d="M32.912 10.8009C31.5957 8.935 29.8855 6.82254 28.0641 5.40687C26.3196 4.05099 23.8512 2.88994 21.5563 4.42464C20.1726 5.35003 18.673 6.63096 17.3026 7.80152C17.064 8.00533 16.8293 8.20583 16.5998 8.40049C14.9682 9.78458 13.6751 10.8045 12.7746 11.1938C12.7436 11.2046 12.7127 11.2153 12.6819 11.226C12.0621 11.4418 11.48 11.6444 10.5295 11.3056C9.40966 10.9065 7.55008 9.64307 4.8826 5.86197C4.30732 5.04652 3.24168 4.87203 2.50242 5.47222C1.76317 6.07242 1.63024 7.22003 2.20552 8.03548C3.77452 10.2595 5.20333 11.8506 6.51755 12.9567C5.83732 13.5702 5.72962 14.6726 6.28719 15.463C9.14833 19.5186 11.5433 21.4696 13.6273 22.2124C15.6565 22.9356 17.1461 22.4076 17.8649 22.1529L17.8655 22.1527C17.9182 22.134 17.9668 22.1168 18.0111 22.1016L18.0597 22.085L18.1072 22.0653C19.5638 21.4589 21.2799 20.0416 22.8196 18.7355C23.069 18.524 23.3169 18.3124 23.5629 18.1024C24.9443 16.9237 26.2689 15.7933 27.4781 14.9846C27.9414 14.6748 28.7405 14.6461 30.2145 15.7917C31.6115 16.8776 33.0707 18.6358 34.3166 20.4018C34.8919 21.2173 35.9575 21.3918 36.6968 20.7916C37.436 20.1915 37.569 19.0438 36.9937 18.2284C35.812 16.5533 34.3129 14.6796 32.7008 13.2896C33.3639 12.6728 33.4643 11.5838 32.912 10.8009ZM28.9147 11.2188C27.8469 11.0035 26.7231 11.1265 25.638 11.8521C24.2542 12.7775 22.7546 14.0585 21.3843 15.229L21.3831 15.23C21.1449 15.4335 20.9106 15.6336 20.6815 15.828C19.0499 17.2121 17.7568 18.232 16.8563 18.6213C16.8253 18.632 16.7944 18.6428 16.7637 18.6535C16.1438 18.8693 15.5617 19.0719 14.6112 18.7331C13.6797 18.4011 12.2363 17.4711 10.2419 14.9914C11.916 15.3872 13.1494 14.9501 13.7832 14.7254C13.8362 14.7066 13.8849 14.6893 13.9294 14.6742L13.978 14.6576L14.0255 14.6378C15.4821 14.0314 17.1982 12.6141 18.7379 11.308C18.9873 11.0965 19.2352 10.8849 19.4813 10.6749C20.8626 9.49614 22.1872 8.3658 23.3964 7.55714C23.8598 7.24728 24.6588 7.21861 26.1328 8.36425C27.0596 9.08457 28.0137 10.1008 28.9147 11.2188Z" fill="url(#paint0_linear_2360_11545)"/>
<path d="M50.0362 1.96262C50.2582 1.96262 50.4381 2.14257 50.4381 2.36456V19.4403C50.4381 19.6622 50.2582 19.8422 50.0362 19.8422H47.6012C47.3792 19.8422 47.1992 19.6622 47.1992 19.4403V2.36456C47.1992 2.14257 47.3792 1.96262 47.6012 1.96262H50.0362Z" fill="#241663"/>
<path d="M56.9662 11.985V19.4403C56.9662 19.6622 56.7862 19.8422 56.5643 19.8422H54.2078C53.9858 19.8422 53.8058 19.6622 53.8058 19.4403V6.83445C53.8058 6.61247 53.9858 6.43251 54.2078 6.43251H56.4246C56.6466 6.43251 56.8265 6.61247 56.8265 6.83445V8.61703C56.8265 8.66899 56.8686 8.71111 56.9206 8.71111C56.9588 8.71111 56.993 8.68801 57.0081 8.65293C57.3178 7.92943 57.8015 7.35225 58.4591 6.92141C59.14 6.47907 59.9811 6.25791 60.9821 6.25791C61.9075 6.25791 62.7136 6.45579 63.4004 6.85157C64.093 7.24734 64.6285 7.82062 65.0068 8.57143C65.3909 9.32223 65.5801 10.2331 65.5742 11.304V19.4403C65.5742 19.6622 65.3943 19.8422 65.1723 19.8422H62.8158C62.5938 19.8422 62.4139 19.6622 62.4139 19.4403V11.7929C62.4139 10.8966 62.1811 10.1953 61.7155 9.6889C61.2557 9.18255 60.6184 8.92937 59.8035 8.92937C59.2506 8.92937 58.7588 9.05159 58.3281 9.29604C57.9032 9.53467 57.5686 9.88097 57.3241 10.3349C57.0855 10.7889 56.9662 11.3389 56.9662 11.985Z" fill="#241663"/>
<path d="M75.0812 6.43251C75.3031 6.43251 75.4831 6.61247 75.4831 6.83445V8.47505C75.4831 8.69703 75.3031 8.87699 75.0812 8.87699H68.1762C67.9542 8.87699 67.7743 8.69703 67.7743 8.47505V6.83445C67.7743 6.61247 67.9542 6.43251 68.1762 6.43251H75.0812ZM69.6775 3.62171C69.6775 3.39973 69.8574 3.21978 70.0794 3.21978H72.4359C72.6579 3.21978 72.8378 3.39973 72.8378 3.62171V15.8088C72.8378 16.2337 72.9018 16.5596 73.0299 16.7866C73.1637 17.0078 73.3384 17.1591 73.5537 17.2406C73.769 17.3221 74.0077 17.3628 74.2696 17.3628C74.4675 17.3628 74.6479 17.3483 74.8109 17.3192C75.0212 17.2829 75.2327 17.4153 75.2776 17.624L75.6524 19.3628C75.6953 19.5616 75.5826 19.7607 75.3857 19.8119C75.2731 19.8411 75.1455 19.8716 75.0029 19.9033C74.6945 19.9732 74.3161 20.0139 73.868 20.0255C73.0764 20.0488 72.3635 19.9295 71.7291 19.6676C71.0947 19.3999 70.5912 18.9866 70.2187 18.4279C69.8521 17.8692 69.6716 17.1707 69.6775 16.3326V3.62171Z" fill="#241663"/>
<path d="M83.9187 20.1041C82.5742 20.1041 81.4131 19.8247 80.4353 19.266C79.4634 18.7014 78.7155 17.9041 78.1917 16.8739C77.6678 15.8379 77.4059 14.6186 77.4059 13.2159C77.4059 11.8365 77.6678 10.6259 78.1917 9.58414C78.7213 8.53651 79.4605 7.72168 80.4091 7.13966C81.3578 6.55183 82.4724 6.25791 83.7528 6.25791C84.5793 6.25791 85.3592 6.39177 86.0925 6.6595C86.8317 6.92141 87.4836 7.32882 88.0481 7.88174C88.6185 8.43465 89.0667 9.1389 89.3926 9.99446C89.7185 10.8442 89.8815 11.8569 89.8815 13.0326V13.5997C89.8815 13.8217 89.7015 14.0017 89.4795 14.0017H79.292C79.07 14.0017 78.8901 13.8217 78.8901 13.5997V12.2734C78.8901 12.0514 79.07 11.8715 79.292 11.8715H86.4463C86.6698 11.8715 86.8528 11.6886 86.8284 11.4665C86.7798 11.0233 86.6567 10.6199 86.4592 10.2564C86.2031 9.77911 85.8452 9.40371 85.3854 9.13017C84.9314 8.85662 84.4018 8.71984 83.7965 8.71984C83.1504 8.71984 82.583 8.87699 82.0941 9.19128C81.6052 9.49975 81.224 9.90716 80.9504 10.4135C80.6827 10.914 80.5459 11.4641 80.5401 12.0635V13.9231C80.5401 14.703 80.6827 15.3723 80.9679 15.931C81.2531 16.484 81.6517 16.9088 82.1639 17.2057C82.6761 17.4967 83.2756 17.6422 83.9624 17.6422C84.4222 17.6422 84.8383 17.5782 85.2108 17.4501C85.5833 17.3162 85.9063 17.1213 86.1798 16.8652C86.3807 16.6771 86.5455 16.4561 86.6742 16.2022C86.7578 16.0372 86.9288 15.9281 87.1126 15.9488L89.2989 16.1946C89.5389 16.2215 89.7024 16.4532 89.6251 16.682C89.4223 17.2821 89.1091 17.8175 88.6854 18.2882C88.1674 18.8644 87.5039 19.3126 86.6949 19.6327C85.8859 19.947 84.9605 20.1041 83.9187 20.1041Z" fill="#241663"/>
<path d="M98.3869 25.1502C97.252 25.1502 96.2771 24.996 95.4623 24.6875C94.6475 24.3848 93.9927 23.9774 93.498 23.4653C93.1115 23.0651 92.8174 22.6313 92.6156 22.1637C92.5238 21.951 92.658 21.7168 92.8832 21.6622L95 21.1492C95.1833 21.1048 95.3707 21.1956 95.4739 21.3535C95.5828 21.5202 95.7157 21.6858 95.8726 21.8502C96.1171 22.1121 96.4459 22.3274 96.8591 22.4962C97.2782 22.6708 97.8049 22.7581 98.4393 22.7581C99.3356 22.7581 100.078 22.5399 100.666 22.1033C101.253 21.6726 101.547 20.9626 101.547 19.9732V17.5298C101.547 17.4761 101.504 17.4326 101.45 17.4326C101.413 17.4326 101.38 17.4535 101.363 17.4861C101.201 17.7951 100.971 18.112 100.674 18.4366C100.366 18.78 99.9555 19.0681 99.4433 19.3009C98.9369 19.5337 98.2996 19.6501 97.5314 19.6501C96.5012 19.6501 95.5671 19.4086 94.729 18.9255C93.8967 18.4366 93.2332 17.7091 92.7385 16.743C92.2496 15.771 92.0051 14.5546 92.0051 13.0937C92.0051 11.6212 92.2496 10.3786 92.7385 9.36588C93.2332 8.34735 93.8996 7.57618 94.7377 7.05236C95.5758 6.52273 96.5099 6.25791 97.5401 6.25791C98.3258 6.25791 98.9719 6.39177 99.4782 6.6595C99.9904 6.92141 100.398 7.23861 100.7 7.6111C100.984 7.95521 101.204 8.28139 101.36 8.58962C101.379 8.62636 101.416 8.65 101.458 8.65C101.517 8.65 101.565 8.60198 101.565 8.54275V6.83445C101.565 6.61247 101.745 6.43251 101.967 6.43251H104.28C104.502 6.43251 104.681 6.61247 104.681 6.83445V20.0605C104.681 21.207 104.408 22.1557 103.861 22.9065C103.314 23.6573 102.566 24.219 101.617 24.5915C100.668 24.964 99.5917 25.1502 98.3869 25.1502ZM98.4131 17.1707C99.0824 17.1707 99.6528 17.0078 100.124 16.6818C100.596 16.3559 100.954 15.8874 101.198 15.2763C101.443 14.6652 101.565 13.9318 101.565 13.0762C101.565 12.2323 101.443 11.4932 101.198 10.8588C100.959 10.2244 100.604 9.73255 100.133 9.38334C99.6674 9.02831 99.0941 8.8508 98.4131 8.8508C97.7089 8.8508 97.121 9.03413 96.6496 9.4008C96.1782 9.76747 95.8232 10.2709 95.5845 10.9111C95.3459 11.5455 95.2266 12.2672 95.2266 13.0762C95.2266 13.8969 95.3459 14.6157 95.5845 15.2326C95.829 15.8437 96.1869 16.321 96.6583 16.6644C97.1356 17.002 97.7205 17.1707 98.4131 17.1707Z" fill="#241663"/>
<path d="M108.322 19.8422C108.1 19.8422 107.92 19.6622 107.92 19.4403V6.83445C107.92 6.61247 108.1 6.43251 108.322 6.43251H110.583C110.805 6.43251 110.985 6.61247 110.985 6.83445V8.58685C110.985 8.63137 111.021 8.66746 111.065 8.66746C111.1 8.66746 111.132 8.64458 111.143 8.61119C111.389 7.86441 111.802 7.2866 112.382 6.87776C112.981 6.45288 113.665 6.24045 114.433 6.24045C114.608 6.24045 114.803 6.24918 115.018 6.26664C115.098 6.27082 115.172 6.27613 115.242 6.28257C115.433 6.30019 115.568 6.46566 115.568 6.65726V8.66957C115.568 8.94611 115.289 9.15913 115.015 9.12323C114.988 9.11966 114.96 9.11616 114.931 9.1127C114.646 9.07196 114.369 9.05159 114.101 9.05159C113.525 9.05159 113.007 9.17673 112.547 9.42699C112.093 9.67144 111.736 10.0119 111.474 10.4484C111.212 10.8849 111.081 11.3884 111.081 11.9588V19.4403C111.081 19.6622 110.901 19.8422 110.679 19.8422H108.322Z" fill="#241663"/>
<path d="M121.286 20.1128C120.437 20.1128 119.671 19.9615 118.99 19.6589C118.315 19.3504 117.78 18.8964 117.384 18.2969C116.994 17.6975 116.799 16.9583 116.799 16.0795C116.799 15.3228 116.939 14.6972 117.218 14.2024C117.497 13.7077 117.879 13.312 118.362 13.0151C118.845 12.7183 119.389 12.4942 119.994 12.3429C120.605 12.1858 121.237 12.0723 121.889 12.0024C122.675 11.9209 123.312 11.8482 123.801 11.7842C124.29 11.7143 124.645 11.6096 124.866 11.4699C125.093 11.3244 125.206 11.1003 125.206 10.7976V10.7453C125.206 10.0876 125.011 9.57832 124.621 9.21747C124.231 8.85662 123.67 8.67619 122.936 8.67619C122.162 8.67619 121.548 8.84498 121.094 9.18255C120.749 9.44299 120.489 9.73981 120.317 10.073C120.228 10.2444 120.048 10.359 119.857 10.3318L117.692 10.0244C117.451 9.99011 117.294 9.74977 117.38 9.52162C117.615 8.89767 117.951 8.36268 118.388 7.91666C118.923 7.36374 119.578 6.95051 120.352 6.67696C121.126 6.39759 121.982 6.25791 122.919 6.25791C123.565 6.25791 124.208 6.33357 124.848 6.48489C125.489 6.63622 126.074 6.88649 126.603 7.2357C127.133 7.57909 127.558 8.04761 127.878 8.64127C128.204 9.23493 128.367 9.977 128.367 10.8675V19.4403C128.367 19.6622 128.187 19.8422 127.965 19.8422H125.73C125.508 19.8422 125.329 19.6622 125.329 19.4403V18.0652C125.329 18.0293 125.299 18.0001 125.263 18.0001C125.239 18.0001 125.217 18.0137 125.205 18.0353C125.015 18.3946 124.75 18.7321 124.412 19.0477C124.068 19.3679 123.635 19.6269 123.111 19.8247C122.593 20.0168 121.985 20.1128 121.286 20.1128ZM122.107 17.7906C122.741 17.7906 123.291 17.6655 123.757 17.4152C124.223 17.1591 124.581 16.8215 124.831 16.4025C125.087 15.9834 125.215 15.5265 125.215 15.0318V14.0099C125.215 13.7872 124.922 13.6161 124.709 13.6786C124.476 13.7485 124.214 13.8096 123.923 13.862C123.632 13.9143 123.344 13.9609 123.059 14.0017C122.773 14.0424 122.526 14.0773 122.317 14.1064C121.845 14.1704 121.423 14.2752 121.051 14.4207C120.678 14.5662 120.384 14.7699 120.169 15.0318C119.954 15.2879 119.846 15.6197 119.846 16.0271C119.846 16.6091 120.058 17.0485 120.483 17.3453C120.908 17.6422 121.449 17.7906 122.107 17.7906Z" fill="#241663"/>
<path d="M137.935 6.43251C138.157 6.43251 138.337 6.61247 138.337 6.83445V8.47505C138.337 8.69703 138.157 8.87699 137.935 8.87699H130.811C130.59 8.87699 130.41 8.69703 130.41 8.47505V6.83445C130.41 6.61247 130.59 6.43251 130.811 6.43251H137.935ZM132.793 19.8422C132.571 19.8422 132.391 19.6622 132.391 19.4403V5.16662C132.391 4.2645 132.578 3.51369 132.95 2.91422C133.328 2.31474 133.835 1.86658 134.469 1.56976C135.104 1.27293 135.808 1.12451 136.582 1.12451C137.129 1.12451 137.615 1.16816 138.04 1.25547C138.267 1.30209 138.462 1.34623 138.626 1.38788C138.829 1.43955 138.942 1.64787 138.89 1.851L138.459 3.52897C138.402 3.75064 138.171 3.88134 137.947 3.83384C137.915 3.82704 137.882 3.82024 137.848 3.81343C137.644 3.76687 137.417 3.74359 137.167 3.74359C136.579 3.74359 136.163 3.88619 135.918 4.17137C135.68 4.45074 135.56 4.85233 135.56 5.37615V19.4403C135.56 19.6622 135.38 19.8422 135.158 19.8422H132.793Z" fill="#241663"/>
<path d="M143.57 1.96262C143.792 1.96262 143.972 2.14257 143.972 2.36456V19.4403C143.972 19.6622 143.792 19.8422 143.57 19.8422H141.214C140.992 19.8422 140.812 19.6622 140.812 19.4403V2.36456C140.812 2.14257 140.992 1.96262 141.214 1.96262H143.57Z" fill="#241663"/>
<path d="M153.071 20.1041C151.762 20.1041 150.627 19.816 149.666 19.2398C148.706 18.6636 147.961 17.8575 147.431 16.8215C146.908 15.7855 146.646 14.5749 146.646 13.1897C146.646 11.8045 146.908 10.591 147.431 9.54922C147.961 8.50741 148.706 7.6984 149.666 7.1222C150.627 6.54601 151.762 6.25791 153.071 6.25791C154.381 6.25791 155.516 6.54601 156.476 7.1222C157.436 7.6984 158.178 8.50741 158.702 9.54922C159.232 10.591 159.497 11.8045 159.497 13.1897C159.497 14.5749 159.232 15.7855 158.702 16.8215C158.178 17.8575 157.436 18.6636 156.476 19.2398C155.516 19.816 154.381 20.1041 153.071 20.1041ZM153.089 17.5723C153.799 17.5723 154.392 17.3774 154.87 16.9874C155.347 16.5916 155.702 16.062 155.935 15.3985C156.173 14.735 156.293 13.9958 156.293 13.181C156.293 12.3604 156.173 11.6183 155.935 10.9548C155.702 10.2855 155.347 9.75292 154.87 9.35715C154.392 8.96138 153.799 8.76349 153.089 8.76349C152.361 8.76349 151.756 8.96138 151.273 9.35715C150.795 9.75292 150.437 10.2855 150.199 10.9548C149.966 11.6183 149.85 12.3604 149.85 13.181C149.85 13.9958 149.966 14.735 150.199 15.3985C150.437 16.062 150.795 16.5916 151.273 16.9874C151.756 17.3774 152.361 17.5723 153.089 17.5723Z" fill="#241663"/>
<path d="M164.866 19.8422C164.687 19.8422 164.529 19.7227 164.48 19.5496L160.918 6.94374C160.845 6.68723 161.038 6.43251 161.305 6.43251H163.681C163.865 6.43251 164.026 6.55804 164.071 6.73697L166.337 15.8018C166.346 15.8367 166.377 15.8612 166.413 15.8612C166.449 15.8612 166.48 15.8369 166.489 15.8022L168.807 6.73493C168.852 6.557 169.012 6.43251 169.196 6.43251H171.759C171.942 6.43251 172.102 6.55673 172.148 6.73441L174.464 15.7457C174.473 15.7828 174.507 15.8088 174.545 15.8088C174.584 15.8088 174.617 15.7825 174.627 15.745L176.857 6.73782C176.902 6.55848 177.063 6.43251 177.248 6.43251H179.632C179.898 6.43251 180.091 6.68741 180.018 6.94397L176.448 19.5498C176.399 19.7228 176.242 19.8422 176.062 19.8422H173.38C173.199 19.8422 173.041 19.7217 172.993 19.5477L170.585 10.8685C170.57 10.8163 170.523 10.7802 170.468 10.7802C170.414 10.7802 170.367 10.8163 170.352 10.8685L167.944 19.5477C167.896 19.7217 167.737 19.8422 167.557 19.8422H164.866Z" fill="#241663"/>
<defs>
<linearGradient id="paint0_linear_2360_11545" x1="19.5996" y1="3.6958" x2="19.5996" y2="22.5786" gradientUnits="userSpaceOnUse">
<stop stop-color="#7EE787"/>
<stop offset="0.53125" stop-color="#1C0F59"/>
<stop offset="0.963542" stop-color="#8C6CDF"/>
</linearGradient>
</defs>
</svg>
