<svg width="301" height="289" viewBox="0 0 301 289" fill="none" xmlns="http://www.w3.org/2000/svg">
<g opacity="0.8">
<rect y="0.303955" width="300.225" height="288.334" rx="12.6079" fill="white"/>
<path d="M20.1713 36.2157V24.754H27.3573V26.2427H21.9007V29.7349H26.9823V31.218H21.9007V34.727H27.4244V36.2157H20.1713ZM31.2063 31.1117V36.2157H29.5329V27.6194H31.1391V29.0186H31.2455C31.4432 28.5634 31.7529 28.1977 32.1745 27.9216C32.5998 27.6455 33.1352 27.5075 33.7807 27.5075C34.3665 27.5075 34.8795 27.6306 35.3197 27.8769C35.76 28.1194 36.1014 28.4813 36.3439 28.9626C36.5864 29.4439 36.7077 30.039 36.7077 30.7479V36.2157H35.0343V30.9494C35.0343 30.3263 34.872 29.8394 34.5474 29.4887C34.2228 29.1342 33.777 28.957 33.2099 28.957C32.8218 28.957 32.4767 29.0409 32.1745 29.2088C31.876 29.3767 31.6391 29.623 31.4637 29.9476C31.2921 30.2684 31.2063 30.6565 31.2063 31.1117ZM42.9646 27.6194V28.9626H38.2691V27.6194H42.9646ZM39.5283 25.5599H41.2017V33.6917C41.2017 34.0163 41.2502 34.2606 41.3472 34.4248C41.4442 34.5852 41.5692 34.6953 41.7222 34.755C41.8789 34.811 42.0486 34.839 42.2315 34.839C42.3658 34.839 42.4833 34.8296 42.584 34.811C42.6848 34.7923 42.7631 34.7774 42.8191 34.7662L43.1213 36.1485C43.0243 36.1859 42.8863 36.2232 42.7072 36.2605C42.5281 36.3015 42.3042 36.3239 42.0356 36.3276C41.5953 36.3351 41.1849 36.2567 40.8043 36.0926C40.4238 35.9284 40.116 35.6747 39.8809 35.3314C39.6459 34.9882 39.5283 34.5573 39.5283 34.0386V25.5599ZM48.4282 36.3892C47.5813 36.3892 46.8519 36.2082 46.24 35.8463C45.6318 35.4807 45.1617 34.9677 44.8297 34.3073C44.5013 33.6432 44.3372 32.8652 44.3372 31.9735C44.3372 31.093 44.5013 30.317 44.8297 29.6454C45.1617 28.9738 45.6244 28.4496 46.2176 28.0727C46.8146 27.6959 47.5123 27.5075 48.3107 27.5075C48.7957 27.5075 49.2658 27.5877 49.721 27.7481C50.1762 27.9086 50.5848 28.1604 50.9467 28.5037C51.3086 28.8469 51.594 29.2928 51.8029 29.8412C52.0119 30.386 52.1163 31.0482 52.1163 31.828V32.4212H45.283V31.1676H50.4766C50.4766 30.7274 50.387 30.3375 50.2079 29.998C50.0288 29.6547 49.777 29.3842 49.4524 29.1865C49.1315 28.9887 48.7547 28.8898 48.3219 28.8898C47.8518 28.8898 47.4414 29.0055 47.0907 29.2368C46.7437 29.4644 46.475 29.7629 46.2848 30.1323C46.0982 30.4979 46.0049 30.8953 46.0049 31.3243V32.3037C46.0049 32.8783 46.1057 33.3671 46.3071 33.77C46.5123 34.173 46.7978 34.4808 47.1634 34.6934C47.529 34.9024 47.9562 35.0068 48.445 35.0068C48.7621 35.0068 49.0513 34.9621 49.3125 34.8725C49.5736 34.7793 49.7994 34.6412 49.9897 34.4584C50.1799 34.2756 50.3254 34.0498 50.4262 33.7812L52.01 34.0666C51.8831 34.533 51.6556 34.9416 51.3272 35.2923C51.0026 35.6393 50.5941 35.9098 50.1016 36.1038C49.6128 36.294 49.055 36.3892 48.4282 36.3892ZM53.973 36.2157V27.6194H55.5904V28.985H55.6799C55.8366 28.5223 56.1127 28.1586 56.5082 27.8937C56.9074 27.625 57.3589 27.4907 57.8626 27.4907C57.967 27.4907 58.0902 27.4944 58.2319 27.5019C58.3775 27.5094 58.4913 27.5187 58.5733 27.5299V29.1305C58.5062 29.1118 58.3868 29.0913 58.2152 29.0689C58.0435 29.0428 57.8719 29.0297 57.7003 29.0297C57.3048 29.0297 56.9522 29.1137 56.6425 29.2816C56.3366 29.4458 56.0941 29.6752 55.915 29.97C55.7359 30.261 55.6464 30.593 55.6464 30.9662V36.2157H53.973ZM65.25 39.4393C65 39.4393 64.7724 39.4188 64.5672 39.3777C64.362 39.3404 64.209 39.2994 64.1083 39.2546L64.5113 37.8835C64.8172 37.9655 65.0896 38.001 65.3284 37.9898C65.5671 37.9786 65.7779 37.8891 65.9608 37.7212C66.1473 37.5533 66.3115 37.279 66.4533 36.8985L66.6603 36.3276L63.5151 27.6194H65.306L67.483 34.2905H67.5726L69.7496 27.6194H71.5461L68.0035 37.363C67.8393 37.8107 67.6304 38.1894 67.3767 38.4991C67.123 38.8125 66.8208 39.0475 66.47 39.2042C66.1193 39.3609 65.7126 39.4393 65.25 39.4393ZM76.4473 36.3892C75.6414 36.3892 74.9381 36.2045 74.3374 35.8351C73.7367 35.4658 73.2703 34.949 72.9382 34.2849C72.6062 33.6208 72.4401 32.8447 72.4401 31.9567C72.4401 31.065 72.6062 30.2852 72.9382 29.6174C73.2703 28.9495 73.7367 28.4309 74.3374 28.0616C74.9381 27.6922 75.6414 27.5075 76.4473 27.5075C77.2532 27.5075 77.9565 27.6922 78.5572 28.0616C79.1579 28.4309 79.6242 28.9495 79.9563 29.6174C80.2884 30.2852 80.4544 31.065 80.4544 31.9567C80.4544 32.8447 80.2884 33.6208 79.9563 34.2849C79.6242 34.949 79.1579 35.4658 78.5572 35.8351C77.9565 36.2045 77.2532 36.3892 76.4473 36.3892ZM76.4529 34.9845C76.9752 34.9845 77.408 34.8464 77.7513 34.5703C78.0945 34.2942 78.3482 33.9267 78.5124 33.4678C78.6803 33.0089 78.7642 32.5033 78.7642 31.9511C78.7642 31.4027 78.6803 30.899 78.5124 30.4401C78.3482 29.9774 78.0945 29.6062 77.7513 29.3264C77.408 29.0465 76.9752 28.9066 76.4529 28.9066C75.9268 28.9066 75.4903 29.0465 75.1433 29.3264C74.8 29.6062 74.5444 29.9774 74.3765 30.4401C74.2124 30.899 74.1303 31.4027 74.1303 31.9511C74.1303 32.5033 74.2124 33.0089 74.3765 33.4678C74.5444 33.9267 74.8 34.2942 75.1433 34.5703C75.4903 34.8464 75.9268 34.9845 76.4529 34.9845ZM87.7677 32.6507V27.6194H89.4466V36.2157H87.8012V34.727H87.7117C87.5139 35.1859 87.1968 35.5684 86.7603 35.8743C86.3275 36.1765 85.7883 36.3276 85.1429 36.3276C84.5907 36.3276 84.1019 36.2064 83.6766 35.9639C83.255 35.7176 82.9229 35.3538 82.6804 34.8725C82.4416 34.3912 82.3222 33.7961 82.3222 33.0872V27.6194H83.9956V32.8858C83.9956 33.4715 84.1579 33.9379 84.4825 34.2849C84.8071 34.6319 85.2287 34.8054 85.7473 34.8054C86.0607 34.8054 86.3723 34.727 86.6819 34.5703C86.9953 34.4136 87.2546 34.1767 87.4598 33.8596C87.6688 33.5424 87.7714 33.1395 87.7677 32.6507ZM91.695 36.2157V27.6194H93.3124V28.985H93.402C93.5587 28.5223 93.8348 28.1586 94.2302 27.8937C94.6295 27.625 95.0809 27.4907 95.5846 27.4907C95.6891 27.4907 95.8122 27.4944 95.954 27.5019C96.0995 27.5094 96.2133 27.5187 96.2954 27.5299V29.1305C96.2282 29.1118 96.1088 29.0913 95.9372 29.0689C95.7656 29.0428 95.5939 29.0297 95.4223 29.0297C95.0268 29.0297 94.6742 29.1137 94.3646 29.2816C94.0586 29.4458 93.8161 29.6752 93.637 29.97C93.4579 30.261 93.3684 30.593 93.3684 30.9662V36.2157H91.695ZM111.3 24.754V36.2157H109.71L103.884 27.8097H103.778V36.2157H102.049V24.754H103.649L109.481 33.1712H109.587V24.754H111.3ZM116.19 36.406C115.645 36.406 115.152 36.3052 114.712 36.1038C114.272 35.8986 113.923 35.6019 113.666 35.2139C113.412 34.8259 113.285 34.3502 113.285 33.7868C113.285 33.3018 113.378 32.9026 113.565 32.5891C113.751 32.2757 114.003 32.0276 114.32 31.8448C114.638 31.662 114.992 31.5239 115.384 31.4307C115.775 31.3374 116.175 31.2665 116.581 31.218C117.096 31.1583 117.514 31.1098 117.835 31.0725C118.156 31.0314 118.389 30.9662 118.535 30.8766C118.68 30.7871 118.753 30.6416 118.753 30.4401V30.4009C118.753 29.9121 118.615 29.5334 118.339 29.2648C118.066 28.9962 117.66 28.8619 117.119 28.8619C116.555 28.8619 116.111 28.9868 115.787 29.2368C115.466 29.4831 115.244 29.7573 115.121 30.0595L113.548 29.7013C113.735 29.179 114.007 28.7574 114.365 28.4365C114.727 28.1119 115.143 27.8769 115.613 27.7314C116.083 27.5821 116.578 27.5075 117.096 27.5075C117.44 27.5075 117.803 27.5485 118.188 27.6306C118.576 27.709 118.938 27.8545 119.273 28.0671C119.613 28.2798 119.891 28.5839 120.107 28.9794C120.324 29.3711 120.432 29.8804 120.432 30.5072V36.2157H118.798V35.0404H118.73C118.622 35.2568 118.46 35.4695 118.244 35.6784C118.027 35.8874 117.749 36.0609 117.41 36.1989C117.07 36.337 116.663 36.406 116.19 36.406ZM116.553 35.0628C117.016 35.0628 117.412 34.9714 117.74 34.7886C118.072 34.6058 118.324 34.367 118.495 34.0722C118.671 33.7737 118.758 33.4547 118.758 33.1152V32.0071C118.699 32.0668 118.583 32.1228 118.411 32.175C118.244 32.2235 118.051 32.2664 117.835 32.3037C117.619 32.3373 117.408 32.369 117.203 32.3989C116.997 32.425 116.826 32.4474 116.688 32.466C116.363 32.5071 116.067 32.5761 115.798 32.6731C115.533 32.7701 115.32 32.91 115.16 33.0928C115.003 33.2719 114.925 33.5107 114.925 33.8092C114.925 34.2233 115.078 34.5367 115.384 34.7494C115.69 34.9583 116.08 35.0628 116.553 35.0628ZM122.661 36.2157V27.6194H124.267V29.0186H124.373C124.552 28.5447 124.845 28.1753 125.252 27.9104C125.659 27.6418 126.145 27.5075 126.713 27.5075C127.287 27.5075 127.768 27.6418 128.156 27.9104C128.548 28.1791 128.837 28.5484 129.024 29.0186H129.113C129.319 28.5596 129.645 28.194 130.093 27.9216C130.541 27.6455 131.074 27.5075 131.693 27.5075C132.473 27.5075 133.109 27.7519 133.602 28.2406C134.098 28.7294 134.346 29.4663 134.346 30.4513V36.2157H132.673V30.608C132.673 30.0259 132.514 29.6043 132.197 29.3432C131.88 29.082 131.501 28.9514 131.061 28.9514C130.516 28.9514 130.093 29.1193 129.791 29.4551C129.488 29.7871 129.337 30.2143 129.337 30.7367V36.2157H127.67V30.5016C127.67 30.0353 127.524 29.6603 127.233 29.3767C126.942 29.0932 126.563 28.9514 126.097 28.9514C125.78 28.9514 125.487 29.0353 125.218 29.2032C124.953 29.3674 124.739 29.5969 124.575 29.8916C124.414 30.1864 124.334 30.5278 124.334 30.9158V36.2157H122.661ZM140.294 36.3892C139.447 36.3892 138.718 36.2082 138.106 35.8463C137.498 35.4807 137.027 34.9677 136.695 34.3073C136.367 33.6432 136.203 32.8652 136.203 31.9735C136.203 31.093 136.367 30.317 136.695 29.6454C137.027 28.9738 137.49 28.4496 138.083 28.0727C138.68 27.6959 139.378 27.5075 140.176 27.5075C140.661 27.5075 141.132 27.5877 141.587 27.7481C142.042 27.9086 142.45 28.1604 142.812 28.5037C143.174 28.8469 143.46 29.2928 143.669 29.8412C143.878 30.386 143.982 31.0482 143.982 31.828V32.4212H137.149V31.1676H142.342C142.342 30.7274 142.253 30.3375 142.074 29.998C141.895 29.6547 141.643 29.3842 141.318 29.1865C140.997 28.9887 140.62 28.8898 140.188 28.8898C139.717 28.8898 139.307 29.0055 138.956 29.2368C138.609 29.4644 138.341 29.7629 138.15 30.1323C137.964 30.4979 137.871 30.8953 137.871 31.3243V32.3037C137.871 32.8783 137.971 33.3671 138.173 33.77C138.378 34.173 138.663 34.4808 139.029 34.6934C139.395 34.9024 139.822 35.0068 140.311 35.0068C140.628 35.0068 140.917 34.9621 141.178 34.8725C141.439 34.7793 141.665 34.6412 141.855 34.4584C142.046 34.2756 142.191 34.0498 142.292 33.7812L143.876 34.0666C143.749 34.533 143.521 34.9416 143.193 35.2923C142.868 35.6393 142.46 35.9098 141.967 36.1038C141.479 36.294 140.921 36.3892 140.294 36.3892Z" fill="#050505"/>
<path d="M19.8837 66.8236V58.8004H24.6944V59.6623H20.8552V62.3732H24.334V63.2351H20.8552V66.8236H19.8837ZM26.2331 66.8236V60.8062H27.1576V66.8236H26.2331ZM26.7032 59.8033C26.523 59.8033 26.3676 59.7419 26.237 59.6192C26.109 59.4964 26.045 59.3489 26.045 59.1765C26.045 59.0041 26.109 58.8566 26.237 58.7338C26.3676 58.6111 26.523 58.5497 26.7032 58.5497C26.8834 58.5497 27.0375 58.6111 27.1655 58.7338C27.296 58.8566 27.3613 59.0041 27.3613 59.1765C27.3613 59.3489 27.296 59.4964 27.1655 59.6192C27.0375 59.7419 26.8834 59.8033 26.7032 59.8033ZM28.851 66.8236V60.8062H29.7442V61.7151H29.8069C29.9166 61.4174 30.1151 61.1758 30.4024 60.9903C30.6896 60.8049 31.0135 60.7122 31.3739 60.7122C31.4418 60.7122 31.5267 60.7135 31.6286 60.7161C31.7304 60.7187 31.8075 60.7226 31.8597 60.7279V61.6681C31.8283 61.6602 31.7565 61.6485 31.6442 61.6328C31.5345 61.6145 31.4183 61.6054 31.2956 61.6054C31.003 61.6054 30.7419 61.6668 30.512 61.7895C30.2848 61.9097 30.1046 62.0768 29.9714 62.291C29.8408 62.5025 29.7755 62.7441 29.7755 63.0157V66.8236H28.851ZM37.2179 62.1539L36.3874 62.3889C36.3352 62.2505 36.2581 62.116 36.1563 61.9854C36.057 61.8522 35.9212 61.7425 35.7489 61.6563C35.5765 61.5701 35.3558 61.527 35.0868 61.527C34.7185 61.527 34.4117 61.6119 34.1662 61.7817C33.9233 61.9488 33.8018 62.1617 33.8018 62.4203C33.8018 62.6501 33.8854 62.8316 34.0525 62.9648C34.2197 63.098 34.4809 63.209 34.8361 63.2978L35.7293 63.5172C36.2673 63.6478 36.6682 63.8476 36.932 64.1166C37.1957 64.383 37.3276 64.7264 37.3276 65.1469C37.3276 65.4916 37.2284 65.7998 37.0299 66.0714C36.834 66.3431 36.5598 66.5572 36.2072 66.7139C35.8546 66.8706 35.4446 66.949 34.9771 66.949C34.3633 66.949 33.8554 66.8158 33.4532 66.5494C33.051 66.283 32.7963 65.8938 32.6892 65.3819L33.5668 65.1626C33.6503 65.4864 33.8084 65.7293 34.0408 65.8912C34.2759 66.0532 34.5827 66.1341 34.9614 66.1341C35.3924 66.1341 35.7345 66.0427 35.9878 65.8599C36.2438 65.6745 36.3718 65.4525 36.3718 65.1939C36.3718 64.985 36.2986 64.81 36.1524 64.6689C36.0061 64.5253 35.7815 64.4182 35.4785 64.3477L34.4756 64.1126C33.9246 63.9821 33.5198 63.7797 33.2612 63.5054C33.0053 63.2286 32.8773 62.8825 32.8773 62.4673C32.8773 62.1277 32.9726 61.8274 33.1633 61.5662C33.3565 61.3051 33.619 61.1 33.9507 60.9512C34.285 60.8023 34.6637 60.7279 35.0868 60.7279C35.6823 60.7279 36.1498 60.8585 36.4893 61.1196C36.8314 61.3808 37.0743 61.7255 37.2179 62.1539ZM41.3363 60.8062V61.5897H38.2179V60.8062H41.3363ZM39.1268 59.3645H40.0513V65.0999C40.0513 65.361 40.0892 65.5569 40.1649 65.6875C40.2433 65.8155 40.3425 65.9017 40.4627 65.9461C40.5854 65.9879 40.7147 66.0088 40.8505 66.0088C40.9524 66.0088 41.0359 66.0035 41.1012 65.9931C41.1665 65.98 41.2188 65.9696 41.2579 65.9617L41.446 66.7923C41.3833 66.8158 41.2958 66.8393 41.1835 66.8628C41.0712 66.8889 40.9289 66.902 40.7565 66.902C40.4953 66.902 40.2394 66.8458 39.9887 66.7335C39.7405 66.6212 39.5342 66.4501 39.3697 66.2203C39.2077 65.9905 39.1268 65.7006 39.1268 65.3506V59.3645ZM52.3173 58.8004V66.8236H51.377L47.005 60.5242H46.9267V66.8236H45.9551V58.8004H46.8953L51.283 65.1155H51.3614V58.8004H52.3173ZM55.9067 66.9646C55.5254 66.9646 55.1794 66.8928 54.8686 66.7492C54.5578 66.6029 54.311 66.3927 54.1282 66.1184C53.9453 65.8416 53.8539 65.5073 53.8539 65.1155C53.8539 64.7708 53.9218 64.4913 54.0576 64.2772C54.1934 64.0604 54.375 63.8907 54.6022 63.7679C54.8294 63.6452 55.0801 63.5537 55.3544 63.4937C55.6312 63.431 55.9093 63.3814 56.1888 63.3448C56.5544 63.2978 56.8509 63.2625 57.0781 63.239C57.3079 63.2129 57.4751 63.1698 57.5795 63.1097C57.6866 63.0497 57.7402 62.9452 57.7402 62.7963V62.765C57.7402 62.3785 57.6344 62.0781 57.4228 61.864C57.2139 61.6498 56.8966 61.5427 56.4709 61.5427C56.0295 61.5427 55.6834 61.6394 55.4327 61.8326C55.182 62.0259 55.0057 62.2322 54.9038 62.4516L54.0263 62.1382C54.183 61.7726 54.3919 61.4879 54.6531 61.2842C54.9169 61.0778 55.2042 60.9342 55.515 60.8532C55.8284 60.7697 56.1366 60.7279 56.4395 60.7279C56.6328 60.7279 56.8548 60.7514 57.1055 60.7984C57.3588 60.8428 57.603 60.9355 57.8381 61.0765C58.0758 61.2176 58.2729 61.4304 58.4296 61.7151C58.5863 61.9998 58.6647 62.3811 58.6647 62.859V66.8236H57.7402V66.0088H57.6931C57.6305 66.1393 57.526 66.2791 57.3797 66.4279C57.2335 66.5768 57.0389 66.7035 56.796 66.8079C56.5531 66.9124 56.2567 66.9646 55.9067 66.9646ZM56.0478 66.1341C56.4134 66.1341 56.7216 66.0623 56.9723 65.9186C57.2256 65.775 57.4163 65.5896 57.5443 65.3624C57.6749 65.1351 57.7402 64.8962 57.7402 64.6454V63.7992C57.701 63.8463 57.6148 63.8893 57.4816 63.9285C57.351 63.9651 57.1995 63.9977 57.0272 64.0265C56.8574 64.0526 56.6916 64.0761 56.5296 64.097C56.3703 64.1153 56.241 64.1309 56.1418 64.144C55.9015 64.1753 55.6769 64.2263 55.468 64.2968C55.2616 64.3647 55.0945 64.4678 54.9665 64.6063C54.8412 64.7421 54.7785 64.9275 54.7785 65.1626C54.7785 65.4838 54.8973 65.7267 55.135 65.8912C55.3752 66.0532 55.6795 66.1341 56.0478 66.1341ZM60.3522 66.8236V60.8062H61.2454V61.7464H61.3238C61.4491 61.4252 61.6515 61.1758 61.931 60.9982C62.2104 60.818 62.546 60.7279 62.9378 60.7279C63.3348 60.7279 63.6652 60.818 63.9289 60.9982C64.1953 61.1758 64.403 61.4252 64.5518 61.7464H64.6145C64.7686 61.4356 64.9997 61.1888 65.3079 61.006C65.6161 60.8206 65.9857 60.7279 66.4166 60.7279C66.9546 60.7279 67.3947 60.8963 67.7368 61.2332C68.079 61.5675 68.25 62.0886 68.25 62.7963V66.8236H67.3255V62.7963C67.3255 62.3524 67.204 62.035 66.9611 61.8444C66.7183 61.6537 66.4323 61.5584 66.1032 61.5584C65.6801 61.5584 65.3523 61.6864 65.1199 61.9423C64.8874 62.1956 64.7712 62.5169 64.7712 62.906V66.8236H63.831V62.7023C63.831 62.3602 63.72 62.0847 63.498 61.8757C63.276 61.6642 62.99 61.5584 62.6401 61.5584C62.3998 61.5584 62.1752 61.6224 61.9662 61.7504C61.7599 61.8783 61.5928 62.0559 61.4648 62.2831C61.3394 62.5077 61.2767 62.7676 61.2767 63.0627V66.8236H60.3522ZM72.4634 66.949C71.8836 66.949 71.3834 66.821 70.9629 66.565C70.5451 66.3065 70.2225 65.9461 69.9953 65.4838C69.7707 65.0189 69.6584 64.4783 69.6584 63.8619C69.6584 63.2456 69.7707 62.7023 69.9953 62.2322C70.2225 61.7595 70.5385 61.3912 70.9434 61.1275C71.3508 60.8611 71.8261 60.7279 72.3693 60.7279C72.6828 60.7279 72.9922 60.7801 73.2978 60.8846C73.6034 60.989 73.8815 61.1588 74.1323 61.3939C74.383 61.6263 74.5828 61.9345 74.7316 62.3184C74.8805 62.7023 74.9549 63.175 74.9549 63.7366V64.1283H70.3165V63.3291H74.0147C74.0147 62.9896 73.9468 62.6867 73.811 62.4203C73.6778 62.1539 73.4872 61.9436 73.239 61.7895C72.9935 61.6354 72.7036 61.5584 72.3693 61.5584C72.0011 61.5584 71.6825 61.6498 71.4135 61.8326C71.1471 62.0128 70.942 62.2479 70.7984 62.5378C70.6548 62.8277 70.5829 63.1385 70.5829 63.4702V64.003C70.5829 64.4574 70.6613 64.8426 70.818 65.1586C70.9773 65.472 71.198 65.711 71.4801 65.8756C71.7621 66.0375 72.0899 66.1184 72.4634 66.1184C72.7063 66.1184 72.9256 66.0845 73.1215 66.0166C73.32 65.9461 73.4911 65.8416 73.6347 65.7032C73.7784 65.5621 73.8894 65.3872 73.9677 65.1782L74.8609 65.429C74.7669 65.7319 74.6089 65.9983 74.3869 66.2281C74.1649 66.4554 73.8907 66.633 73.5642 66.7609C73.2377 66.8863 72.8708 66.949 72.4634 66.949Z" fill="#575656"/>
<rect x="18.9121" y="77.1276" width="262.401" height="34.6716" rx="9.4559" fill="#F0F0F0"/>
<path d="M33.4626 90.4402V98.4634H32.4911V90.4402H33.4626ZM36.2098 94.8435V98.4634H35.2853V92.446H36.1785V93.3862H36.2569C36.3979 93.0806 36.612 92.8351 36.8993 92.6497C37.1866 92.4617 37.5575 92.3676 38.0119 92.3676C38.4194 92.3676 38.7759 92.4512 39.0814 92.6184C39.387 92.7829 39.6247 93.0336 39.7944 93.3705C39.9642 93.7048 40.0491 94.1279 40.0491 94.6398V98.4634H39.1245V94.7025C39.1245 94.2298 39.0018 93.8615 38.7563 93.5978C38.5108 93.3314 38.1739 93.1982 37.7455 93.1982C37.4504 93.1982 37.1866 93.2621 36.9542 93.3901C36.7244 93.5181 36.5428 93.7048 36.4096 93.9503C36.2764 94.1958 36.2098 94.4936 36.2098 94.8435ZM41.7385 100.72V92.446H42.6317V93.4019H42.7414C42.8093 93.2974 42.9033 93.1642 43.0235 93.0023C43.1462 92.8377 43.3212 92.6915 43.5484 92.5635C43.7783 92.4329 44.0891 92.3676 44.4808 92.3676C44.9875 92.3676 45.4341 92.4943 45.8206 92.7476C46.2072 93.001 46.5088 93.3601 46.7256 93.825C46.9424 94.2899 47.0507 94.8383 47.0507 95.4704C47.0507 96.1076 46.9424 96.66 46.7256 97.1275C46.5088 97.5924 46.2085 97.9528 45.8245 98.2087C45.4406 98.4621 44.9979 98.5887 44.4965 98.5887C44.11 98.5887 43.8005 98.5248 43.568 98.3968C43.3356 98.2662 43.1567 98.1186 43.0313 97.9541C42.906 97.7869 42.8093 97.6485 42.7414 97.5388H42.6631V100.72H41.7385ZM42.6474 95.4547C42.6474 95.9091 42.714 96.31 42.8472 96.6574C42.9804 97.0021 43.175 97.2724 43.4309 97.4683C43.6869 97.6616 44.0003 97.7582 44.3711 97.7582C44.7577 97.7582 45.0802 97.6564 45.3388 97.4526C45.5999 97.2463 45.7958 96.9695 45.9264 96.6221C46.0596 96.2721 46.1262 95.883 46.1262 95.4547C46.1262 95.0316 46.0609 94.6503 45.9303 94.3108C45.8023 93.9686 45.6078 93.6983 45.3466 93.4998C45.088 93.2987 44.7629 93.1982 44.3711 93.1982C43.995 93.1982 43.679 93.2935 43.4231 93.4841C43.1671 93.6722 42.9739 93.936 42.8433 94.2755C42.7127 94.6124 42.6474 95.0055 42.6474 95.4547ZM52.2533 96.0031V92.446H53.1778V98.4634H52.2533V97.4448H52.1906C52.0496 97.7504 51.8302 98.0102 51.5325 98.2244C51.2347 98.436 50.8586 98.5417 50.4042 98.5417C50.0281 98.5417 49.6938 98.4595 49.4013 98.2949C49.1088 98.1278 48.8789 97.877 48.7118 97.5427C48.5447 97.2058 48.4611 96.7814 48.4611 96.2695V92.446H49.3856V96.2069C49.3856 96.6456 49.5084 96.9956 49.7539 97.2568C50.002 97.5179 50.318 97.6485 50.7019 97.6485C50.9318 97.6485 51.1655 97.5898 51.4032 97.4722C51.6435 97.3547 51.8446 97.1745 52.0065 96.9316C52.171 96.6887 52.2533 96.3792 52.2533 96.0031ZM57.4881 92.446V93.2295H54.3698V92.446H57.4881ZM55.2786 91.0043H56.2032V96.7396C56.2032 97.0008 56.241 97.1967 56.3168 97.3273C56.3951 97.4553 56.4944 97.5414 56.6145 97.5858C56.7373 97.6276 56.8666 97.6485 57.0024 97.6485C57.1042 97.6485 57.1878 97.6433 57.2531 97.6329C57.3184 97.6198 57.3706 97.6093 57.4098 97.6015L57.5978 98.432C57.5352 98.4555 57.4477 98.479 57.3354 98.5026C57.2231 98.5287 57.0807 98.5417 56.9083 98.5417C56.6472 98.5417 56.3912 98.4856 56.1405 98.3733C55.8924 98.261 55.6861 98.0899 55.5215 97.8601C55.3596 97.6302 55.2786 97.3403 55.2786 96.9904V91.0043ZM64.6612 92.446V93.2295H61.4175V92.446H64.6612ZM62.389 98.4634V91.6155C62.389 91.2707 62.47 90.9834 62.6319 90.7536C62.7938 90.5238 63.0041 90.3514 63.2626 90.2365C63.5212 90.1216 63.7941 90.0641 64.0814 90.0641C64.3086 90.0641 64.4941 90.0824 64.6377 90.1189C64.7814 90.1555 64.8884 90.1895 64.959 90.2208L64.6926 91.02C64.6455 91.0043 64.5803 90.9847 64.4967 90.9612C64.4157 90.9377 64.3086 90.926 64.1754 90.926C63.8699 90.926 63.6492 91.003 63.5134 91.1571C63.3802 91.3112 63.3136 91.5371 63.3136 91.8348V98.4634H62.389ZM65.957 98.4634V92.446H66.8815V98.4634H65.957ZM66.4271 91.4431C66.2469 91.4431 66.0915 91.3817 65.9609 91.259C65.8329 91.1362 65.7689 90.9886 65.7689 90.8163C65.7689 90.6439 65.8329 90.4963 65.9609 90.3736C66.0915 90.2508 66.2469 90.1895 66.4271 90.1895C66.6073 90.1895 66.7614 90.2508 66.8893 90.3736C67.0199 90.4963 67.0852 90.6439 67.0852 90.8163C67.0852 90.9886 67.0199 91.1362 66.8893 91.259C66.7614 91.3817 66.6073 91.4431 66.4271 91.4431ZM71.0978 98.5887C70.518 98.5887 70.0178 98.4608 69.5974 98.2048C69.1795 97.9463 68.8569 97.5858 68.6297 97.1236C68.4051 96.6587 68.2928 96.1181 68.2928 95.5017C68.2928 94.8853 68.4051 94.3421 68.6297 93.872C68.8569 93.3993 69.173 93.031 69.5778 92.7672C69.9852 92.5008 70.4605 92.3676 71.0038 92.3676C71.3172 92.3676 71.6267 92.4199 71.9322 92.5243C72.2378 92.6288 72.516 92.7986 72.7667 93.0336C73.0174 93.2661 73.2172 93.5742 73.3661 93.9582C73.5149 94.3421 73.5894 94.8148 73.5894 95.3763V95.7681H68.951V94.9689H72.6491C72.6491 94.6294 72.5812 94.3264 72.4454 94.06C72.3122 93.7936 72.1216 93.5834 71.8735 93.4293C71.628 93.2752 71.3381 93.1982 71.0038 93.1982C70.6355 93.1982 70.3169 93.2896 70.0479 93.4724C69.7815 93.6526 69.5765 93.8877 69.4328 94.1776C69.2892 94.4675 69.2174 94.7782 69.2174 95.1099V95.6427C69.2174 96.0972 69.2957 96.4824 69.4524 96.7984C69.6117 97.1118 69.8324 97.3508 70.1145 97.5153C70.3965 97.6773 70.7243 97.7582 71.0978 97.7582C71.3407 97.7582 71.5601 97.7243 71.7559 97.6564C71.9544 97.5858 72.1255 97.4814 72.2691 97.343C72.4128 97.2019 72.5238 97.0269 72.6021 96.818L73.4953 97.0687C73.4013 97.3717 73.2433 97.6381 73.0213 97.8679C72.7993 98.0951 72.5251 98.2727 72.1986 98.4007C71.8722 98.5261 71.5052 98.5887 71.0978 98.5887ZM75.9203 90.4402V98.4634H74.9958V90.4402H75.9203ZM79.8859 98.5887C79.3844 98.5887 78.9418 98.4621 78.5578 98.2087C78.1739 97.9528 77.8736 97.5924 77.6568 97.1275C77.44 96.66 77.3316 96.1076 77.3316 95.4704C77.3316 94.8383 77.44 94.2899 77.6568 93.825C77.8736 93.3601 78.1752 93.001 78.5617 92.7476C78.9483 92.4943 79.3949 92.3676 79.9016 92.3676C80.2933 92.3676 80.6028 92.4329 80.83 92.5635C81.0599 92.6915 81.2348 92.8377 81.355 93.0023C81.4777 93.1642 81.5731 93.2974 81.641 93.4019H81.7193V90.4402H82.6439V98.4634H81.7507V97.5388H81.641C81.5731 97.6485 81.4764 97.7869 81.3511 97.9541C81.2257 98.1186 81.0468 98.2662 80.8144 98.3968C80.5819 98.5248 80.2724 98.5887 79.8859 98.5887ZM80.0112 97.7582C80.3821 97.7582 80.6955 97.6616 80.9515 97.4683C81.2074 97.2724 81.402 97.0021 81.5352 96.6574C81.6684 96.31 81.735 95.9091 81.735 95.4547C81.735 95.0055 81.6697 94.6124 81.5391 94.2755C81.4085 93.936 81.2152 93.6722 80.9593 93.4841C80.7034 93.2935 80.3873 93.1982 80.0112 93.1982C79.6195 93.1982 79.293 93.2987 79.0319 93.4998C78.7733 93.6983 78.5787 93.9686 78.4481 94.3108C78.3202 94.6503 78.2562 95.0316 78.2562 95.4547C78.2562 95.883 78.3215 96.2721 78.4521 96.6221C78.5853 96.9695 78.7811 97.2463 79.0397 97.4526C79.3009 97.6564 79.6247 97.7582 80.0112 97.7582Z" fill="#575656"/>
<path d="M19.8837 136.407V128.384H20.8552V135.545H24.5848V136.407H19.8837ZM27.7345 136.548C27.3532 136.548 27.0071 136.476 26.6963 136.333C26.3855 136.186 26.1387 135.976 25.9559 135.702C25.7731 135.425 25.6817 135.091 25.6817 134.699C25.6817 134.354 25.7496 134.075 25.8854 133.861C26.0212 133.644 26.2027 133.474 26.4299 133.351C26.6572 133.229 26.9079 133.137 27.1821 133.077C27.4589 133.014 27.7371 132.965 28.0165 132.928C28.3822 132.881 28.6786 132.846 28.9058 132.823C29.1357 132.796 29.3028 132.753 29.4073 132.693C29.5144 132.633 29.5679 132.529 29.5679 132.38V132.348C29.5679 131.962 29.4621 131.662 29.2506 131.447C29.0416 131.233 28.7243 131.126 28.2986 131.126C27.8572 131.126 27.5112 131.223 27.2605 131.416C27.0097 131.609 26.8334 131.816 26.7316 132.035L25.854 131.722C26.0108 131.356 26.2197 131.071 26.4809 130.868C26.7446 130.661 27.0319 130.518 27.3427 130.437C27.6561 130.353 27.9643 130.311 28.2673 130.311C28.4605 130.311 28.6825 130.335 28.9333 130.382C29.1866 130.426 29.4308 130.519 29.6658 130.66C29.9035 130.801 30.1007 131.014 30.2574 131.299C30.4141 131.583 30.4925 131.965 30.4925 132.443V136.407H29.5679V135.592H29.5209C29.4582 135.723 29.3537 135.863 29.2075 136.011C29.0612 136.16 28.8667 136.287 28.6238 136.391C28.3809 136.496 28.0845 136.548 27.7345 136.548ZM27.8755 135.718C28.2412 135.718 28.5493 135.646 28.8001 135.502C29.0534 135.359 29.2441 135.173 29.372 134.946C29.5026 134.719 29.5679 134.48 29.5679 134.229V133.383C29.5287 133.43 29.4425 133.473 29.3093 133.512C29.1788 133.549 29.0273 133.581 28.8549 133.61C28.6851 133.636 28.5193 133.66 28.3574 133.68C28.1981 133.699 28.0688 133.714 27.9695 133.727C27.7293 133.759 27.5047 133.81 27.2957 133.88C27.0894 133.948 26.9222 134.051 26.7943 134.19C26.6689 134.326 26.6062 134.511 26.6062 134.746C26.6062 135.067 26.7251 135.31 26.9627 135.475C27.203 135.637 27.5073 135.718 27.8755 135.718ZM36.4423 131.737L35.6117 131.972C35.5595 131.834 35.4825 131.699 35.3806 131.569C35.2814 131.436 35.1456 131.326 34.9732 131.24C34.8008 131.154 34.5801 131.111 34.3111 131.111C33.9429 131.111 33.636 131.195 33.3905 131.365C33.1476 131.532 33.0261 131.745 33.0261 132.004C33.0261 132.234 33.1097 132.415 33.2769 132.548C33.444 132.681 33.7052 132.792 34.0604 132.881L34.9536 133.101C35.4916 133.231 35.8925 133.431 36.1563 133.7C36.4201 133.966 36.552 134.31 36.552 134.73C36.552 135.075 36.4527 135.383 36.2542 135.655C36.0583 135.927 35.7841 136.141 35.4315 136.297C35.079 136.454 34.6689 136.532 34.2014 136.532C33.5877 136.532 33.0797 136.399 32.6775 136.133C32.2753 135.866 32.0206 135.477 31.9136 134.965L32.7911 134.746C32.8747 135.07 33.0327 135.313 33.2651 135.475C33.5002 135.637 33.807 135.718 34.1857 135.718C34.6167 135.718 34.9588 135.626 35.2122 135.443C35.4681 135.258 35.5961 135.036 35.5961 134.777C35.5961 134.568 35.5229 134.393 35.3767 134.252C35.2304 134.109 35.0058 134.002 34.7029 133.931L33.7 133.696C33.1489 133.566 32.7441 133.363 32.4855 133.089C32.2296 132.812 32.1016 132.466 32.1016 132.051C32.1016 131.711 32.1969 131.411 32.3876 131.15C32.5808 130.889 32.8433 130.684 33.175 130.535C33.5093 130.386 33.888 130.311 34.3111 130.311C34.9066 130.311 35.3741 130.442 35.7136 130.703C36.0557 130.964 36.2986 131.309 36.4423 131.737ZM40.5606 130.39V131.173H37.4422V130.39H40.5606ZM38.3511 128.948H39.2757V134.683C39.2757 134.945 39.3135 135.14 39.3893 135.271C39.4676 135.399 39.5669 135.485 39.687 135.53C39.8097 135.571 39.939 135.592 40.0748 135.592C40.1767 135.592 40.2603 135.587 40.3256 135.577C40.3909 135.564 40.4431 135.553 40.4823 135.545L40.6703 136.376C40.6076 136.399 40.5201 136.423 40.4078 136.446C40.2955 136.472 40.1532 136.485 39.9808 136.485C39.7196 136.485 39.4637 136.429 39.213 136.317C38.9649 136.205 38.7585 136.034 38.594 135.804C38.4321 135.574 38.3511 135.284 38.3511 134.934V128.948ZM51.5416 128.384V136.407H50.6014L46.2293 130.108H46.151V136.407H45.1794V128.384H46.1197L50.5073 134.699H50.5857V128.384H51.5416ZM55.131 136.548C54.7497 136.548 54.4037 136.476 54.0929 136.333C53.7821 136.186 53.5353 135.976 53.3525 135.702C53.1697 135.425 53.0782 135.091 53.0782 134.699C53.0782 134.354 53.1461 134.075 53.282 133.861C53.4178 133.644 53.5993 133.474 53.8265 133.351C54.0537 133.229 54.3044 133.137 54.5787 133.077C54.8555 133.014 55.1337 132.965 55.4131 132.928C55.7788 132.881 56.0752 132.846 56.3024 132.823C56.5322 132.796 56.6994 132.753 56.8039 132.693C56.9109 132.633 56.9645 132.529 56.9645 132.38V132.348C56.9645 131.962 56.8587 131.662 56.6472 131.447C56.4382 131.233 56.1209 131.126 55.6952 131.126C55.2538 131.126 54.9077 131.223 54.657 131.416C54.4063 131.609 54.23 131.816 54.1282 132.035L53.2506 131.722C53.4073 131.356 53.6163 131.071 53.8774 130.868C54.1412 130.661 54.4285 130.518 54.7393 130.437C55.0527 130.353 55.3609 130.311 55.6638 130.311C55.8571 130.311 56.0791 130.335 56.3298 130.382C56.5832 130.426 56.8274 130.519 57.0624 130.66C57.3001 130.801 57.4973 131.014 57.654 131.299C57.8107 131.583 57.889 131.965 57.889 132.443V136.407H56.9645V135.592H56.9175C56.8548 135.723 56.7503 135.863 56.6041 136.011C56.4578 136.16 56.2632 136.287 56.0203 136.391C55.7774 136.496 55.481 136.548 55.131 136.548ZM55.2721 135.718C55.6377 135.718 55.9459 135.646 56.1966 135.502C56.45 135.359 56.6406 135.173 56.7686 134.946C56.8992 134.719 56.9645 134.48 56.9645 134.229V133.383C56.9253 133.43 56.8391 133.473 56.7059 133.512C56.5753 133.549 56.4238 133.581 56.2515 133.61C56.0817 133.636 55.9159 133.66 55.7539 133.68C55.5946 133.699 55.4653 133.714 55.3661 133.727C55.1258 133.759 54.9012 133.81 54.6923 133.88C54.486 133.948 54.3188 134.051 54.1908 134.19C54.0655 134.326 54.0028 134.511 54.0028 134.746C54.0028 135.067 54.1216 135.31 54.3593 135.475C54.5996 135.637 54.9038 135.718 55.2721 135.718ZM59.5765 136.407V130.39H60.4697V131.33H60.5481C60.6734 131.009 60.8758 130.759 61.1553 130.582C61.4348 130.401 61.7704 130.311 62.1621 130.311C62.5591 130.311 62.8895 130.401 63.1533 130.582C63.4197 130.759 63.6273 131.009 63.7762 131.33H63.8388C63.9929 131.019 64.2241 130.772 64.5322 130.59C64.8404 130.404 65.21 130.311 65.6409 130.311C66.1789 130.311 66.619 130.48 66.9611 130.817C67.3033 131.151 67.4743 131.672 67.4743 132.38V136.407H66.5498V132.38C66.5498 131.936 66.4284 131.619 66.1855 131.428C65.9426 131.237 65.6566 131.142 65.3275 131.142C64.9044 131.142 64.5766 131.27 64.3442 131.526C64.1118 131.779 63.9955 132.1 63.9955 132.49V136.407H63.0553V132.286C63.0553 131.944 62.9443 131.668 62.7223 131.459C62.5003 131.248 62.2143 131.142 61.8644 131.142C61.6241 131.142 61.3995 131.206 61.1906 131.334C60.9842 131.462 60.8171 131.639 60.6891 131.867C60.5637 132.091 60.5011 132.351 60.5011 132.646V136.407H59.5765ZM71.6877 136.532C71.1079 136.532 70.6077 136.404 70.1873 136.149C69.7694 135.89 69.4468 135.53 69.2196 135.067C68.995 134.602 68.8827 134.062 68.8827 133.445C68.8827 132.829 68.995 132.286 69.2196 131.816C69.4468 131.343 69.7629 130.975 70.1677 130.711C70.5751 130.445 71.0504 130.311 71.5937 130.311C71.9071 130.311 72.2166 130.364 72.5221 130.468C72.8277 130.573 73.1059 130.742 73.3566 130.977C73.6073 131.21 73.8071 131.518 73.956 131.902C74.1048 132.286 74.1793 132.759 74.1793 133.32V133.712H69.5409V132.913H73.2391C73.2391 132.573 73.1711 132.27 73.0353 132.004C72.9021 131.737 72.7115 131.527 72.4634 131.373C72.2179 131.219 71.928 131.142 71.5937 131.142C71.2254 131.142 70.9068 131.233 70.6378 131.416C70.3714 131.596 70.1664 131.831 70.0227 132.121C69.8791 132.411 69.8073 132.722 69.8073 133.054V133.586C69.8073 134.041 69.8856 134.426 70.0423 134.742C70.2016 135.056 70.4223 135.295 70.7044 135.459C70.9864 135.621 71.3142 135.702 71.6877 135.702C71.9306 135.702 72.15 135.668 72.3458 135.6C72.5443 135.53 72.7154 135.425 72.859 135.287C73.0027 135.146 73.1137 134.971 73.192 134.762L74.0852 135.012C73.9912 135.315 73.8332 135.582 73.6112 135.812C73.3892 136.039 73.115 136.216 72.7885 136.344C72.4621 136.47 72.0951 136.532 71.6877 136.532Z" fill="#575656"/>
<rect x="18.9121" y="146.711" width="262.401" height="34.6716" rx="9.4559" fill="#F0F0F0"/>
<path d="M33.4626 160.024V168.047H32.4911V160.024H33.4626ZM36.2098 164.427V168.047H35.2853V162.029H36.1785V162.97H36.2569C36.3979 162.664 36.612 162.419 36.8993 162.233C37.1866 162.045 37.5575 161.951 38.0119 161.951C38.4194 161.951 38.7759 162.035 39.0814 162.202C39.387 162.366 39.6247 162.617 39.7944 162.954C39.9642 163.288 40.0491 163.711 40.0491 164.223V168.047H39.1245V164.286C39.1245 163.813 39.0018 163.445 38.7563 163.181C38.5108 162.915 38.1739 162.782 37.7455 162.782C37.4504 162.782 37.1866 162.846 36.9542 162.974C36.7244 163.102 36.5428 163.288 36.4096 163.534C36.2764 163.779 36.2098 164.077 36.2098 164.427ZM41.7385 170.303V162.029H42.6317V162.985H42.7414C42.8093 162.881 42.9033 162.748 43.0235 162.586C43.1462 162.421 43.3212 162.275 43.5484 162.147C43.7783 162.016 44.0891 161.951 44.4808 161.951C44.9875 161.951 45.4341 162.078 45.8206 162.331C46.2072 162.584 46.5088 162.944 46.7256 163.408C46.9424 163.873 47.0507 164.422 47.0507 165.054C47.0507 165.691 46.9424 166.243 46.7256 166.711C46.5088 167.176 46.2085 167.536 45.8245 167.792C45.4406 168.046 44.9979 168.172 44.4965 168.172C44.11 168.172 43.8005 168.108 43.568 167.98C43.3356 167.85 43.1567 167.702 43.0313 167.538C42.906 167.37 42.8093 167.232 42.7414 167.122H42.6631V170.303H41.7385ZM42.6474 165.038C42.6474 165.493 42.714 165.894 42.8472 166.241C42.9804 166.586 43.175 166.856 43.4309 167.052C43.6869 167.245 44.0003 167.342 44.3711 167.342C44.7577 167.342 45.0802 167.24 45.3388 167.036C45.5999 166.83 45.7958 166.553 45.9264 166.206C46.0596 165.856 46.1262 165.467 46.1262 165.038C46.1262 164.615 46.0609 164.234 45.9303 163.894C45.8023 163.552 45.6078 163.282 45.3466 163.083C45.088 162.882 44.7629 162.782 44.3711 162.782C43.995 162.782 43.679 162.877 43.4231 163.068C43.1671 163.256 42.9739 163.519 42.8433 163.859C42.7127 164.196 42.6474 164.589 42.6474 165.038ZM52.2533 165.587V162.029H53.1778V168.047H52.2533V167.028H52.1906C52.0496 167.334 51.8302 167.594 51.5325 167.808C51.2347 168.019 50.8586 168.125 50.4042 168.125C50.0281 168.125 49.6938 168.043 49.4013 167.878C49.1088 167.711 48.8789 167.461 48.7118 167.126C48.5447 166.789 48.4611 166.365 48.4611 165.853V162.029H49.3856V165.79C49.3856 166.229 49.5084 166.579 49.7539 166.84C50.002 167.101 50.318 167.232 50.7019 167.232C50.9318 167.232 51.1655 167.173 51.4032 167.056C51.6435 166.938 51.8446 166.758 52.0065 166.515C52.171 166.272 52.2533 165.963 52.2533 165.587ZM57.4881 162.029V162.813H54.3698V162.029H57.4881ZM55.2786 160.588H56.2032V166.323C56.2032 166.584 56.241 166.78 56.3168 166.911C56.3951 167.039 56.4944 167.125 56.6145 167.169C56.7373 167.211 56.8666 167.232 57.0024 167.232C57.1042 167.232 57.1878 167.227 57.2531 167.216C57.3184 167.203 57.3706 167.193 57.4098 167.185L57.5978 168.016C57.5352 168.039 57.4477 168.063 57.3354 168.086C57.2231 168.112 57.0807 168.125 56.9083 168.125C56.6472 168.125 56.3912 168.069 56.1405 167.957C55.8924 167.844 55.6861 167.673 55.5215 167.444C55.3596 167.214 55.2786 166.924 55.2786 166.574V160.588ZM64.6612 162.029V162.813H61.4175V162.029H64.6612ZM62.389 168.047V161.199C62.389 160.854 62.47 160.567 62.6319 160.337C62.7938 160.107 63.0041 159.935 63.2626 159.82C63.5212 159.705 63.7941 159.648 64.0814 159.648C64.3086 159.648 64.4941 159.666 64.6377 159.702C64.7814 159.739 64.8884 159.773 64.959 159.804L64.6926 160.603C64.6455 160.588 64.5803 160.568 64.4967 160.545C64.4157 160.521 64.3086 160.509 64.1754 160.509C63.8699 160.509 63.6492 160.587 63.5134 160.741C63.3802 160.895 63.3136 161.121 63.3136 161.418V168.047H62.389ZM65.957 168.047V162.029H66.8815V168.047H65.957ZM66.4271 161.027C66.2469 161.027 66.0915 160.965 65.9609 160.842C65.8329 160.72 65.7689 160.572 65.7689 160.4C65.7689 160.227 65.8329 160.08 65.9609 159.957C66.0915 159.834 66.2469 159.773 66.4271 159.773C66.6073 159.773 66.7614 159.834 66.8893 159.957C67.0199 160.08 67.0852 160.227 67.0852 160.4C67.0852 160.572 67.0199 160.72 66.8893 160.842C66.7614 160.965 66.6073 161.027 66.4271 161.027ZM71.0978 168.172C70.518 168.172 70.0178 168.044 69.5974 167.788C69.1795 167.53 68.8569 167.169 68.6297 166.707C68.4051 166.242 68.2928 165.702 68.2928 165.085C68.2928 164.469 68.4051 163.926 68.6297 163.455C68.8569 162.983 69.173 162.615 69.5778 162.351C69.9852 162.084 70.4605 161.951 71.0038 161.951C71.3172 161.951 71.6267 162.003 71.9322 162.108C72.2378 162.212 72.516 162.382 72.7667 162.617C73.0174 162.85 73.2172 163.158 73.3661 163.542C73.5149 163.926 73.5894 164.398 73.5894 164.96V165.352H68.951V164.552H72.6491C72.6491 164.213 72.5812 163.91 72.4454 163.644C72.3122 163.377 72.1216 163.167 71.8735 163.013C71.628 162.859 71.3381 162.782 71.0038 162.782C70.6355 162.782 70.3169 162.873 70.0479 163.056C69.7815 163.236 69.5765 163.471 69.4328 163.761C69.2892 164.051 69.2174 164.362 69.2174 164.693V165.226C69.2174 165.681 69.2957 166.066 69.4524 166.382C69.6117 166.695 69.8324 166.934 70.1145 167.099C70.3965 167.261 70.7243 167.342 71.0978 167.342C71.3407 167.342 71.5601 167.308 71.7559 167.24C71.9544 167.169 72.1255 167.065 72.2691 166.926C72.4128 166.785 72.5238 166.61 72.6021 166.401L73.4953 166.652C73.4013 166.955 73.2433 167.222 73.0213 167.451C72.7993 167.679 72.5251 167.856 72.1986 167.984C71.8722 168.11 71.5052 168.172 71.0978 168.172ZM75.9203 160.024V168.047H74.9958V160.024H75.9203ZM79.8859 168.172C79.3844 168.172 78.9418 168.046 78.5578 167.792C78.1739 167.536 77.8736 167.176 77.6568 166.711C77.44 166.243 77.3316 165.691 77.3316 165.054C77.3316 164.422 77.44 163.873 77.6568 163.408C77.8736 162.944 78.1752 162.584 78.5617 162.331C78.9483 162.078 79.3949 161.951 79.9016 161.951C80.2933 161.951 80.6028 162.016 80.83 162.147C81.0599 162.275 81.2348 162.421 81.355 162.586C81.4777 162.748 81.5731 162.881 81.641 162.985H81.7193V160.024H82.6439V168.047H81.7507V167.122H81.641C81.5731 167.232 81.4764 167.37 81.3511 167.538C81.2257 167.702 81.0468 167.85 80.8144 167.98C80.5819 168.108 80.2724 168.172 79.8859 168.172ZM80.0112 167.342C80.3821 167.342 80.6955 167.245 80.9515 167.052C81.2074 166.856 81.402 166.586 81.5352 166.241C81.6684 165.894 81.735 165.493 81.735 165.038C81.735 164.589 81.6697 164.196 81.5391 163.859C81.4085 163.519 81.2152 163.256 80.9593 163.068C80.7034 162.877 80.3873 162.782 80.0112 162.782C79.6195 162.782 79.293 162.882 79.0319 163.083C78.7733 163.282 78.5787 163.552 78.4481 163.894C78.3202 164.234 78.2562 164.615 78.2562 165.038C78.2562 165.467 78.3215 165.856 78.4521 166.206C78.5853 166.553 78.7811 166.83 79.0397 167.036C79.3009 167.24 79.6247 167.342 80.0112 167.342Z" fill="#575656"/>
<rect x="18.9121" y="193.99" width="262.401" height="37.9118" rx="9.4559" fill="#050505"/>
<path d="M135.238 210.569C135.184 210.116 134.967 209.763 134.584 209.513C134.202 209.262 133.734 209.137 133.179 209.137C132.773 209.137 132.417 209.202 132.113 209.334C131.812 209.465 131.576 209.646 131.406 209.875C131.238 210.105 131.155 210.366 131.155 210.659C131.155 210.904 131.213 211.114 131.33 211.29C131.449 211.463 131.601 211.608 131.786 211.725C131.971 211.838 132.165 211.932 132.368 212.007C132.571 212.078 132.758 212.136 132.928 212.181L133.859 212.432C134.098 212.495 134.364 212.581 134.656 212.692C134.952 212.802 135.234 212.953 135.502 213.144C135.774 213.332 135.998 213.574 136.174 213.869C136.35 214.165 136.438 214.527 136.438 214.957C136.438 215.453 136.308 215.9 136.049 216.3C135.792 216.7 135.416 217.018 134.92 217.254C134.428 217.49 133.829 217.608 133.125 217.608C132.468 217.608 131.9 217.502 131.419 217.29C130.941 217.078 130.565 216.782 130.291 216.403C130.019 216.024 129.865 215.584 129.83 215.082H130.976C131.006 215.429 131.122 215.715 131.325 215.942C131.531 216.166 131.791 216.333 132.104 216.444C132.42 216.551 132.761 216.605 133.125 216.605C133.549 216.605 133.929 216.536 134.267 216.399C134.604 216.258 134.871 216.064 135.068 215.817C135.265 215.566 135.363 215.273 135.363 214.939C135.363 214.635 135.278 214.387 135.108 214.196C134.938 214.005 134.714 213.85 134.437 213.73C134.159 213.611 133.859 213.506 133.537 213.417L132.409 213.095C131.692 212.889 131.125 212.595 130.707 212.213C130.289 211.83 130.08 211.331 130.08 210.713C130.08 210.199 130.219 209.752 130.497 209.369C130.777 208.984 131.153 208.686 131.625 208.474C132.1 208.259 132.629 208.152 133.214 208.152C133.805 208.152 134.331 208.258 134.79 208.47C135.25 208.679 135.614 208.965 135.883 209.329C136.154 209.693 136.298 210.107 136.313 210.569H135.238ZM142.454 214.635V210.569H143.511V217.446H142.454V216.282H142.383C142.221 216.632 141.971 216.929 141.63 217.173C141.29 217.415 140.86 217.536 140.341 217.536C139.911 217.536 139.529 217.442 139.195 217.254C138.861 217.063 138.598 216.776 138.407 216.394C138.216 216.009 138.12 215.524 138.12 214.939V210.569H139.177V214.868C139.177 215.369 139.317 215.769 139.598 216.067C139.881 216.366 140.243 216.515 140.681 216.515C140.944 216.515 141.211 216.448 141.483 216.314C141.757 216.179 141.987 215.973 142.172 215.696C142.36 215.418 142.454 215.065 142.454 214.635ZM145.589 217.446V208.277H146.646V211.662H146.736C146.813 211.542 146.921 211.39 147.058 211.205C147.198 211.017 147.398 210.85 147.658 210.704C147.921 210.554 148.276 210.48 148.724 210.48C149.303 210.48 149.813 210.625 150.255 210.914C150.696 211.204 151.041 211.614 151.289 212.145C151.537 212.677 151.661 213.303 151.661 214.026C151.661 214.754 151.537 215.385 151.289 215.92C151.041 216.451 150.698 216.863 150.259 217.155C149.82 217.445 149.315 217.59 148.741 217.59C148.3 217.59 147.946 217.517 147.68 217.37C147.415 217.221 147.21 217.052 147.067 216.864C146.924 216.673 146.813 216.515 146.736 216.39H146.61V217.446H145.589ZM146.628 214.008C146.628 214.527 146.704 214.985 146.857 215.382C147.009 215.776 147.231 216.085 147.524 216.309C147.816 216.53 148.174 216.641 148.598 216.641C149.04 216.641 149.409 216.524 149.704 216.291C150.003 216.055 150.226 215.739 150.376 215.342C150.528 214.942 150.604 214.497 150.604 214.008C150.604 213.524 150.529 213.089 150.38 212.701C150.234 212.31 150.011 212.001 149.713 211.774C149.418 211.544 149.046 211.429 148.598 211.429C148.168 211.429 147.807 211.538 147.515 211.756C147.222 211.971 147.001 212.272 146.852 212.66C146.703 213.045 146.628 213.495 146.628 214.008ZM153.277 217.446V210.569H154.298V211.644H154.387C154.53 211.277 154.762 210.992 155.081 210.789C155.401 210.583 155.784 210.48 156.232 210.48C156.686 210.48 157.063 210.583 157.365 210.789C157.669 210.992 157.906 211.277 158.076 211.644H158.148C158.324 211.289 158.588 211.007 158.941 210.798C159.293 210.586 159.715 210.48 160.208 210.48C160.822 210.48 161.325 210.672 161.716 211.057C162.107 211.439 162.303 212.035 162.303 212.844V217.446H161.246V212.844C161.246 212.336 161.108 211.974 160.83 211.756C160.552 211.538 160.226 211.429 159.849 211.429C159.366 211.429 158.991 211.575 158.726 211.868C158.46 212.157 158.327 212.524 158.327 212.969V217.446H157.253V212.736C157.253 212.345 157.126 212.03 156.872 211.792C156.618 211.55 156.292 211.429 155.892 211.429C155.617 211.429 155.36 211.502 155.121 211.648C154.886 211.795 154.695 211.998 154.548 212.257C154.405 212.514 154.333 212.811 154.333 213.148V217.446H153.277ZM164.235 217.446V210.569H165.292V217.446H164.235ZM164.772 209.423C164.566 209.423 164.389 209.353 164.239 209.213C164.093 209.073 164.02 208.904 164.02 208.707C164.02 208.51 164.093 208.341 164.239 208.201C164.389 208.061 164.566 207.991 164.772 207.991C164.978 207.991 165.154 208.061 165.3 208.201C165.45 208.341 165.524 208.51 165.524 208.707C165.524 208.904 165.45 209.073 165.3 209.213C165.154 209.353 164.978 209.423 164.772 209.423ZM170.218 210.569V211.465H166.654V210.569H170.218ZM167.692 208.922H168.749V215.476C168.749 215.775 168.792 215.999 168.879 216.148C168.968 216.294 169.082 216.393 169.219 216.444C169.359 216.491 169.507 216.515 169.662 216.515C169.779 216.515 169.874 216.509 169.949 216.497C170.024 216.482 170.083 216.47 170.128 216.461L170.343 217.411C170.271 217.437 170.171 217.464 170.043 217.491C169.915 217.521 169.752 217.536 169.555 217.536C169.256 217.536 168.964 217.472 168.677 217.343C168.394 217.215 168.158 217.02 167.97 216.757C167.785 216.494 167.692 216.163 167.692 215.763V208.922Z" fill="white"/>
<path d="M88.9918 262.814V254.791H91.7028C92.3322 254.791 92.8467 254.905 93.2463 255.132C93.6485 255.356 93.9462 255.661 94.1395 256.045C94.3328 256.429 94.4294 256.857 94.4294 257.33C94.4294 257.802 94.3328 258.232 94.1395 258.618C93.9489 259.005 93.6537 259.313 93.2541 259.543C92.8545 259.77 92.3426 259.884 91.7184 259.884H89.7753V259.022H91.6871C92.118 259.022 92.4641 258.948 92.7253 258.799C92.9864 258.65 93.1758 258.449 93.2933 258.195C93.4135 257.939 93.4735 257.651 93.4735 257.33C93.4735 257.008 93.4135 256.721 93.2933 256.468C93.1758 256.214 92.9851 256.016 92.7213 255.872C92.4576 255.726 92.1076 255.653 91.6714 255.653H89.9634V262.814H88.9918ZM98.249 262.94C97.7058 262.94 97.2292 262.81 96.8191 262.552C96.4117 262.293 96.0931 261.931 95.8632 261.467C95.636 261.002 95.5224 260.458 95.5224 259.837C95.5224 259.21 95.636 258.663 95.8632 258.195C96.0931 257.728 96.4117 257.365 96.8191 257.106C97.2292 256.848 97.7058 256.718 98.249 256.718C98.7923 256.718 99.2676 256.848 99.675 257.106C100.085 257.365 100.404 257.728 100.631 258.195C100.861 258.663 100.976 259.21 100.976 259.837C100.976 260.458 100.861 261.002 100.631 261.467C100.404 261.931 100.085 262.293 99.675 262.552C99.2676 262.81 98.7923 262.94 98.249 262.94ZM98.249 262.109C98.6617 262.109 99.0012 262.003 99.2676 261.792C99.534 261.58 99.7312 261.302 99.8592 260.957C99.9871 260.612 100.051 260.239 100.051 259.837C100.051 259.435 99.9871 259.06 99.8592 258.712C99.7312 258.365 99.534 258.084 99.2676 257.87C99.0012 257.656 98.6617 257.549 98.249 257.549C97.8364 257.549 97.4969 257.656 97.2305 257.87C96.9641 258.084 96.7669 258.365 96.6389 258.712C96.5109 259.06 96.447 259.435 96.447 259.837C96.447 260.239 96.5109 260.612 96.6389 260.957C96.7669 261.302 96.9641 261.58 97.2305 261.792C97.4969 262.003 97.8364 262.109 98.249 262.109ZM103.546 262.814L101.712 256.797H102.684L103.984 261.404H104.047L105.332 256.797H106.319L107.589 261.388H107.651L108.952 256.797H109.923L108.09 262.814H107.181L105.865 258.191H105.771L104.454 262.814H103.546ZM113.464 262.94C112.884 262.94 112.384 262.812 111.963 262.556C111.546 262.297 111.223 261.937 110.996 261.474C110.771 261.009 110.659 260.469 110.659 259.852C110.659 259.236 110.771 258.693 110.996 258.223C111.223 257.75 111.539 257.382 111.944 257.118C112.351 256.852 112.827 256.718 113.37 256.718C113.683 256.718 113.993 256.771 114.298 256.875C114.604 256.98 114.882 257.149 115.133 257.384C115.384 257.617 115.583 257.925 115.732 258.309C115.881 258.693 115.955 259.166 115.955 259.727V260.119H111.317V259.32H115.015C115.015 258.98 114.947 258.677 114.812 258.411C114.678 258.144 114.488 257.934 114.24 257.78C113.994 257.626 113.704 257.549 113.37 257.549C113.002 257.549 112.683 257.64 112.414 257.823C112.148 258.003 111.943 258.238 111.799 258.528C111.655 258.818 111.583 259.129 111.583 259.461V259.993C111.583 260.448 111.662 260.833 111.819 261.149C111.978 261.463 112.199 261.702 112.481 261.866C112.763 262.028 113.09 262.109 113.464 262.109C113.707 262.109 113.926 262.075 114.122 262.007C114.321 261.937 114.492 261.832 114.635 261.694C114.779 261.553 114.89 261.378 114.968 261.169L115.861 261.419C115.767 261.722 115.609 261.989 115.387 262.219C115.165 262.446 114.891 262.623 114.565 262.751C114.238 262.877 113.871 262.94 113.464 262.94ZM117.362 262.814V256.797H118.255V257.706H118.318C118.427 257.408 118.626 257.166 118.913 256.981C119.201 256.795 119.524 256.703 119.885 256.703C119.953 256.703 120.038 256.704 120.139 256.707C120.241 256.709 120.318 256.713 120.371 256.718V257.659C120.339 257.651 120.267 257.639 120.155 257.623C120.045 257.605 119.929 257.596 119.806 257.596C119.514 257.596 119.253 257.657 119.023 257.78C118.796 257.9 118.616 258.067 118.482 258.282C118.352 258.493 118.286 258.735 118.286 259.006V262.814H117.362ZM123.806 262.94C123.227 262.94 122.726 262.812 122.306 262.556C121.888 262.297 121.565 261.937 121.338 261.474C121.114 261.009 121.001 260.469 121.001 259.852C121.001 259.236 121.114 258.693 121.338 258.223C121.565 257.75 121.881 257.382 122.286 257.118C122.694 256.852 123.169 256.718 123.712 256.718C124.026 256.718 124.335 256.771 124.641 256.875C124.946 256.98 125.224 257.149 125.475 257.384C125.726 257.617 125.926 257.925 126.075 258.309C126.223 258.693 126.298 259.166 126.298 259.727V260.119H121.659V259.32H125.358C125.358 258.98 125.29 258.677 125.154 258.411C125.021 258.144 124.83 257.934 124.582 257.78C124.336 257.626 124.047 257.549 123.712 257.549C123.344 257.549 123.025 257.64 122.756 257.823C122.49 258.003 122.285 258.238 122.141 258.528C121.998 258.818 121.926 259.129 121.926 259.461V259.993C121.926 260.448 122.004 260.833 122.161 261.149C122.32 261.463 122.541 261.702 122.823 261.866C123.105 262.028 123.433 262.109 123.806 262.109C124.049 262.109 124.269 262.075 124.464 262.007C124.663 261.937 124.834 261.832 124.978 261.694C125.121 261.553 125.232 261.378 125.311 261.169L126.204 261.419C126.11 261.722 125.952 261.989 125.73 262.219C125.508 262.446 125.234 262.623 124.907 262.751C124.581 262.877 124.214 262.94 123.806 262.94ZM129.976 262.94C129.475 262.94 129.032 262.813 128.648 262.56C128.265 262.304 127.964 261.943 127.747 261.478C127.531 261.011 127.422 260.458 127.422 259.821C127.422 259.189 127.531 258.641 127.747 258.176C127.964 257.711 128.266 257.352 128.652 257.098C129.039 256.845 129.485 256.718 129.992 256.718C130.384 256.718 130.693 256.784 130.921 256.914C131.15 257.042 131.325 257.189 131.446 257.353C131.568 257.515 131.664 257.648 131.732 257.753H131.81V254.791H132.734V262.814H131.841V261.89H131.732C131.664 261.999 131.567 262.138 131.442 262.305C131.316 262.469 131.137 262.617 130.905 262.748C130.673 262.876 130.363 262.94 129.976 262.94ZM130.102 262.109C130.473 262.109 130.786 262.012 131.042 261.819C131.298 261.623 131.493 261.353 131.626 261.008C131.759 260.661 131.826 260.26 131.826 259.805C131.826 259.356 131.76 258.963 131.63 258.626C131.499 258.287 131.306 258.023 131.05 257.835C130.794 257.644 130.478 257.549 130.102 257.549C129.71 257.549 129.384 257.649 129.122 257.851C128.864 258.049 128.669 258.319 128.539 258.662C128.411 259.001 128.347 259.382 128.347 259.805C128.347 260.234 128.412 260.623 128.543 260.973C128.676 261.32 128.872 261.597 129.13 261.803C129.391 262.007 129.715 262.109 130.102 262.109ZM137.784 262.814V254.791H138.709V257.753H138.787C138.855 257.648 138.949 257.515 139.069 257.353C139.192 257.189 139.367 257.042 139.594 256.914C139.824 256.784 140.135 256.718 140.527 256.718C141.033 256.718 141.48 256.845 141.866 257.098C142.253 257.352 142.555 257.711 142.771 258.176C142.988 258.641 143.096 259.189 143.096 259.821C143.096 260.458 142.988 261.011 142.771 261.478C142.555 261.943 142.254 262.304 141.87 262.56C141.486 262.813 141.044 262.94 140.542 262.94C140.156 262.94 139.846 262.876 139.614 262.748C139.381 262.617 139.202 262.469 139.077 262.305C138.952 262.138 138.855 261.999 138.787 261.89H138.677V262.814H137.784ZM138.693 259.805C138.693 260.26 138.76 260.661 138.893 261.008C139.026 261.353 139.221 261.623 139.477 261.819C139.733 262.012 140.046 262.109 140.417 262.109C140.803 262.109 141.126 262.007 141.384 261.803C141.646 261.597 141.842 261.32 141.972 260.973C142.105 260.623 142.172 260.234 142.172 259.805C142.172 259.382 142.107 259.001 141.976 258.662C141.848 258.319 141.653 258.049 141.392 257.851C141.134 257.649 140.809 257.549 140.417 257.549C140.041 257.549 139.725 257.644 139.469 257.835C139.213 258.023 139.02 258.287 138.889 258.626C138.758 258.963 138.693 259.356 138.693 259.805ZM144.891 265.071C144.734 265.071 144.594 265.058 144.472 265.031C144.349 265.008 144.264 264.984 144.217 264.961L144.452 264.146C144.677 264.204 144.875 264.224 145.047 264.209C145.22 264.193 145.373 264.116 145.506 263.978C145.642 263.842 145.766 263.621 145.878 263.316L146.05 262.845L143.825 256.797H144.828L146.489 261.592H146.552L148.213 256.797H149.216L146.661 263.692C146.547 264.002 146.404 264.26 146.234 264.463C146.065 264.67 145.867 264.823 145.643 264.922C145.421 265.021 145.17 265.071 144.891 265.071Z" fill="#575656"/>
<path d="M153.48 262.814V256.797H154.651V262.814H153.48ZM154.072 255.868C153.868 255.868 153.693 255.8 153.547 255.665C153.403 255.526 153.331 255.362 153.331 255.171C153.331 254.978 153.403 254.813 153.547 254.677C153.693 254.539 153.868 254.47 154.072 254.47C154.275 254.47 154.449 254.539 154.593 254.677C154.739 254.813 154.812 254.978 154.812 255.171C154.812 255.362 154.739 255.526 154.593 255.665C154.449 255.8 154.275 255.868 154.072 255.868ZM157.399 259.241V262.814H156.227V256.797H157.352V257.776H157.426C157.564 257.458 157.781 257.202 158.076 257.008C158.374 256.815 158.749 256.718 159.201 256.718C159.611 256.718 159.97 256.805 160.278 256.977C160.586 257.147 160.825 257.4 160.995 257.737C161.165 258.074 161.249 258.49 161.249 258.987V262.814H160.078V259.128C160.078 258.692 159.965 258.351 159.737 258.105C159.51 257.857 159.198 257.733 158.801 257.733C158.529 257.733 158.288 257.792 158.076 257.909C157.867 258.027 157.701 258.199 157.579 258.426C157.459 258.651 157.399 258.923 157.399 259.241ZM165.629 256.797V257.737H162.342V256.797H165.629ZM163.224 255.355H164.395V261.047C164.395 261.275 164.429 261.446 164.497 261.561C164.565 261.673 164.653 261.75 164.76 261.792C164.869 261.831 164.988 261.85 165.116 261.85C165.21 261.85 165.292 261.844 165.363 261.831C165.433 261.818 165.488 261.807 165.527 261.799L165.739 262.767C165.671 262.793 165.574 262.819 165.449 262.845C165.324 262.874 165.167 262.89 164.979 262.892C164.671 262.898 164.384 262.843 164.117 262.728C163.851 262.613 163.635 262.435 163.471 262.195C163.306 261.955 163.224 261.653 163.224 261.29V255.355ZM169.454 262.936C168.861 262.936 168.35 262.809 167.922 262.556C167.496 262.3 167.167 261.941 166.935 261.478C166.705 261.013 166.59 260.469 166.59 259.845C166.59 259.228 166.705 258.685 166.935 258.215C167.167 257.745 167.491 257.378 167.906 257.114C168.324 256.85 168.813 256.718 169.372 256.718C169.711 256.718 170.04 256.775 170.359 256.887C170.677 256.999 170.963 257.175 171.217 257.416C171.47 257.656 171.67 257.968 171.816 258.352C171.962 258.733 172.036 259.197 172.036 259.743V260.158H167.252V259.28H170.888C170.888 258.972 170.825 258.699 170.7 258.462C170.574 258.221 170.398 258.032 170.171 257.894C169.946 257.755 169.682 257.686 169.379 257.686C169.05 257.686 168.763 257.767 168.518 257.929C168.275 258.088 168.087 258.297 167.953 258.556C167.823 258.812 167.758 259.09 167.758 259.39V260.076C167.758 260.478 167.828 260.82 167.969 261.102C168.113 261.384 168.313 261.6 168.568 261.749C168.824 261.895 169.123 261.968 169.466 261.968C169.688 261.968 169.89 261.937 170.073 261.874C170.256 261.809 170.414 261.712 170.547 261.584C170.68 261.456 170.782 261.298 170.852 261.11L171.961 261.31C171.872 261.636 171.713 261.922 171.483 262.168C171.256 262.411 170.97 262.6 170.625 262.736C170.283 262.869 169.893 262.936 169.454 262.936ZM175.858 265.196C175.38 265.196 174.969 265.133 174.624 265.008C174.282 264.883 174.003 264.717 173.786 264.51C173.569 264.304 173.407 264.078 173.3 263.833L174.307 263.417C174.377 263.532 174.471 263.654 174.589 263.782C174.709 263.912 174.871 264.023 175.075 264.115C175.281 264.206 175.546 264.252 175.87 264.252C176.314 264.252 176.681 264.144 176.971 263.927C177.261 263.713 177.406 263.37 177.406 262.9V261.717H177.331C177.261 261.845 177.159 261.988 177.026 262.144C176.895 262.301 176.715 262.437 176.485 262.552C176.255 262.667 175.956 262.724 175.588 262.724C175.112 262.724 174.684 262.613 174.303 262.391C173.924 262.166 173.624 261.836 173.402 261.4C173.182 260.961 173.073 260.422 173.073 259.782C173.073 259.142 173.181 258.594 173.398 258.137C173.617 257.68 173.918 257.33 174.299 257.087C174.68 256.841 175.112 256.718 175.596 256.718C175.969 256.718 176.271 256.781 176.501 256.906C176.73 257.029 176.909 257.173 177.037 257.337C177.168 257.502 177.268 257.647 177.339 257.772H177.425V256.797H178.573V262.947C178.573 263.464 178.453 263.889 178.213 264.221C177.972 264.552 177.647 264.798 177.237 264.957C176.83 265.116 176.37 265.196 175.858 265.196ZM175.846 261.752C176.183 261.752 176.468 261.674 176.7 261.517C176.935 261.358 177.113 261.131 177.233 260.836C177.356 260.538 177.417 260.182 177.417 259.766C177.417 259.361 177.357 259.005 177.237 258.697C177.117 258.389 176.941 258.148 176.708 257.976C176.476 257.801 176.189 257.713 175.846 257.713C175.494 257.713 175.2 257.805 174.965 257.988C174.73 258.168 174.552 258.413 174.432 258.724C174.315 259.035 174.256 259.382 174.256 259.766C174.256 260.161 174.316 260.507 174.436 260.804C174.556 261.102 174.734 261.335 174.969 261.502C175.207 261.669 175.499 261.752 175.846 261.752ZM180.144 262.814V256.797H181.276V257.753H181.339C181.448 257.429 181.642 257.174 181.919 256.989C182.198 256.801 182.514 256.707 182.867 256.707C182.94 256.707 183.026 256.709 183.125 256.714C183.227 256.72 183.307 256.726 183.364 256.734V257.855C183.317 257.841 183.234 257.827 183.113 257.811C182.993 257.793 182.873 257.784 182.753 257.784C182.476 257.784 182.229 257.843 182.013 257.96C181.798 258.075 181.629 258.236 181.503 258.442C181.378 258.646 181.315 258.878 181.315 259.139V262.814H180.144ZM186.075 262.947C185.694 262.947 185.349 262.877 185.041 262.736C184.733 262.592 184.489 262.385 184.308 262.113C184.131 261.841 184.042 261.508 184.042 261.114C184.042 260.774 184.107 260.495 184.238 260.276C184.368 260.056 184.545 259.882 184.767 259.755C184.989 259.627 185.237 259.53 185.511 259.465C185.785 259.399 186.065 259.35 186.349 259.316C186.71 259.274 187.002 259.24 187.227 259.214C187.452 259.185 187.615 259.139 187.717 259.077C187.818 259.014 187.869 258.912 187.869 258.771V258.744C187.869 258.402 187.773 258.137 187.579 257.949C187.389 257.76 187.104 257.666 186.725 257.666C186.331 257.666 186.02 257.754 185.793 257.929C185.568 258.101 185.413 258.293 185.327 258.505L184.226 258.254C184.357 257.888 184.547 257.593 184.798 257.369C185.051 257.142 185.343 256.977 185.672 256.875C186.001 256.771 186.347 256.718 186.71 256.718C186.95 256.718 187.205 256.747 187.474 256.805C187.745 256.859 187.999 256.961 188.234 257.11C188.471 257.259 188.666 257.472 188.817 257.749C188.969 258.023 189.045 258.379 189.045 258.818V262.814H187.901V261.991H187.854C187.778 262.143 187.664 262.292 187.513 262.438C187.361 262.584 187.167 262.706 186.929 262.802C186.692 262.899 186.407 262.947 186.075 262.947ZM186.33 262.007C186.654 262.007 186.93 261.943 187.16 261.815C187.393 261.687 187.569 261.52 187.689 261.314C187.812 261.105 187.873 260.881 187.873 260.644V259.868C187.832 259.91 187.751 259.949 187.63 259.986C187.513 260.02 187.378 260.05 187.227 260.076C187.075 260.099 186.928 260.121 186.784 260.142C186.641 260.161 186.52 260.176 186.424 260.189C186.197 260.218 185.989 260.266 185.801 260.334C185.615 260.402 185.467 260.5 185.354 260.628C185.245 260.754 185.19 260.921 185.19 261.13C185.19 261.419 185.297 261.639 185.511 261.788C185.725 261.934 185.998 262.007 186.33 262.007ZM193.469 256.797V257.737H190.068V256.797H193.469ZM191.001 262.814V256.099C191.001 255.723 191.083 255.411 191.247 255.163C191.412 254.912 191.63 254.726 191.902 254.603C192.173 254.478 192.468 254.415 192.787 254.415C193.022 254.415 193.223 254.434 193.39 254.474C193.557 254.51 193.681 254.544 193.762 254.575L193.488 255.524C193.433 255.508 193.363 255.49 193.277 255.469C193.19 255.445 193.086 255.433 192.963 255.433C192.679 255.433 192.475 255.504 192.352 255.645C192.232 255.786 192.172 255.99 192.172 256.256V262.814H191.001ZM195.849 254.791V262.814H194.677V254.791H195.849ZM199.959 262.936C199.395 262.936 198.903 262.806 198.482 262.548C198.062 262.289 197.735 261.927 197.503 261.463C197.27 260.998 197.154 260.454 197.154 259.833C197.154 259.209 197.27 258.663 197.503 258.195C197.735 257.728 198.062 257.365 198.482 257.106C198.903 256.848 199.395 256.718 199.959 256.718C200.523 256.718 201.015 256.848 201.436 257.106C201.856 257.365 202.183 257.728 202.415 258.195C202.648 258.663 202.764 259.209 202.764 259.833C202.764 260.454 202.648 260.998 202.415 261.463C202.183 261.927 201.856 262.289 201.436 262.548C201.015 262.806 200.523 262.936 199.959 262.936ZM199.963 261.952C200.329 261.952 200.632 261.856 200.872 261.662C201.112 261.469 201.29 261.212 201.405 260.891C201.522 260.569 201.581 260.215 201.581 259.829C201.581 259.445 201.522 259.092 201.405 258.771C201.29 258.447 201.112 258.187 200.872 257.992C200.632 257.796 200.329 257.698 199.963 257.698C199.595 257.698 199.289 257.796 199.046 257.992C198.806 258.187 198.627 258.447 198.51 258.771C198.395 259.092 198.337 259.445 198.337 259.829C198.337 260.215 198.395 260.569 198.51 260.891C198.627 261.212 198.806 261.469 199.046 261.662C199.289 261.856 199.595 261.952 199.963 261.952ZM205.193 262.814L203.422 256.797H204.633L205.812 261.216H205.871L207.054 256.797H208.264L209.44 261.196H209.498L210.67 256.797H211.88L210.113 262.814H208.919L207.696 258.47H207.606L206.384 262.814H205.193Z" fill="#050505"/>
</g>
</svg>
