<svg width="492" height="201" viewBox="0 0 492 201" fill="none" xmlns="http://www.w3.org/2000/svg">
<g opacity="0.8" filter="url(#filter0_d_1039_13699)">
<rect width="491" height="200.262" transform="translate(0.136719 0.53064)" fill="white"/>
<path d="M18.8452 60.6243V48.0243H20.7463V53.4999H27.0278V48.0243H28.935V60.6243H27.0278V55.1302H20.7463V60.6243H18.8452ZM35.5364 60.815C34.6505 60.815 33.8774 60.612 33.217 60.2059C32.5567 59.7999 32.044 59.2318 31.6789 58.5017C31.3139 57.7716 31.1314 56.9185 31.1314 55.9424C31.1314 54.9621 31.3139 54.1049 31.6789 53.3707C32.044 52.6365 32.5567 52.0664 33.217 51.6603C33.8774 51.2543 34.6505 51.0513 35.5364 51.0513C36.4224 51.0513 37.1955 51.2543 37.8559 51.6603C38.5162 52.0664 39.0289 52.6365 39.3939 53.3707C39.759 54.1049 39.9415 54.9621 39.9415 55.9424C39.9415 56.9185 39.759 57.7716 39.3939 58.5017C39.0289 59.2318 38.5162 59.7999 37.8559 60.2059C37.1955 60.612 36.4224 60.815 35.5364 60.815ZM35.5426 59.2708C36.1168 59.2708 36.5926 59.119 36.9699 58.8155C37.3473 58.512 37.6262 58.108 37.8066 57.6035C37.9912 57.099 38.0835 56.5432 38.0835 55.9362C38.0835 55.3333 37.9912 54.7796 37.8066 54.2751C37.6262 53.7665 37.3473 53.3584 36.9699 53.0508C36.5926 52.7431 36.1168 52.5893 35.5426 52.5893C34.9643 52.5893 34.4844 52.7431 34.103 53.0508C33.7256 53.3584 33.4447 53.7665 33.2601 54.2751C33.0796 54.7796 32.9894 55.3333 32.9894 55.9362C32.9894 56.5432 33.0796 57.099 33.2601 57.6035C33.4447 58.108 33.7256 58.512 34.103 58.8155C34.4844 59.119 34.9643 59.2708 35.5426 59.2708ZM43.7559 60.6243L40.9751 51.1743H42.8762L44.728 58.1141H44.8203L46.6783 51.1743H48.5794L50.4251 58.0834H50.5173L52.3569 51.1743H54.2579L51.4833 60.6243H49.6068L47.6873 53.8013H47.5458L45.6262 60.6243H43.7559ZM62.4282 48.0243V60.6243H60.5887V48.0243H62.4282ZM64.903 60.6243V51.1743H66.7425V60.6243H64.903ZM65.832 49.7162C65.5121 49.7162 65.2373 49.6096 65.0076 49.3963C64.782 49.1789 64.6692 48.9205 64.6692 48.6211C64.6692 48.3176 64.782 48.0592 65.0076 47.8459C65.2373 47.6285 65.5121 47.5198 65.832 47.5198C66.1519 47.5198 66.4247 47.6285 66.6503 47.8459C66.8799 48.0592 66.9948 48.3176 66.9948 48.6211C66.9948 48.9205 66.8799 49.1789 66.6503 49.3963C66.4247 49.6096 66.1519 49.7162 65.832 49.7162ZM70.9092 57.4189L70.8969 55.1733H71.2168L74.982 51.1743H77.1846L72.8902 55.727H72.6011L70.9092 57.4189ZM69.2173 60.6243V48.0243H71.0568V60.6243H69.2173ZM75.1851 60.6243L71.8013 56.1331L73.0687 54.8472L77.443 60.6243H75.1851ZM82.5448 60.815C81.6137 60.815 80.8119 60.6161 80.1392 60.2182C79.4707 59.8163 78.9539 59.2523 78.5888 58.5263C78.2279 57.7963 78.0474 56.9411 78.0474 55.9608C78.0474 54.9928 78.2279 54.1397 78.5888 53.4014C78.9539 52.6632 79.4625 52.0869 80.1146 51.6726C80.7708 51.2584 81.5378 51.0513 82.4156 51.0513C82.9488 51.0513 83.4656 51.1394 83.9659 51.3158C84.4663 51.4922 84.9155 51.769 85.3133 52.1464C85.7112 52.5237 86.0249 53.0139 86.2546 53.6168C86.4843 54.2156 86.5991 54.9436 86.5991 55.8009V56.453H79.0872V55.0749H84.7965C84.7965 54.5909 84.6981 54.1623 84.5012 53.789C84.3043 53.4117 84.0275 53.1143 83.6706 52.897C83.3179 52.6796 82.9036 52.5709 82.4279 52.5709C81.9111 52.5709 81.4599 52.698 81.0744 52.9523C80.6929 53.2025 80.3976 53.5306 80.1884 53.9367C79.9833 54.3387 79.8808 54.7755 79.8808 55.2471V56.3238C79.8808 56.9554 79.9916 57.4927 80.213 57.9357C80.4386 58.3787 80.7524 58.717 81.1543 58.9508C81.5563 59.1805 82.0259 59.2954 82.5632 59.2954C82.9119 59.2954 83.2297 59.2461 83.5168 59.1477C83.8039 59.0452 84.0521 58.8934 84.2613 58.6924C84.4704 58.4915 84.6304 58.2433 84.7411 57.948L86.4822 58.2618C86.3428 58.7745 86.0926 59.2236 85.7317 59.6091C85.3748 59.9906 84.9257 60.2879 84.3843 60.5012C83.847 60.7104 83.2338 60.815 82.5448 60.815ZM90.4797 48.0243V60.6243H88.6402V48.0243H90.4797ZM94.1173 64.168C93.8425 64.168 93.5923 64.1454 93.3667 64.1003C93.1411 64.0593 92.9729 64.0142 92.8622 63.965L93.3052 62.4577C93.6415 62.5479 93.9409 62.5869 94.2034 62.5746C94.4659 62.5622 94.6976 62.4638 94.8986 62.2792C95.1037 62.0947 95.2842 61.7932 95.44 61.3749L95.6677 60.7473L92.2101 51.1743H94.1788L96.572 58.5079H96.6705L99.0637 51.1743H101.039L97.1442 61.8855C96.9637 62.3777 96.7341 62.794 96.4551 63.1344C96.1762 63.4789 95.844 63.7373 95.4585 63.9096C95.0729 64.0819 94.6259 64.168 94.1173 64.168ZM110.103 60.8334C109.504 60.8334 108.962 60.7227 108.478 60.5012C107.994 60.2756 107.611 59.9496 107.328 59.523C107.049 59.0964 106.909 58.5735 106.909 57.9542C106.909 57.421 107.012 56.9821 107.217 56.6376C107.422 56.293 107.699 56.0203 108.048 55.8193C108.396 55.6183 108.786 55.4666 109.217 55.364C109.647 55.2615 110.086 55.1836 110.533 55.1302C111.099 55.0646 111.559 55.0113 111.911 54.9703C112.264 54.9252 112.52 54.8534 112.68 54.755C112.84 54.6565 112.92 54.4966 112.92 54.2751V54.232C112.92 53.6947 112.769 53.2784 112.465 52.9831C112.166 52.6878 111.719 52.5401 111.124 52.5401C110.504 52.5401 110.016 52.6775 109.66 52.9523C109.307 53.223 109.063 53.5245 108.927 53.8567L107.199 53.463C107.404 52.8888 107.703 52.4253 108.097 52.0725C108.495 51.7157 108.952 51.4573 109.469 51.2974C109.986 51.1333 110.529 51.0513 111.099 51.0513C111.477 51.0513 111.876 51.0964 112.299 51.1866C112.725 51.2727 113.123 51.4327 113.492 51.6665C113.866 51.9003 114.171 52.2346 114.409 52.6693C114.647 53.1 114.766 53.6598 114.766 54.3489V60.6243H112.97V59.3323H112.896C112.777 59.5702 112.598 59.804 112.36 60.0336C112.123 60.2633 111.817 60.4541 111.444 60.6058C111.07 60.7576 110.623 60.8334 110.103 60.8334ZM110.502 59.3569C111.011 59.3569 111.446 59.2564 111.807 59.0554C112.172 58.8545 112.449 58.592 112.637 58.2679C112.83 57.9398 112.926 57.5891 112.926 57.2159V55.9977C112.861 56.0633 112.734 56.1249 112.545 56.1823C112.36 56.2356 112.149 56.2828 111.911 56.3238C111.673 56.3607 111.442 56.3956 111.216 56.4284C110.991 56.4571 110.802 56.4817 110.65 56.5022C110.293 56.5473 109.967 56.6232 109.672 56.7299C109.381 56.8365 109.147 56.9903 108.97 57.1913C108.798 57.3881 108.712 57.6506 108.712 57.9788C108.712 58.434 108.88 58.7786 109.217 59.0124C109.553 59.242 109.982 59.3569 110.502 59.3569ZM117.216 60.6243V51.1743H118.994V52.6755H119.093C119.265 52.1669 119.568 51.767 120.003 51.4758C120.442 51.1805 120.938 51.0328 121.492 51.0328C121.607 51.0328 121.742 51.0369 121.898 51.0451C122.058 51.0533 122.183 51.0636 122.273 51.0759V52.8354C122.2 52.8149 122.068 52.7924 121.88 52.7678C121.691 52.739 121.502 52.7247 121.314 52.7247C120.879 52.7247 120.491 52.817 120.151 53.0015C119.814 53.182 119.548 53.4343 119.351 53.7583C119.154 54.0782 119.056 54.4432 119.056 54.8534V60.6243H117.216ZM127.6 60.815C126.669 60.815 125.867 60.6161 125.194 60.2182C124.526 59.8163 124.009 59.2523 123.644 58.5263C123.283 57.7963 123.102 56.9411 123.102 55.9608C123.102 54.9928 123.283 54.1397 123.644 53.4014C124.009 52.6632 124.517 52.0869 125.17 51.6726C125.826 51.2584 126.593 51.0513 127.471 51.0513C128.004 51.0513 128.521 51.1394 129.021 51.3158C129.521 51.4922 129.97 51.769 130.368 52.1464C130.766 52.5237 131.08 53.0139 131.31 53.6168C131.539 54.2156 131.654 54.9436 131.654 55.8009V56.453H124.142V55.0749H129.851C129.851 54.5909 129.753 54.1623 129.556 53.789C129.359 53.4117 129.082 53.1143 128.726 52.897C128.373 52.6796 127.959 52.5709 127.483 52.5709C126.966 52.5709 126.515 52.698 126.129 52.9523C125.748 53.2025 125.453 53.5306 125.243 53.9367C125.038 54.3387 124.936 54.7755 124.936 55.2471V56.3238C124.936 56.9554 125.047 57.4927 125.268 57.9357C125.494 58.3787 125.807 58.717 126.209 58.9508C126.611 59.1805 127.081 59.2954 127.618 59.2954C127.967 59.2954 128.285 59.2461 128.572 59.1477C128.859 59.0452 129.107 58.8934 129.316 58.6924C129.525 58.4915 129.685 58.2433 129.796 57.948L131.537 58.2618C131.398 58.7745 131.148 59.2236 130.787 59.6091C130.43 59.9906 129.981 60.2879 129.439 60.5012C128.902 60.7104 128.289 60.815 127.6 60.815ZM139.443 64.168C139.168 64.168 138.918 64.1454 138.692 64.1003C138.467 64.0593 138.299 64.0142 138.188 63.965L138.631 62.4577C138.967 62.5479 139.267 62.5869 139.529 62.5746C139.792 62.5622 140.023 62.4638 140.224 62.2792C140.429 62.0947 140.61 61.7932 140.766 61.3749L140.993 60.7473L137.536 51.1743H139.504L141.898 58.5079H141.996L144.389 51.1743H146.364L142.47 61.8855C142.289 62.3777 142.06 62.794 141.781 63.1344C141.502 63.4789 141.17 63.7373 140.784 63.9096C140.399 64.0819 139.952 64.168 139.443 64.168ZM151.752 60.815C150.866 60.815 150.093 60.612 149.433 60.2059C148.772 59.7999 148.26 59.2318 147.895 58.5017C147.53 57.7716 147.347 56.9185 147.347 55.9424C147.347 54.9621 147.53 54.1049 147.895 53.3707C148.26 52.6365 148.772 52.0664 149.433 51.6603C150.093 51.2543 150.866 51.0513 151.752 51.0513C152.638 51.0513 153.411 51.2543 154.072 51.6603C154.732 52.0664 155.245 52.6365 155.61 53.3707C155.975 54.1049 156.157 54.9621 156.157 55.9424C156.157 56.9185 155.975 57.7716 155.61 58.5017C155.245 59.2318 154.732 59.7999 154.072 60.2059C153.411 60.612 152.638 60.815 151.752 60.815ZM151.758 59.2708C152.333 59.2708 152.808 59.119 153.186 58.8155C153.563 58.512 153.842 58.108 154.022 57.6035C154.207 57.099 154.299 56.5432 154.299 55.9362C154.299 55.3333 154.207 54.7796 154.022 54.2751C153.842 53.7665 153.563 53.3584 153.186 53.0508C152.808 52.7431 152.333 52.5893 151.758 52.5893C151.18 52.5893 150.7 52.7431 150.319 53.0508C149.941 53.3584 149.66 53.7665 149.476 54.2751C149.295 54.7796 149.205 55.3333 149.205 55.9362C149.205 56.5432 149.295 57.099 149.476 57.6035C149.66 58.108 149.941 58.512 150.319 58.8155C150.7 59.119 151.18 59.2708 151.758 59.2708ZM164.197 56.7052V51.1743H166.042V60.6243H164.234V58.9878H164.135C163.918 59.4922 163.569 59.9126 163.089 60.249C162.614 60.5812 162.021 60.7473 161.311 60.7473C160.704 60.7473 160.167 60.614 159.699 60.3474C159.236 60.0767 158.871 59.6768 158.604 59.1477C158.342 58.6186 158.211 57.9644 158.211 57.1851V51.1743H160.05V56.9636C160.05 57.6076 160.229 58.1203 160.585 58.5017C160.942 58.8832 161.406 59.0739 161.976 59.0739C162.32 59.0739 162.663 58.9878 163.003 58.8155C163.348 58.6432 163.633 58.3828 163.858 58.0341C164.088 57.6855 164.201 57.2425 164.197 56.7052ZM177.51 51.1743V52.6509H172.349V51.1743H177.51ZM173.733 48.9103H175.572V57.8496C175.572 58.2064 175.626 58.4751 175.732 58.6555C175.839 58.8319 175.976 58.9529 176.145 59.0185C176.317 59.08 176.503 59.1108 176.704 59.1108C176.852 59.1108 176.981 59.1005 177.092 59.08C177.203 59.0595 177.289 59.0431 177.35 59.0308L177.683 60.5504C177.576 60.5915 177.424 60.6325 177.227 60.6735C177.031 60.7186 176.784 60.7432 176.489 60.7473C176.005 60.7555 175.554 60.6694 175.136 60.4889C174.717 60.3084 174.379 60.0295 174.12 59.6522C173.862 59.2749 173.733 58.8011 173.733 58.231V48.9103ZM183.424 60.815C182.538 60.815 181.765 60.612 181.105 60.2059C180.445 59.7999 179.932 59.2318 179.567 58.5017C179.202 57.7716 179.019 56.9185 179.019 55.9424C179.019 54.9621 179.202 54.1049 179.567 53.3707C179.932 52.6365 180.445 52.0664 181.105 51.6603C181.765 51.2543 182.538 51.0513 183.424 51.0513C184.31 51.0513 185.083 51.2543 185.744 51.6603C186.404 52.0664 186.917 52.6365 187.282 53.3707C187.647 54.1049 187.829 54.9621 187.829 55.9424C187.829 56.9185 187.647 57.7716 187.282 58.5017C186.917 59.2318 186.404 59.7999 185.744 60.2059C185.083 60.612 184.31 60.815 183.424 60.815ZM183.43 59.2708C184.005 59.2708 184.48 59.119 184.858 58.8155C185.235 58.512 185.514 58.108 185.695 57.6035C185.879 57.099 185.971 56.5432 185.971 55.9362C185.971 55.3333 185.879 54.7796 185.695 54.2751C185.514 53.7665 185.235 53.3584 184.858 53.0508C184.48 52.7431 184.005 52.5893 183.43 52.5893C182.852 52.5893 182.372 52.7431 181.991 53.0508C181.613 53.3584 181.333 53.7665 181.148 54.2751C180.967 54.7796 180.877 55.3333 180.877 55.9362C180.877 56.5432 180.967 57.099 181.148 57.6035C181.333 58.108 181.613 58.512 181.991 58.8155C182.372 59.119 182.852 59.2708 183.43 59.2708ZM194.468 60.6243V51.1743H196.246V52.6755H196.344C196.516 52.1669 196.82 51.767 197.255 51.4758C197.694 51.1805 198.19 51.0328 198.744 51.0328C198.858 51.0328 198.994 51.0369 199.15 51.0451C199.31 51.0533 199.435 51.0636 199.525 51.0759V52.8354C199.451 52.8149 199.32 52.7924 199.131 52.7678C198.942 52.739 198.754 52.7247 198.565 52.7247C198.13 52.7247 197.743 52.817 197.402 53.0015C197.066 53.182 196.799 53.4343 196.603 53.7583C196.406 54.0782 196.307 54.4432 196.307 54.8534V60.6243H194.468ZM204.851 60.815C203.92 60.815 203.118 60.6161 202.446 60.2182C201.777 59.8163 201.26 59.2523 200.895 58.5263C200.534 57.7963 200.354 56.9411 200.354 55.9608C200.354 54.9928 200.534 54.1397 200.895 53.4014C201.26 52.6632 201.769 52.0869 202.421 51.6726C203.077 51.2584 203.844 51.0513 204.722 51.0513C205.255 51.0513 205.772 51.1394 206.272 51.3158C206.773 51.4922 207.222 51.769 207.62 52.1464C208.018 52.5237 208.331 53.0139 208.561 53.6168C208.791 54.2156 208.906 54.9436 208.906 55.8009V56.453H201.394V55.0749H207.103C207.103 54.5909 207.005 54.1623 206.808 53.789C206.611 53.4117 206.334 53.1143 205.977 52.897C205.624 52.6796 205.21 52.5709 204.734 52.5709C204.218 52.5709 203.766 52.698 203.381 52.9523C202.999 53.2025 202.704 53.5306 202.495 53.9367C202.29 54.3387 202.187 54.7755 202.187 55.2471V56.3238C202.187 56.9554 202.298 57.4927 202.52 57.9357C202.745 58.3787 203.059 58.717 203.461 58.9508C203.863 59.1805 204.332 59.2954 204.87 59.2954C205.218 59.2954 205.536 59.2461 205.823 59.1477C206.11 59.0452 206.359 58.8934 206.568 58.6924C206.777 58.4915 206.937 58.2433 207.048 57.948L208.789 58.2618C208.649 58.7745 208.399 59.2236 208.038 59.6091C207.681 59.9906 207.232 60.2879 206.691 60.5012C206.154 60.7104 205.54 60.815 204.851 60.815ZM214.927 60.815C214.013 60.815 213.225 60.6079 212.565 60.1936C211.908 59.7752 211.404 59.199 211.051 58.4648C210.699 57.7306 210.522 56.8898 210.522 55.9424C210.522 54.9826 210.703 54.1356 211.064 53.4014C211.425 52.6632 211.933 52.0869 212.589 51.6726C213.246 51.2584 214.019 51.0513 214.909 51.0513C215.627 51.0513 216.266 51.1846 216.828 51.4512C217.39 51.7137 217.843 52.0828 218.188 52.5586C218.537 53.0344 218.744 53.5901 218.809 54.2259H217.019C216.921 53.7829 216.695 53.4014 216.342 53.0815C215.994 52.7616 215.526 52.6016 214.94 52.6016C214.427 52.6016 213.978 52.737 213.592 53.0077C213.211 53.2743 212.913 53.6557 212.7 54.152C212.487 54.6442 212.38 55.2266 212.38 55.8993C212.38 56.5883 212.485 57.1831 212.694 57.6835C212.903 58.1838 213.198 58.5714 213.58 58.8462C213.965 59.1211 214.419 59.2585 214.94 59.2585C215.288 59.2585 215.604 59.1949 215.887 59.0677C216.174 58.9365 216.414 58.7499 216.607 58.5079C216.804 58.2659 216.941 57.9747 217.019 57.6342H218.809C218.744 58.2454 218.545 58.7909 218.213 59.2708C217.88 59.7506 217.435 60.128 216.878 60.4028C216.324 60.6776 215.674 60.815 214.927 60.815ZM224.757 60.815C223.871 60.815 223.098 60.612 222.438 60.2059C221.777 59.7999 221.265 59.2318 220.9 58.5017C220.535 57.7716 220.352 56.9185 220.352 55.9424C220.352 54.9621 220.535 54.1049 220.9 53.3707C221.265 52.6365 221.777 52.0664 222.438 51.6603C223.098 51.2543 223.871 51.0513 224.757 51.0513C225.643 51.0513 226.416 51.2543 227.077 51.6603C227.737 52.0664 228.25 52.6365 228.615 53.3707C228.98 54.1049 229.162 54.9621 229.162 55.9424C229.162 56.9185 228.98 57.7716 228.615 58.5017C228.25 59.2318 227.737 59.7999 227.077 60.2059C226.416 60.612 225.643 60.815 224.757 60.815ZM224.763 59.2708C225.337 59.2708 225.813 59.119 226.191 58.8155C226.568 58.512 226.847 58.108 227.027 57.6035C227.212 57.099 227.304 56.5432 227.304 55.9362C227.304 55.3333 227.212 54.7796 227.027 54.2751C226.847 53.7665 226.568 53.3584 226.191 53.0508C225.813 52.7431 225.337 52.5893 224.763 52.5893C224.185 52.5893 223.705 52.7431 223.324 53.0508C222.946 53.3584 222.665 53.7665 222.481 54.2751C222.3 54.7796 222.21 55.3333 222.21 55.9362C222.21 56.5432 222.3 57.099 222.481 57.6035C222.665 58.108 222.946 58.512 223.324 58.8155C223.705 59.119 224.185 59.2708 224.763 59.2708ZM231.215 60.6243V51.1743H232.981V52.7124H233.098C233.295 52.1915 233.617 51.7854 234.064 51.4942C234.511 51.1989 235.046 51.0513 235.67 51.0513C236.301 51.0513 236.831 51.1989 237.257 51.4942C237.688 51.7895 238.006 52.1956 238.211 52.7124H238.309C238.535 52.2079 238.894 51.8059 239.386 51.5065C239.878 51.203 240.464 51.0513 241.145 51.0513C242.003 51.0513 242.702 51.3199 243.243 51.8572C243.789 52.3945 244.062 53.2046 244.062 54.2874V60.6243H242.222V54.4596C242.222 53.8198 242.048 53.3563 241.699 53.0692C241.35 52.7821 240.934 52.6386 240.45 52.6386C239.851 52.6386 239.386 52.8231 239.054 53.1923C238.721 53.5573 238.555 54.0269 238.555 54.6011V60.6243H236.722V54.3428C236.722 53.8301 236.562 53.4179 236.242 53.1061C235.922 52.7944 235.506 52.6386 234.993 52.6386C234.644 52.6386 234.322 52.7308 234.027 52.9154C233.736 53.0959 233.5 53.3481 233.32 53.6721C233.143 53.9962 233.055 54.3715 233.055 54.798V60.6243H231.215ZM246.527 60.6243V51.1743H248.293V52.7124H248.41C248.607 52.1915 248.929 51.7854 249.376 51.4942C249.823 51.1989 250.358 51.0513 250.981 51.0513C251.613 51.0513 252.142 51.1989 252.569 51.4942C252.999 51.7895 253.317 52.1956 253.522 52.7124H253.621C253.846 52.2079 254.205 51.8059 254.697 51.5065C255.19 51.203 255.776 51.0513 256.457 51.0513C257.314 51.0513 258.013 51.3199 258.555 51.8572C259.1 52.3945 259.373 53.2046 259.373 54.2874V60.6243H257.534V54.4596C257.534 53.8198 257.359 53.3563 257.011 53.0692C256.662 52.7821 256.246 52.6386 255.762 52.6386C255.163 52.6386 254.697 52.8231 254.365 53.1923C254.033 53.5573 253.867 54.0269 253.867 54.6011V60.6243H252.033V54.3428C252.033 53.8301 251.873 53.4179 251.554 53.1061C251.234 52.7944 250.817 52.6386 250.305 52.6386C249.956 52.6386 249.634 52.7308 249.339 52.9154C249.047 53.0959 248.812 53.3481 248.631 53.6721C248.455 53.9962 248.367 54.3715 248.367 54.798V60.6243H246.527ZM265.911 60.815C264.98 60.815 264.179 60.6161 263.506 60.2182C262.837 59.8163 262.321 59.2523 261.956 58.5263C261.595 57.7963 261.414 56.9411 261.414 55.9608C261.414 54.9928 261.595 54.1397 261.956 53.4014C262.321 52.6632 262.829 52.0869 263.481 51.6726C264.138 51.2584 264.905 51.0513 265.782 51.0513C266.315 51.0513 266.832 51.1394 267.333 51.3158C267.833 51.4922 268.282 51.769 268.68 52.1464C269.078 52.5237 269.392 53.0139 269.621 53.6168C269.851 54.2156 269.966 54.9436 269.966 55.8009V56.453H262.454V55.0749H268.163C268.163 54.5909 268.065 54.1623 267.868 53.789C267.671 53.4117 267.394 53.1143 267.037 52.897C266.685 52.6796 266.27 52.5709 265.795 52.5709C265.278 52.5709 264.827 52.698 264.441 52.9523C264.06 53.2025 263.764 53.5306 263.555 53.9367C263.35 54.3387 263.248 54.7755 263.248 55.2471V56.3238C263.248 56.9554 263.358 57.4927 263.58 57.9357C263.805 58.3787 264.119 58.717 264.521 58.9508C264.923 59.1805 265.393 59.2954 265.93 59.2954C266.279 59.2954 266.596 59.2461 266.884 59.1477C267.171 59.0452 267.419 58.8934 267.628 58.6924C267.837 58.4915 267.997 58.2433 268.108 57.948L269.849 58.2618C269.71 58.7745 269.459 59.2236 269.098 59.6091C268.742 59.9906 268.292 60.2879 267.751 60.5012C267.214 60.7104 266.601 60.815 265.911 60.815ZM273.846 55.0134V60.6243H272.007V51.1743H273.773V52.7124H273.89C274.107 52.212 274.447 51.81 274.911 51.5065C275.378 51.203 275.967 51.0513 276.677 51.0513C277.32 51.0513 277.884 51.1866 278.368 51.4573C278.852 51.7239 279.228 52.1218 279.494 52.6509C279.761 53.18 279.894 53.8342 279.894 54.6135V60.6243H278.055V54.8349C278.055 54.15 277.876 53.6147 277.519 53.2292C277.163 52.8395 276.672 52.6447 276.049 52.6447C275.622 52.6447 275.243 52.737 274.911 52.9216C274.583 53.1061 274.322 53.3768 274.129 53.7337C273.941 54.0864 273.846 54.513 273.846 55.0134ZM285.899 60.8088C285.136 60.8088 284.455 60.614 283.856 60.2244C283.262 59.8306 282.794 59.2708 282.454 58.5448C282.117 57.8147 281.949 56.939 281.949 55.9177C281.949 54.8965 282.119 54.0228 282.46 53.2969C282.804 52.5709 283.276 52.0151 283.875 51.6296C284.474 51.244 285.152 51.0513 285.911 51.0513C286.498 51.0513 286.969 51.1497 287.326 51.3466C287.687 51.5393 287.966 51.7649 288.163 52.0233C288.364 52.2817 288.52 52.5094 288.63 52.7062H288.741V48.0243H290.581V60.6243H288.784V59.1539H288.63C288.52 59.3548 288.36 59.5845 288.151 59.8429C287.946 60.1013 287.662 60.3269 287.302 60.5197C286.941 60.7125 286.473 60.8088 285.899 60.8088ZM286.305 59.24C286.834 59.24 287.281 59.1005 287.646 58.8216C288.015 58.5386 288.294 58.1469 288.483 57.6465C288.676 57.1462 288.772 56.5637 288.772 55.8993C288.772 55.243 288.678 54.6688 288.489 54.1766C288.3 53.6845 288.023 53.301 287.658 53.0262C287.293 52.7514 286.842 52.614 286.305 52.614C285.751 52.614 285.29 52.7575 284.921 53.0446C284.551 53.3317 284.273 53.7234 284.084 54.2197C283.899 54.716 283.807 55.2759 283.807 55.8993C283.807 56.5309 283.901 57.099 284.09 57.6035C284.279 58.108 284.558 58.5079 284.927 58.8032C285.3 59.0944 285.759 59.24 286.305 59.24ZM297.158 54.3612V53.4384C297.851 53.4384 298.335 53.2969 298.61 53.0139C298.884 52.7267 299.022 52.253 299.022 51.5927V49.827C299.022 49.1994 299.091 48.6724 299.231 48.2458C299.374 47.8151 299.592 47.4706 299.883 47.2122C300.174 46.9538 300.543 46.7672 300.99 46.6524C301.438 46.5375 301.965 46.4801 302.572 46.4801V47.9382C302.096 47.9382 301.725 48.0079 301.458 48.1474C301.191 48.2868 301.005 48.5042 300.898 48.7995C300.796 49.0907 300.744 49.464 300.744 49.9192V52.1587C300.744 52.4745 300.697 52.7678 300.603 53.0385C300.509 53.3051 300.334 53.5368 300.08 53.7337C299.826 53.9305 299.463 54.0844 298.991 54.1951C298.519 54.3058 297.908 54.3612 297.158 54.3612ZM302.572 62.1747C301.965 62.1747 301.438 62.1172 300.99 62.0024C300.543 61.8875 300.174 61.7009 299.883 61.4425C299.592 61.1841 299.374 60.8416 299.231 60.4151C299.091 59.9844 299.022 59.4553 299.022 58.8278V57.0559C299.022 56.3997 298.884 55.928 298.61 55.6409C298.335 55.3538 297.851 55.2102 297.158 55.2102V54.2935C297.908 54.2935 298.519 54.3489 298.991 54.4596C299.463 54.5663 299.826 54.7201 300.08 54.9211C300.334 55.1179 300.509 55.3517 300.603 55.6224C300.697 55.889 300.744 56.1802 300.744 56.4961V58.7355C300.744 59.1867 300.796 59.5599 300.898 59.8552C301.005 60.1464 301.191 60.3638 301.458 60.5074C301.725 60.6468 302.096 60.7166 302.572 60.7166V62.1747ZM297.158 55.2102V53.4384H298.862V55.2102H297.158ZM314.952 52.1218H313.032C312.958 51.7116 312.821 51.3507 312.62 51.039C312.419 50.7272 312.173 50.4627 311.882 50.2453C311.59 50.0279 311.264 49.8639 310.903 49.7531C310.547 49.6424 310.167 49.587 309.765 49.587C309.039 49.587 308.389 49.7695 307.815 50.1346C307.245 50.4996 306.794 51.0349 306.461 51.7403C306.133 52.4458 305.969 53.3071 305.969 54.3243C305.969 55.3497 306.133 56.2151 306.461 56.9206C306.794 57.626 307.247 58.1592 307.821 58.5202C308.395 58.8811 309.041 59.0616 309.759 59.0616C310.157 59.0616 310.534 59.0083 310.891 58.9016C311.252 58.7909 311.578 58.6289 311.869 58.4156C312.16 58.2023 312.407 57.9419 312.608 57.6342C312.813 57.3225 312.954 56.9657 313.032 56.5637L314.952 56.5699C314.849 57.1892 314.65 57.7593 314.355 58.2802C314.064 58.797 313.688 59.2441 313.229 59.6214C312.774 59.9947 312.253 60.2838 311.666 60.4889C311.08 60.694 310.44 60.7965 309.747 60.7965C308.656 60.7965 307.684 60.5381 306.831 60.0213C305.977 59.5004 305.305 58.756 304.813 57.788C304.324 56.8201 304.08 55.6655 304.08 54.3243C304.08 52.979 304.327 51.8244 304.819 50.8605C305.311 49.8926 305.984 49.1502 306.837 48.6334C307.69 48.1125 308.66 47.8521 309.747 47.8521C310.415 47.8521 311.039 47.9484 311.617 48.1412C312.199 48.3299 312.722 48.6088 313.186 48.9779C313.649 49.343 314.033 49.79 314.336 50.3191C314.64 50.8441 314.845 51.445 314.952 52.1218ZM321.059 60.815C320.173 60.815 319.4 60.612 318.74 60.2059C318.08 59.7999 317.567 59.2318 317.202 58.5017C316.837 57.7716 316.654 56.9185 316.654 55.9424C316.654 54.9621 316.837 54.1049 317.202 53.3707C317.567 52.6365 318.08 52.0664 318.74 51.6603C319.4 51.2543 320.173 51.0513 321.059 51.0513C321.945 51.0513 322.718 51.2543 323.379 51.6603C324.039 52.0664 324.552 52.6365 324.917 53.3707C325.282 54.1049 325.464 54.9621 325.464 55.9424C325.464 56.9185 325.282 57.7716 324.917 58.5017C324.552 59.2318 324.039 59.7999 323.379 60.2059C322.718 60.612 321.945 60.815 321.059 60.815ZM321.065 59.2708C321.64 59.2708 322.115 59.119 322.493 58.8155C322.87 58.512 323.149 58.108 323.33 57.6035C323.514 57.099 323.606 56.5432 323.606 55.9362C323.606 55.3333 323.514 54.7796 323.33 54.2751C323.149 53.7665 322.87 53.3584 322.493 53.0508C322.115 52.7431 321.64 52.5893 321.065 52.5893C320.487 52.5893 320.007 52.7431 319.626 53.0508C319.248 53.3584 318.968 53.7665 318.783 54.2751C318.603 54.7796 318.512 55.3333 318.512 55.9362C318.512 56.5432 318.603 57.099 318.783 57.6035C318.968 58.108 319.248 58.512 319.626 58.8155C320.007 59.119 320.487 59.2708 321.065 59.2708ZM327.518 60.6243V51.1743H329.283V52.7124H329.4C329.597 52.1915 329.919 51.7854 330.366 51.4942C330.813 51.1989 331.349 51.0513 331.972 51.0513C332.604 51.0513 333.133 51.1989 333.559 51.4942C333.99 51.7895 334.308 52.1956 334.513 52.7124H334.611C334.837 52.2079 335.196 51.8059 335.688 51.5065C336.18 51.203 336.767 51.0513 337.448 51.0513C338.305 51.0513 339.004 51.3199 339.545 51.8572C340.091 52.3945 340.364 53.2046 340.364 54.2874V60.6243H338.524V54.4596C338.524 53.8198 338.35 53.3563 338.001 53.0692C337.653 52.7821 337.236 52.6386 336.752 52.6386C336.154 52.6386 335.688 52.8231 335.356 53.1923C335.024 53.5573 334.857 54.0269 334.857 54.6011V60.6243H333.024V54.3428C333.024 53.8301 332.864 53.4179 332.544 53.1061C332.224 52.7944 331.808 52.6386 331.295 52.6386C330.947 52.6386 330.625 52.7308 330.329 52.9154C330.038 53.0959 329.802 53.3481 329.622 53.6721C329.445 53.9962 329.357 54.3715 329.357 54.798V60.6243H327.518ZM342.829 64.168V51.1743H344.626V52.7062H344.78C344.886 52.5094 345.04 52.2817 345.241 52.0233C345.442 51.7649 345.721 51.5393 346.078 51.3466C346.435 51.1497 346.906 51.0513 347.493 51.0513C348.256 51.0513 348.936 51.244 349.535 51.6296C350.134 52.0151 350.604 52.5709 350.944 53.2969C351.289 54.0228 351.461 54.8965 351.461 55.9177C351.461 56.939 351.291 57.8147 350.95 58.5448C350.61 59.2708 350.142 59.8306 349.548 60.2244C348.953 60.614 348.274 60.8088 347.511 60.8088C346.937 60.8088 346.467 60.7125 346.102 60.5197C345.741 60.3269 345.458 60.1013 345.253 59.8429C345.048 59.5845 344.89 59.3548 344.78 59.1539H344.669V64.168H342.829ZM344.632 55.8993C344.632 56.5637 344.728 57.1462 344.921 57.6465C345.114 58.1469 345.393 58.5386 345.758 58.8216C346.123 59.1005 346.57 59.24 347.099 59.24C347.649 59.24 348.108 59.0944 348.477 58.8032C348.846 58.5079 349.125 58.108 349.314 57.6035C349.507 57.099 349.603 56.5309 349.603 55.8993C349.603 55.2759 349.509 54.716 349.32 54.2197C349.135 53.7234 348.857 53.3317 348.483 53.0446C348.114 52.7575 347.653 52.614 347.099 52.614C346.566 52.614 346.115 52.7514 345.745 53.0262C345.38 53.301 345.104 53.6845 344.915 54.1766C344.726 54.6688 344.632 55.243 344.632 55.8993ZM356.272 60.8334C355.673 60.8334 355.132 60.7227 354.648 60.5012C354.164 60.2756 353.78 59.9496 353.497 59.523C353.219 59.0964 353.079 58.5735 353.079 57.9542C353.079 57.421 353.182 56.9821 353.387 56.6376C353.592 56.293 353.869 56.0203 354.217 55.8193C354.566 55.6183 354.956 55.4666 355.386 55.364C355.817 55.2615 356.256 55.1836 356.703 55.1302C357.269 55.0646 357.728 55.0113 358.081 54.9703C358.434 54.9252 358.69 54.8534 358.85 54.755C359.01 54.6565 359.09 54.4966 359.09 54.2751V54.232C359.09 53.6947 358.938 53.2784 358.635 52.9831C358.335 52.6878 357.888 52.5401 357.293 52.5401C356.674 52.5401 356.186 52.6775 355.829 52.9523C355.476 53.223 355.232 53.5245 355.097 53.8567L353.368 53.463C353.573 52.8888 353.873 52.4253 354.266 52.0725C354.664 51.7157 355.122 51.4573 355.638 51.2974C356.155 51.1333 356.699 51.0513 357.269 51.0513C357.646 51.0513 358.046 51.0964 358.468 51.1866C358.895 51.2727 359.293 51.4327 359.662 51.6665C360.035 51.9003 360.341 52.2346 360.579 52.6693C360.817 53.1 360.936 53.6598 360.936 54.3489V60.6243H359.139V59.3323H359.065C358.946 59.5702 358.768 59.804 358.53 60.0336C358.292 60.2633 357.987 60.4541 357.613 60.6058C357.24 60.7576 356.793 60.8334 356.272 60.8334ZM356.672 59.3569C357.181 59.3569 357.615 59.2564 357.976 59.0554C358.341 58.8545 358.618 58.592 358.807 58.2679C359 57.9398 359.096 57.5891 359.096 57.2159V55.9977C359.03 56.0633 358.903 56.1249 358.715 56.1823C358.53 56.2356 358.319 56.2828 358.081 56.3238C357.843 56.3607 357.611 56.3956 357.386 56.4284C357.16 56.4571 356.971 56.4817 356.82 56.5022C356.463 56.5473 356.137 56.6232 355.841 56.7299C355.55 56.8365 355.316 56.9903 355.14 57.1913C354.968 57.3881 354.882 57.6506 354.882 57.9788C354.882 58.434 355.05 58.7786 355.386 59.0124C355.722 59.242 356.151 59.3569 356.672 59.3569ZM365.225 55.0134V60.6243H363.386V51.1743H365.151V52.7124H365.268C365.486 52.212 365.826 51.81 366.29 51.5065C366.757 51.203 367.346 51.0513 368.055 51.0513C368.699 51.0513 369.263 51.1866 369.747 51.4573C370.231 51.7239 370.606 52.1218 370.873 52.6509C371.14 53.18 371.273 53.8342 371.273 54.6135V60.6243H369.433V54.8349C369.433 54.15 369.255 53.6147 368.898 53.2292C368.541 52.8395 368.051 52.6447 367.428 52.6447C367.001 52.6447 366.622 52.737 366.29 52.9216C365.961 53.1061 365.701 53.3768 365.508 53.7337C365.32 54.0864 365.225 54.513 365.225 55.0134ZM374.564 64.168C374.29 64.168 374.039 64.1454 373.814 64.1003C373.588 64.0593 373.42 64.0142 373.309 63.965L373.752 62.4577C374.089 62.5479 374.388 62.5869 374.651 62.5746C374.913 62.5622 375.145 62.4638 375.346 62.2792C375.551 62.0947 375.731 61.7932 375.887 61.3749L376.115 60.7473L372.657 51.1743H374.626L377.019 58.5079H377.118L379.511 51.1743H381.486L377.591 61.8855C377.411 62.3777 377.181 62.794 376.902 63.1344C376.623 63.4789 376.291 63.7373 375.906 63.9096C375.52 64.0819 375.073 64.168 374.564 64.168ZM398.117 48.0243V60.6243H396.37L389.965 51.3835H389.848V60.6243H387.947V48.0243H389.707L396.118 57.2774H396.234V48.0243H398.117ZM403.493 60.8334C402.894 60.8334 402.352 60.7227 401.868 60.5012C401.384 60.2756 401.001 59.9496 400.718 59.523C400.439 59.0964 400.3 58.5735 400.3 57.9542C400.3 57.421 400.402 56.9821 400.607 56.6376C400.812 56.293 401.089 56.0203 401.438 55.8193C401.786 55.6183 402.176 55.4666 402.607 55.364C403.037 55.2615 403.476 55.1836 403.923 55.1302C404.489 55.0646 404.949 55.0113 405.301 54.9703C405.654 54.9252 405.911 54.8534 406.071 54.755C406.23 54.6565 406.31 54.4966 406.31 54.2751V54.232C406.31 53.6947 406.159 53.2784 405.855 52.9831C405.556 52.6878 405.109 52.5401 404.514 52.5401C403.895 52.5401 403.407 52.6775 403.05 52.9523C402.697 53.223 402.453 53.5245 402.318 53.8567L400.589 53.463C400.794 52.8888 401.093 52.4253 401.487 52.0725C401.885 51.7157 402.342 51.4573 402.859 51.2974C403.376 51.1333 403.919 51.0513 404.489 51.0513C404.867 51.0513 405.267 51.0964 405.689 51.1866C406.116 51.2727 406.513 51.4327 406.883 51.6665C407.256 51.9003 407.561 52.2346 407.799 52.6693C408.037 53.1 408.156 53.6598 408.156 54.3489V60.6243H406.36V59.3323H406.286C406.167 59.5702 405.988 59.804 405.751 60.0336C405.513 60.2633 405.207 60.4541 404.834 60.6058C404.461 60.7576 404.014 60.8334 403.493 60.8334ZM403.893 59.3569C404.401 59.3569 404.836 59.2564 405.197 59.0554C405.562 58.8545 405.839 58.592 406.027 58.2679C406.22 57.9398 406.317 57.5891 406.317 57.2159V55.9977C406.251 56.0633 406.124 56.1249 405.935 56.1823C405.751 56.2356 405.539 56.2828 405.301 56.3238C405.064 56.3607 404.832 56.3956 404.606 56.4284C404.381 56.4571 404.192 56.4817 404.04 56.5022C403.683 56.5473 403.357 56.6232 403.062 56.7299C402.771 56.8365 402.537 56.9903 402.361 57.1913C402.188 57.3881 402.102 57.6506 402.102 57.9788C402.102 58.434 402.27 58.7786 402.607 59.0124C402.943 59.242 403.372 59.3569 403.893 59.3569ZM410.606 60.6243V51.1743H412.372V52.7124H412.489C412.686 52.1915 413.008 51.7854 413.455 51.4942C413.902 51.1989 414.437 51.0513 415.061 51.0513C415.692 51.0513 416.221 51.1989 416.648 51.4942C417.079 51.7895 417.396 52.1956 417.601 52.7124H417.7C417.926 52.2079 418.284 51.8059 418.777 51.5065C419.269 51.203 419.855 51.0513 420.536 51.0513C421.393 51.0513 422.093 51.3199 422.634 51.8572C423.18 52.3945 423.452 53.2046 423.452 54.2874V60.6243H421.613V54.4596C421.613 53.8198 421.438 53.3563 421.09 53.0692C420.741 52.7821 420.325 52.6386 419.841 52.6386C419.242 52.6386 418.777 52.8231 418.444 53.1923C418.112 53.5573 417.946 54.0269 417.946 54.6011V60.6243H416.113V54.3428C416.113 53.8301 415.953 53.4179 415.633 53.1061C415.313 52.7944 414.897 52.6386 414.384 52.6386C414.035 52.6386 413.713 52.7308 413.418 52.9154C413.127 53.0959 412.891 53.3481 412.71 53.6721C412.534 53.9962 412.446 54.3715 412.446 54.798V60.6243H410.606ZM429.991 60.815C429.06 60.815 428.258 60.6161 427.585 60.2182C426.917 59.8163 426.4 59.2523 426.035 58.5263C425.674 57.7963 425.493 56.9411 425.493 55.9608C425.493 54.9928 425.674 54.1397 426.035 53.4014C426.4 52.6632 426.908 52.0869 427.561 51.6726C428.217 51.2584 428.984 51.0513 429.861 51.0513C430.395 51.0513 430.911 51.1394 431.412 51.3158C431.912 51.4922 432.361 51.769 432.759 52.1464C433.157 52.5237 433.471 53.0139 433.701 53.6168C433.93 54.2156 434.045 54.9436 434.045 55.8009V56.453H426.533V55.0749H432.242C432.242 54.5909 432.144 54.1623 431.947 53.789C431.75 53.4117 431.473 53.1143 431.117 52.897C430.764 52.6796 430.35 52.5709 429.874 52.5709C429.357 52.5709 428.906 52.698 428.52 52.9523C428.139 53.2025 427.844 53.5306 427.634 53.9367C427.429 54.3387 427.327 54.7755 427.327 55.2471V56.3238C427.327 56.9554 427.437 57.4927 427.659 57.9357C427.885 58.3787 428.198 58.717 428.6 58.9508C429.002 59.1805 429.472 59.2954 430.009 59.2954C430.358 59.2954 430.676 59.2461 430.963 59.1477C431.25 59.0452 431.498 58.8934 431.707 58.6924C431.916 58.4915 432.076 58.2433 432.187 57.948L433.928 58.2618C433.789 58.7745 433.539 59.2236 433.178 59.6091C432.821 59.9906 432.372 60.2879 431.83 60.5012C431.293 60.7104 430.68 60.815 429.991 60.815ZM440.793 55.364V56.2807C440.099 56.2807 439.615 56.4243 439.341 56.7114C439.066 56.9985 438.928 57.4702 438.928 58.1264V59.8983C438.928 60.5258 438.857 61.0529 438.713 61.4794C438.574 61.9101 438.358 62.2546 438.067 62.513C437.776 62.7714 437.407 62.958 436.96 63.0729C436.513 63.1877 435.986 63.2452 435.379 63.2452V61.7871C435.854 61.7871 436.226 61.7153 436.492 61.5717C436.759 61.4323 436.943 61.2149 437.046 60.9196C437.153 60.6284 437.206 60.2572 437.206 59.806V57.5666C437.206 57.2507 437.253 56.9595 437.347 56.6929C437.442 56.4222 437.616 56.1884 437.87 55.9916C438.125 55.7906 438.488 55.6368 438.959 55.5301C439.431 55.4194 440.042 55.364 440.793 55.364ZM435.379 47.5506C435.986 47.5506 436.513 47.608 436.96 47.7229C437.407 47.8377 437.776 48.0243 438.067 48.2827C438.358 48.5411 438.574 48.8856 438.713 49.3163C438.857 49.7429 438.928 50.2699 438.928 50.8975V52.6632C438.928 53.3235 439.066 53.7972 439.341 54.0844C439.615 54.3674 440.099 54.5089 440.793 54.5089V55.4317C440.042 55.4317 439.431 55.3763 438.959 55.2656C438.488 55.1549 438.125 55.001 437.87 54.8042C437.616 54.6073 437.442 54.3756 437.347 54.109C437.253 53.8383 437.206 53.545 437.206 53.2292V50.9897C437.206 50.5345 437.153 50.1612 437.046 49.87C436.943 49.5747 436.759 49.3573 436.492 49.2179C436.226 49.0784 435.854 49.0087 435.379 49.0087V47.5506ZM440.793 54.5089V56.2807H439.088V54.5089H440.793ZM444.646 57.0006V56.8837C444.654 56.1208 444.73 55.5137 444.873 55.0626C445.021 54.6114 445.23 54.2464 445.501 53.9675C445.771 53.6886 446.097 53.4343 446.479 53.2046C446.725 53.0487 446.946 52.8744 447.143 52.6816C447.34 52.4889 447.496 52.2674 447.611 52.0172C447.726 51.767 447.783 51.4901 447.783 51.1866C447.783 50.8216 447.697 50.5058 447.525 50.2392C447.353 49.9726 447.123 49.7675 446.836 49.6239C446.553 49.4763 446.237 49.4024 445.888 49.4024C445.572 49.4024 445.271 49.4681 444.984 49.5993C444.697 49.7306 444.459 49.9356 444.27 50.2145C444.082 50.4894 443.973 50.8441 443.944 51.2789H442.074C442.103 50.5406 442.289 49.9172 442.634 49.4086C442.978 48.8959 443.434 48.5083 444 48.2458C444.57 47.9833 445.199 47.8521 445.888 47.8521C446.643 47.8521 447.303 47.9936 447.869 48.2766C448.435 48.5555 448.874 48.9472 449.186 49.4517C449.502 49.952 449.66 50.5365 449.66 51.2051C449.66 51.6644 449.588 52.0787 449.444 52.4478C449.301 52.8129 449.096 53.1389 448.829 53.4261C448.567 53.7132 448.251 53.9675 447.882 54.1889C447.533 54.4063 447.25 54.6319 447.033 54.8657C446.819 55.0995 446.663 55.3763 446.565 55.6963C446.467 56.0162 446.413 56.412 446.405 56.8837V57.0006H444.646ZM445.575 60.7412C445.238 60.7412 444.949 60.6222 444.707 60.3843C444.465 60.1423 444.344 59.8511 444.344 59.5107C444.344 59.1744 444.465 58.8873 444.707 58.6494C444.949 58.4074 445.238 58.2864 445.575 58.2864C445.907 58.2864 446.194 58.4074 446.436 58.6494C446.682 58.8873 446.805 59.1744 446.805 59.5107C446.805 59.7363 446.748 59.9434 446.633 60.1321C446.522 60.3167 446.374 60.4643 446.19 60.575C446.005 60.6858 445.8 60.7412 445.575 60.7412Z" fill="#050505"/>
<path d="M39.2554 95.6554V106.155H37.6661V97.2448H37.6046L35.0924 98.8854V97.3678L37.7122 95.6554H39.2554Z" fill="#050505"/>
<rect x="17.9336" y="82.2031" width="39.4795" height="36.592" rx="8.18981" stroke="#D2D2D2" stroke-width="0.945308"/>
<path d="M87.6747 106.155V105.007L91.2276 101.326C91.607 100.926 91.9198 100.576 92.1659 100.275C92.4154 99.9706 92.6016 99.6818 92.7247 99.4084C92.8477 99.1349 92.9093 98.8444 92.9093 98.5368C92.9093 98.1881 92.8272 97.8874 92.6632 97.6344C92.4991 97.3781 92.2752 97.1816 91.9915 97.0448C91.7078 96.9047 91.3883 96.8346 91.0328 96.8346C90.6568 96.8346 90.3287 96.9115 90.0484 97.0653C89.7682 97.2192 89.5528 97.4362 89.4024 97.7165C89.252 97.9967 89.1769 98.3249 89.1769 98.7008H87.6644C87.6644 98.0617 87.8114 97.5028 88.1053 97.0243C88.3993 96.5458 88.8026 96.175 89.3153 95.9118C89.828 95.6452 90.4107 95.5119 91.0636 95.5119C91.7232 95.5119 92.3043 95.6435 92.8067 95.9067C93.3126 96.1664 93.7074 96.5219 93.991 96.9731C94.2747 97.4208 94.4166 97.9267 94.4166 98.4906C94.4166 98.8803 94.3431 99.2614 94.1961 99.6339C94.0526 100.006 93.8013 100.422 93.4425 100.88C93.0836 101.334 92.5846 101.886 91.9454 102.536L89.8587 104.72V104.797H94.5858V106.155H87.6747Z" fill="#050505"/>
<rect x="71.3516" y="82.2031" width="39.4795" height="36.592" rx="8.18981" stroke="#D2D2D2" stroke-width="0.945308"/>
<path d="M144.524 106.299C143.82 106.299 143.191 106.178 142.638 105.935C142.087 105.692 141.652 105.356 141.33 104.925C141.013 104.491 140.842 103.988 140.818 103.418H142.428C142.448 103.729 142.552 103.999 142.74 104.228C142.932 104.453 143.181 104.628 143.489 104.751C143.796 104.874 144.138 104.935 144.514 104.935C144.928 104.935 145.294 104.863 145.611 104.72C145.933 104.576 146.184 104.376 146.365 104.12C146.546 103.86 146.637 103.561 146.637 103.223C146.637 102.871 146.546 102.561 146.365 102.295C146.187 102.025 145.926 101.813 145.581 101.659C145.239 101.505 144.825 101.428 144.34 101.428H143.453V100.136H144.34C144.73 100.136 145.071 100.066 145.365 99.9262C145.663 99.786 145.895 99.5912 146.063 99.3417C146.23 99.0888 146.314 98.7931 146.314 98.4547C146.314 98.13 146.24 97.8481 146.093 97.6088C145.95 97.3661 145.745 97.1764 145.478 97.0397C145.215 96.903 144.904 96.8346 144.545 96.8346C144.203 96.8346 143.884 96.8979 143.586 97.0243C143.292 97.1474 143.053 97.3251 142.869 97.5575C142.684 97.7865 142.585 98.0617 142.571 98.383H141.038C141.055 97.8156 141.223 97.3166 141.541 96.8859C141.862 96.4552 142.286 96.1186 142.812 95.8759C143.338 95.6332 143.923 95.5119 144.566 95.5119C145.239 95.5119 145.82 95.6435 146.309 95.9067C146.801 96.1664 147.18 96.5133 147.447 96.9474C147.717 97.3815 147.85 97.8566 147.847 98.3727C147.85 98.9606 147.686 99.4596 147.355 99.8698C147.026 100.28 146.589 100.555 146.042 100.695V100.777C146.739 100.883 147.279 101.16 147.662 101.608C148.048 102.056 148.24 102.611 148.236 103.274C148.24 103.852 148.079 104.37 147.754 104.828C147.433 105.286 146.994 105.646 146.437 105.909C145.88 106.169 145.242 106.299 144.524 106.299Z" fill="#050505"/>
<rect x="124.771" y="82.2031" width="39.4795" height="36.592" rx="8.18981" stroke="#D2D2D2" stroke-width="0.945308"/>
<path d="M193.996 104.105V102.823L198.533 95.6554H199.543V97.5422H198.902L195.657 102.679V102.761H201.876V104.105H193.996ZM198.974 106.155V103.715L198.985 103.131V95.6554H200.487V106.155H198.974Z" fill="#050505"/>
<rect x="178.189" y="82.2031" width="39.4795" height="36.592" rx="8.18981" stroke="#D2D2D2" stroke-width="0.945308"/>
<path d="M251.347 106.299C250.704 106.299 250.127 106.176 249.614 105.93C249.105 105.68 248.698 105.339 248.394 104.904C248.09 104.47 247.927 103.975 247.907 103.418H249.445C249.482 103.869 249.682 104.24 250.045 104.53C250.407 104.821 250.841 104.966 251.347 104.966C251.75 104.966 252.107 104.874 252.419 104.689C252.733 104.501 252.979 104.243 253.157 103.915C253.338 103.587 253.429 103.213 253.429 102.792C253.429 102.365 253.336 101.984 253.152 101.649C252.967 101.314 252.712 101.051 252.388 100.859C252.066 100.668 251.697 100.57 251.28 100.567C250.962 100.567 250.643 100.622 250.322 100.731C250 100.84 249.741 100.984 249.542 101.162L248.091 100.946L248.681 95.6554H254.454V97.0141H249.999L249.665 99.9518H249.727C249.932 99.7536 250.204 99.5878 250.542 99.4545C250.884 99.3212 251.25 99.2545 251.639 99.2545C252.278 99.2545 252.847 99.4066 253.346 99.7108C253.849 100.015 254.244 100.43 254.531 100.957C254.821 101.48 254.965 102.081 254.961 102.761C254.965 103.442 254.811 104.048 254.5 104.581C254.192 105.115 253.765 105.535 253.218 105.843C252.675 106.147 252.051 106.299 251.347 106.299Z" fill="#050505"/>
<rect x="231.607" y="82.2031" width="39.4795" height="36.592" rx="8.18981" stroke="#D2D2D2" stroke-width="0.945308"/>
<path d="M304.852 106.299C304.384 106.292 303.922 106.207 303.468 106.043C303.017 105.879 302.607 105.605 302.237 105.222C301.868 104.839 301.573 104.325 301.35 103.679C301.132 103.033 301.022 102.226 301.022 101.259C301.022 100.343 301.113 99.5297 301.294 98.8188C301.479 98.1078 301.743 97.508 302.089 97.0192C302.434 96.527 302.851 96.1528 303.34 95.8964C303.828 95.6401 304.377 95.5119 304.985 95.5119C305.611 95.5119 306.166 95.6349 306.652 95.881C307.137 96.1271 307.53 96.4672 307.831 96.9013C308.135 97.3354 308.328 97.8293 308.41 98.383H306.846C306.741 97.9455 306.53 97.5883 306.216 97.3114C305.901 97.0346 305.491 96.8962 304.985 96.8962C304.216 96.8962 303.617 97.2311 303.186 97.901C302.759 98.571 302.543 99.5023 302.54 100.695H302.617C302.798 100.398 303.02 100.145 303.283 99.9364C303.55 99.7245 303.847 99.5622 304.175 99.4494C304.507 99.3332 304.856 99.2751 305.221 99.2751C305.83 99.2751 306.38 99.4237 306.872 99.7211C307.368 100.015 307.762 100.422 308.056 100.941C308.35 101.461 308.497 102.056 308.497 102.725C308.497 103.395 308.345 104.002 308.041 104.546C307.74 105.089 307.316 105.52 306.77 105.838C306.223 106.152 305.584 106.306 304.852 106.299ZM304.847 104.966C305.25 104.966 305.611 104.867 305.929 104.669C306.247 104.47 306.498 104.204 306.682 103.869C306.867 103.534 306.959 103.16 306.959 102.746C306.959 102.343 306.869 101.975 306.688 101.644C306.51 101.312 306.264 101.049 305.949 100.854C305.638 100.659 305.283 100.562 304.883 100.562C304.579 100.562 304.297 100.62 304.037 100.736C303.781 100.852 303.555 101.013 303.36 101.218C303.165 101.423 303.012 101.659 302.899 101.926C302.789 102.189 302.735 102.467 302.735 102.761C302.735 103.154 302.825 103.518 303.006 103.853C303.191 104.188 303.442 104.458 303.76 104.663C304.081 104.865 304.444 104.966 304.847 104.966Z" fill="#050505"/>
<rect x="285.025" y="82.2031" width="39.4795" height="36.592" rx="8.18981" stroke="#D2D2D2" stroke-width="0.945308"/>
<path d="M355.369 106.155L359.952 97.091V97.0141H354.651V95.6554H361.593V97.0602L357.025 106.155H355.369Z" fill="#050505"/>
<rect x="338.445" y="82.2031" width="39.4795" height="36.592" rx="8.18981" stroke="#D2D2D2" stroke-width="0.945308"/>
<path d="M411.6 106.299C410.865 106.299 410.216 106.172 409.652 105.92C409.091 105.667 408.652 105.318 408.334 104.874C408.017 104.429 407.859 103.923 407.863 103.356C407.859 102.912 407.95 102.503 408.134 102.131C408.322 101.755 408.577 101.442 408.898 101.193C409.22 100.94 409.579 100.779 409.975 100.711V100.649C409.452 100.523 409.033 100.242 408.719 99.8083C408.404 99.3742 408.249 98.8752 408.252 98.3112C408.249 97.7746 408.391 97.2961 408.678 96.8757C408.968 96.4518 409.367 96.1186 409.872 95.8759C410.378 95.6332 410.954 95.5119 411.6 95.5119C412.239 95.5119 412.81 95.6349 413.313 95.881C413.819 96.1237 414.217 96.457 414.507 96.8808C414.798 97.3012 414.945 97.778 414.948 98.3112C414.945 98.8752 414.784 99.3742 414.466 99.8083C414.148 100.242 413.735 100.523 413.226 100.649V100.711C413.619 100.779 413.972 100.94 414.287 101.193C414.605 101.442 414.858 101.755 415.046 102.131C415.237 102.503 415.334 102.912 415.338 103.356C415.334 103.923 415.174 104.429 414.856 104.874C414.538 105.318 414.097 105.667 413.533 105.92C412.973 106.172 412.328 106.299 411.6 106.299ZM411.6 105.002C412.034 105.002 412.41 104.93 412.728 104.787C413.046 104.64 413.292 104.436 413.466 104.176C413.641 103.913 413.73 103.606 413.733 103.254C413.73 102.888 413.634 102.565 413.446 102.285C413.261 102.004 413.01 101.784 412.692 101.623C412.374 101.463 412.01 101.382 411.6 101.382C411.187 101.382 410.819 101.463 410.498 101.623C410.177 101.784 409.924 102.004 409.739 102.285C409.555 102.565 409.464 102.888 409.467 103.254C409.464 103.606 409.548 103.913 409.719 104.176C409.893 104.436 410.141 104.64 410.462 104.787C410.783 104.93 411.163 105.002 411.6 105.002ZM411.6 100.116C411.949 100.116 412.258 100.046 412.528 99.9057C412.798 99.7655 413.01 99.5707 413.164 99.3212C413.321 99.0717 413.402 98.7795 413.405 98.4445C413.402 98.1164 413.323 97.8293 413.169 97.5832C413.019 97.3371 412.809 97.1474 412.539 97.0141C412.268 96.8774 411.956 96.809 411.6 96.809C411.238 96.809 410.92 96.8774 410.647 97.0141C410.377 97.1474 410.166 97.3371 410.016 97.5832C409.866 97.8293 409.792 98.1164 409.796 98.4445C409.792 98.7795 409.867 99.0717 410.021 99.3212C410.175 99.5707 410.387 99.7655 410.657 99.9057C410.93 100.046 411.245 100.116 411.6 100.116Z" fill="#050505"/>
<rect x="391.863" y="82.2031" width="39.4795" height="36.592" rx="8.18981" stroke="#D2D2D2" stroke-width="0.945308"/>
<path d="M464.934 95.5119C465.402 95.5153 465.863 95.6008 466.318 95.7682C466.773 95.9357 467.183 96.2091 467.548 96.5885C467.918 96.9679 468.211 97.4806 468.43 98.1266C468.652 98.7692 468.765 99.569 468.769 100.526C468.769 101.445 468.676 102.264 468.492 102.982C468.307 103.696 468.042 104.299 467.697 104.792C467.355 105.284 466.94 105.658 466.451 105.914C465.962 106.171 465.412 106.299 464.8 106.299C464.175 106.299 463.619 106.176 463.134 105.93C462.649 105.684 462.254 105.344 461.95 104.91C461.646 104.472 461.456 103.97 461.381 103.402H462.944C463.047 103.853 463.255 104.219 463.57 104.499C463.888 104.776 464.298 104.915 464.8 104.915C465.569 104.915 466.169 104.58 466.6 103.91C467.031 103.236 467.248 102.297 467.251 101.09H467.169C466.991 101.384 466.769 101.637 466.502 101.849C466.239 102.061 465.944 102.225 465.616 102.341C465.287 102.457 464.937 102.515 464.565 102.515C463.96 102.515 463.409 102.367 462.914 102.069C462.418 101.772 462.023 101.363 461.729 100.844C461.435 100.324 461.288 99.7314 461.288 99.0648C461.288 98.4018 461.439 97.8002 461.74 97.2602C462.044 96.7201 462.468 96.2929 463.011 95.9784C463.558 95.6606 464.199 95.5051 464.934 95.5119ZM464.939 96.8449C464.539 96.8449 464.178 96.944 463.857 97.1423C463.539 97.3371 463.288 97.602 463.103 97.9369C462.919 98.2685 462.826 98.6376 462.826 99.0443C462.826 99.4511 462.915 99.8202 463.093 100.152C463.274 100.48 463.52 100.741 463.831 100.936C464.146 101.128 464.505 101.223 464.908 101.223C465.209 101.223 465.489 101.165 465.749 101.049C466.009 100.933 466.236 100.772 466.431 100.567C466.626 100.359 466.778 100.123 466.887 99.8595C466.996 99.5963 467.051 99.3195 467.051 99.029C467.051 98.6427 466.959 98.2838 466.774 97.9523C466.593 97.6208 466.344 97.3542 466.026 97.1525C465.708 96.9474 465.346 96.8449 464.939 96.8449Z" fill="#050505"/>
<rect x="445.281" y="82.2031" width="39.4795" height="36.592" rx="8.18981" stroke="#D2D2D2" stroke-width="0.945308"/>
<path d="M25.7737 135.418V143.818H24.6088L20.3391 137.657H20.2612V143.818H18.9938V135.418H20.1669L24.4407 141.587H24.5186V135.418H25.7737ZM30.1777 143.945C29.5871 143.945 29.0717 143.81 28.6314 143.539C28.1912 143.268 27.8494 142.889 27.6061 142.403C27.3627 141.916 27.241 141.347 27.241 140.696C27.241 140.043 27.3627 139.471 27.6061 138.982C27.8494 138.493 28.1912 138.112 28.6314 137.842C29.0717 137.571 29.5871 137.436 30.1777 137.436C30.7683 137.436 31.2838 137.571 31.724 137.842C32.1642 138.112 32.506 138.493 32.7494 138.982C32.9927 139.471 33.1144 140.043 33.1144 140.696C33.1144 141.347 32.9927 141.916 32.7494 142.403C32.506 142.889 32.1642 143.268 31.724 143.539C31.2838 143.81 30.7683 143.945 30.1777 143.945ZM30.1818 142.915C30.5646 142.915 30.8818 142.814 31.1334 142.612C31.3849 142.41 31.5709 142.14 31.6912 141.804C31.8142 141.468 31.8758 141.097 31.8758 140.692C31.8758 140.29 31.8142 139.921 31.6912 139.585C31.5709 139.246 31.3849 138.974 31.1334 138.769C30.8818 138.564 30.5646 138.461 30.1818 138.461C29.7963 138.461 29.4764 138.564 29.2221 138.769C28.9705 138.974 28.7832 139.246 28.6601 139.585C28.5398 139.921 28.4797 140.29 28.4797 140.692C28.4797 141.097 28.5398 141.468 28.6601 141.804C28.7832 142.14 28.9705 142.41 29.2221 142.612C29.4764 142.814 29.7963 142.915 30.1818 142.915ZM37.4241 137.518V138.502H33.9829V137.518H37.4241ZM34.9058 136.008H36.1321V141.968C36.1321 142.206 36.1677 142.385 36.2388 142.505C36.3099 142.623 36.4015 142.703 36.5136 142.747C36.6284 142.788 36.7528 142.809 36.8868 142.809C36.9853 142.809 37.0714 142.802 37.1452 142.788C37.219 142.775 37.2765 142.764 37.3175 142.755L37.539 143.769C37.4679 143.796 37.3667 143.823 37.2355 143.851C37.1042 143.881 36.9401 143.897 36.7433 143.9C36.4206 143.905 36.1198 143.848 35.8409 143.728C35.562 143.607 35.3364 143.421 35.1642 143.17C34.9919 142.918 34.9058 142.602 34.9058 142.222V136.008ZM43.0637 135.418V143.818H41.8374V135.418H43.0637ZM44.7136 143.818V137.518H45.94V143.818H44.7136ZM45.3329 136.546C45.1196 136.546 44.9364 136.475 44.7833 136.332C44.6329 136.188 44.5577 136.015 44.5577 135.816C44.5577 135.613 44.6329 135.441 44.7833 135.299C44.9364 135.154 45.1196 135.081 45.3329 135.081C45.5462 135.081 45.728 135.154 45.8784 135.299C46.0316 135.441 46.1081 135.613 46.1081 135.816C46.1081 136.015 46.0316 136.188 45.8784 136.332C45.728 136.475 45.5462 136.546 45.3329 136.546ZM48.7177 141.681L48.7095 140.184H48.9228L51.433 137.518H52.9013L50.0384 140.553H49.8457L48.7177 141.681ZM47.5898 143.818V135.418H48.8162V143.818H47.5898ZM51.5683 143.818L49.3125 140.824L50.1574 139.966L53.0736 143.818H51.5683ZM56.4748 143.945C55.8541 143.945 55.3195 143.812 54.8711 143.547C54.4254 143.279 54.0808 142.903 53.8375 142.419C53.5969 141.932 53.4765 141.362 53.4765 140.709C53.4765 140.063 53.5969 139.495 53.8375 139.003C54.0808 138.51 54.4199 138.126 54.8547 137.85C55.2922 137.574 55.8035 137.436 56.3886 137.436C56.7441 137.436 57.0886 137.495 57.4222 137.612C57.7558 137.73 58.0552 137.914 58.3205 138.166C58.5857 138.417 58.7949 138.744 58.948 139.146C59.1011 139.545 59.1777 140.031 59.1777 140.602V141.037H54.1697V140.118H57.9759C57.9759 139.796 57.9103 139.51 57.7791 139.261C57.6478 139.009 57.4632 138.811 57.2254 138.666C56.9902 138.521 56.714 138.449 56.3968 138.449C56.0523 138.449 55.7515 138.534 55.4945 138.703C55.2402 138.87 55.0433 139.089 54.9039 139.359C54.7672 139.627 54.6988 139.919 54.6988 140.233V140.951C54.6988 141.372 54.7726 141.73 54.9203 142.025C55.0707 142.321 55.2799 142.546 55.5478 142.702C55.8158 142.855 56.1289 142.932 56.4871 142.932C56.7195 142.932 56.9314 142.899 57.1228 142.833C57.3142 142.765 57.4797 142.664 57.6191 142.53C57.7586 142.396 57.8652 142.23 57.939 142.034L59.0998 142.243C59.0068 142.585 58.84 142.884 58.5994 143.141C58.3615 143.395 58.0621 143.594 57.7011 143.736C57.3429 143.875 56.9341 143.945 56.4748 143.945ZM61.7647 135.418V143.818H60.5384V135.418H61.7647ZM64.1898 146.18C64.0066 146.18 63.8398 146.165 63.6894 146.135C63.539 146.108 63.4269 146.078 63.3531 146.045L63.6484 145.04C63.8726 145.1 64.0722 145.126 64.2472 145.118C64.4222 145.11 64.5767 145.044 64.7107 144.921C64.8474 144.798 64.9677 144.597 65.0716 144.318L65.2234 143.9L62.9183 137.518H64.2308L65.8263 142.407H65.8919L67.4874 137.518H68.804L66.2077 144.659C66.0874 144.987 65.9343 145.264 65.7484 145.491C65.5624 145.721 65.3409 145.893 65.0839 146.008C64.8269 146.123 64.5288 146.18 64.1898 146.18Z" fill="#999999"/>
<path d="M483.93 143.818V135.418H489.197V136.509H485.197V139.068H488.922V140.155H485.197V142.727H489.246V143.818H483.93ZM491.759 137.518L493.149 139.97L494.552 137.518H495.893L493.929 140.668L495.91 143.818H494.569L493.149 141.463L491.734 143.818H490.389L492.35 140.668L490.414 137.518H491.759ZM500.093 137.518V138.502H496.652V137.518H500.093ZM497.575 136.008H498.801V141.968C498.801 142.206 498.837 142.385 498.908 142.505C498.979 142.623 499.071 142.703 499.183 142.747C499.298 142.788 499.422 142.809 499.556 142.809C499.654 142.809 499.741 142.802 499.814 142.788C499.888 142.775 499.946 142.764 499.987 142.755L500.208 143.769C500.137 143.796 500.036 143.823 499.905 143.851C499.773 143.881 499.609 143.897 499.412 143.9C499.09 143.905 498.789 143.848 498.51 143.728C498.231 143.607 498.006 143.421 497.833 143.17C497.661 142.918 497.575 142.602 497.575 142.222V136.008ZM501.45 143.818V137.518H502.635V138.519H502.701C502.816 138.179 503.018 137.913 503.308 137.719C503.6 137.522 503.931 137.423 504.3 137.423C504.377 137.423 504.467 137.426 504.571 137.432C504.678 137.437 504.761 137.444 504.821 137.452V138.625C504.772 138.612 504.685 138.596 504.559 138.58C504.433 138.561 504.307 138.551 504.181 138.551C503.892 138.551 503.633 138.613 503.406 138.736C503.182 138.856 503.004 139.024 502.873 139.24C502.742 139.454 502.676 139.697 502.676 139.97V143.818H501.45ZM508.372 143.945C507.752 143.945 507.217 143.812 506.769 143.547C506.323 143.279 505.978 142.903 505.735 142.419C505.494 141.932 505.374 141.362 505.374 140.709C505.374 140.063 505.494 139.495 505.735 139.003C505.978 138.51 506.317 138.126 506.752 137.85C507.19 137.574 507.701 137.436 508.286 137.436C508.642 137.436 508.986 137.495 509.32 137.612C509.653 137.73 509.953 137.914 510.218 138.166C510.483 138.417 510.692 138.744 510.845 139.146C510.999 139.545 511.075 140.031 511.075 140.602V141.037H506.067V140.118H509.873C509.873 139.796 509.808 139.51 509.677 139.261C509.545 139.009 509.361 138.811 509.123 138.666C508.888 138.521 508.612 138.449 508.294 138.449C507.95 138.449 507.649 138.534 507.392 138.703C507.138 138.87 506.941 139.089 506.801 139.359C506.665 139.627 506.596 139.919 506.596 140.233V140.951C506.596 141.372 506.67 141.73 506.818 142.025C506.968 142.321 507.177 142.546 507.445 142.702C507.713 142.855 508.026 142.932 508.385 142.932C508.617 142.932 508.829 142.899 509.02 142.833C509.212 142.765 509.377 142.664 509.517 142.53C509.656 142.396 509.763 142.23 509.837 142.034L510.997 142.243C510.904 142.585 510.737 142.884 510.497 143.141C510.259 143.395 509.96 143.594 509.599 143.736C509.24 143.875 508.832 143.945 508.372 143.945ZM512.436 143.818V137.518H513.613V138.543H513.691C513.822 138.196 514.037 137.925 514.335 137.731C514.633 137.534 514.99 137.436 515.405 137.436C515.826 137.436 516.179 137.534 516.464 137.731C516.751 137.928 516.963 138.199 517.099 138.543H517.165C517.315 138.207 517.555 137.939 517.883 137.739C518.211 137.537 518.602 137.436 519.056 137.436C519.627 137.436 520.093 137.615 520.454 137.973C520.818 138.331 521 138.871 521 139.593V143.818H519.774V139.708C519.774 139.281 519.657 138.972 519.425 138.781C519.192 138.59 518.915 138.494 518.592 138.494C518.193 138.494 517.883 138.617 517.661 138.863C517.44 139.106 517.329 139.42 517.329 139.802V143.818H516.107V139.63C516.107 139.288 516 139.013 515.787 138.806C515.574 138.598 515.296 138.494 514.954 138.494C514.722 138.494 514.507 138.555 514.31 138.679C514.116 138.799 513.959 138.967 513.839 139.183C513.721 139.399 513.662 139.649 513.662 139.934V143.818H512.436ZM525.359 143.945C524.738 143.945 524.204 143.812 523.755 143.547C523.309 143.279 522.965 142.903 522.722 142.419C522.481 141.932 522.361 141.362 522.361 140.709C522.361 140.063 522.481 139.495 522.722 139.003C522.965 138.51 523.304 138.126 523.739 137.85C524.176 137.574 524.688 137.436 525.273 137.436C525.628 137.436 525.973 137.495 526.306 137.612C526.64 137.73 526.939 137.914 527.204 138.166C527.47 138.417 527.679 138.744 527.832 139.146C527.985 139.545 528.062 140.031 528.062 140.602V141.037H523.054V140.118H526.86C526.86 139.796 526.794 139.51 526.663 139.261C526.532 139.009 526.347 138.811 526.109 138.666C525.874 138.521 525.598 138.449 525.281 138.449C524.936 138.449 524.636 138.534 524.379 138.703C524.124 138.87 523.927 139.089 523.788 139.359C523.651 139.627 523.583 139.919 523.583 140.233V140.951C523.583 141.372 523.657 141.73 523.804 142.025C523.955 142.321 524.164 142.546 524.432 142.702C524.7 142.855 525.013 142.932 525.371 142.932C525.604 142.932 525.815 142.899 526.007 142.833C526.198 142.765 526.364 142.664 526.503 142.53C526.643 142.396 526.749 142.23 526.823 142.034L527.984 142.243C527.891 142.585 527.724 142.884 527.483 143.141C527.246 143.395 526.946 143.594 526.585 143.736C526.227 143.875 525.818 143.945 525.359 143.945ZM530.649 135.418V143.818H529.422V135.418H530.649ZM533.074 146.18C532.891 146.18 532.724 146.165 532.573 146.135C532.423 146.108 532.311 146.078 532.237 146.045L532.532 145.04C532.757 145.1 532.956 145.126 533.131 145.118C533.306 145.11 533.461 145.044 533.595 144.921C533.731 144.798 533.852 144.597 533.956 144.318L534.107 143.9L531.802 137.518H533.115L534.71 142.407H534.776L536.371 137.518H537.688L535.092 144.659C534.971 144.987 534.818 145.264 534.632 145.491C534.446 145.721 534.225 145.893 533.968 146.008C533.711 146.123 533.413 146.18 533.074 146.18Z" fill="#999999"/>
<path d="M222.065 177.143V169.793H224.548C225.125 169.793 225.596 169.897 225.962 170.105C226.331 170.311 226.604 170.589 226.781 170.941C226.958 171.293 227.046 171.685 227.046 172.118C227.046 172.551 226.958 172.945 226.781 173.299C226.606 173.653 226.336 173.935 225.97 174.146C225.604 174.354 225.135 174.458 224.563 174.458H222.783V173.669H224.534C224.929 173.669 225.246 173.601 225.485 173.464C225.724 173.328 225.898 173.144 226.006 172.911C226.116 172.677 226.171 172.413 226.171 172.118C226.171 171.824 226.116 171.561 226.006 171.329C225.898 171.097 225.723 170.915 225.482 170.783C225.24 170.649 224.919 170.582 224.52 170.582H222.955V177.143H222.065ZM230.545 177.258C230.048 177.258 229.611 177.139 229.236 176.902C228.862 176.665 228.57 176.334 228.36 175.908C228.152 175.482 228.048 174.985 228.048 174.415C228.048 173.841 228.152 173.34 228.36 172.911C228.57 172.483 228.862 172.151 229.236 171.914C229.611 171.677 230.048 171.558 230.545 171.558C231.043 171.558 231.479 171.677 231.852 171.914C232.227 172.151 232.519 172.483 232.727 172.911C232.938 173.34 233.043 173.841 233.043 174.415C233.043 174.985 232.938 175.482 232.727 175.908C232.519 176.334 232.227 176.665 231.852 176.902C231.479 177.139 231.043 177.258 230.545 177.258ZM230.545 176.497C230.923 176.497 231.235 176.4 231.479 176.206C231.723 176.012 231.903 175.757 232.02 175.442C232.138 175.126 232.196 174.784 232.196 174.415C232.196 174.047 232.138 173.703 232.02 173.385C231.903 173.067 231.723 172.81 231.479 172.614C231.235 172.417 230.923 172.319 230.545 172.319C230.167 172.319 229.856 172.417 229.612 172.614C229.368 172.81 229.188 173.067 229.07 173.385C228.953 173.703 228.895 174.047 228.895 174.415C228.895 174.784 228.953 175.126 229.07 175.442C229.188 175.757 229.368 176.012 229.612 176.206C229.856 176.4 230.167 176.497 230.545 176.497ZM235.398 177.143L233.718 171.63H234.608L235.8 175.851H235.857L237.034 171.63H237.938L239.101 175.836H239.159L240.35 171.63H241.24L239.561 177.143H238.728L237.522 172.908H237.436L236.23 177.143H235.398ZM244.484 177.258C243.952 177.258 243.494 177.14 243.109 176.906C242.726 176.669 242.431 176.339 242.223 175.915C242.017 175.489 241.914 174.994 241.914 174.43C241.914 173.865 242.017 173.367 242.223 172.937C242.431 172.504 242.72 172.166 243.091 171.925C243.464 171.68 243.9 171.558 244.398 171.558C244.685 171.558 244.968 171.606 245.248 171.702C245.528 171.798 245.783 171.953 246.012 172.169C246.242 172.381 246.425 172.664 246.562 173.016C246.698 173.367 246.766 173.8 246.766 174.315V174.674H242.517V173.941H245.905C245.905 173.63 245.843 173.353 245.718 173.109C245.596 172.865 245.422 172.672 245.194 172.531C244.969 172.39 244.704 172.319 244.398 172.319C244.06 172.319 243.768 172.403 243.522 172.571C243.278 172.736 243.09 172.951 242.958 173.216C242.827 173.482 242.761 173.767 242.761 174.071V174.559C242.761 174.975 242.833 175.328 242.976 175.617C243.122 175.905 243.324 176.123 243.583 176.274C243.841 176.423 244.142 176.497 244.484 176.497C244.706 176.497 244.907 176.466 245.087 176.403C245.268 176.339 245.425 176.243 245.557 176.116C245.688 175.987 245.79 175.827 245.862 175.635L246.68 175.865C246.594 176.143 246.449 176.387 246.246 176.597C246.042 176.805 245.791 176.968 245.492 177.085C245.193 177.2 244.857 177.258 244.484 177.258ZM248.055 177.143V171.63H248.873V172.463H248.93C249.031 172.19 249.213 171.969 249.476 171.799C249.739 171.629 250.036 171.544 250.366 171.544C250.428 171.544 250.506 171.545 250.599 171.548C250.692 171.55 250.763 171.554 250.811 171.558V172.42C250.782 172.413 250.716 172.402 250.613 172.387C250.513 172.371 250.406 172.362 250.294 172.362C250.026 172.362 249.787 172.419 249.576 172.531C249.368 172.641 249.203 172.794 249.081 172.99C248.961 173.184 248.902 173.406 248.902 173.654V177.143H248.055ZM253.958 177.258C253.427 177.258 252.969 177.14 252.584 176.906C252.201 176.669 251.905 176.339 251.697 175.915C251.491 175.489 251.389 174.994 251.389 174.43C251.389 173.865 251.491 173.367 251.697 172.937C251.905 172.504 252.195 172.166 252.566 171.925C252.939 171.68 253.374 171.558 253.872 171.558C254.159 171.558 254.443 171.606 254.723 171.702C255.003 171.798 255.257 171.953 255.487 172.169C255.717 172.381 255.9 172.664 256.036 173.016C256.173 173.367 256.241 173.8 256.241 174.315V174.674H251.992V173.941H255.379C255.379 173.63 255.317 173.353 255.193 173.109C255.071 172.865 254.896 172.672 254.669 172.531C254.444 172.39 254.178 172.319 253.872 172.319C253.535 172.319 253.243 172.403 252.996 172.571C252.752 172.736 252.565 172.951 252.433 173.216C252.301 173.482 252.236 173.767 252.236 174.071V174.559C252.236 174.975 252.307 175.328 252.451 175.617C252.597 175.905 252.799 176.123 253.057 176.274C253.316 176.423 253.616 176.497 253.958 176.497C254.181 176.497 254.382 176.466 254.561 176.403C254.743 176.339 254.9 176.243 255.031 176.116C255.163 175.987 255.265 175.827 255.336 175.635L256.155 175.865C256.068 176.143 255.924 176.387 255.72 176.597C255.517 176.805 255.266 176.968 254.967 177.085C254.668 177.2 254.331 177.258 253.958 177.258ZM259.611 177.258C259.151 177.258 258.746 177.142 258.394 176.909C258.042 176.675 257.767 176.345 257.569 175.919C257.37 175.491 257.271 174.985 257.271 174.401C257.271 173.822 257.37 173.319 257.569 172.893C257.767 172.468 258.044 172.139 258.398 171.907C258.752 171.674 259.161 171.558 259.625 171.558C259.984 171.558 260.267 171.618 260.476 171.738C260.686 171.855 260.846 171.989 260.956 172.14C261.069 172.288 261.156 172.41 261.218 172.506H261.29V169.793H262.137V177.143H261.319V176.296H261.218C261.156 176.396 261.068 176.523 260.953 176.676C260.838 176.827 260.674 176.962 260.461 177.082C260.248 177.199 259.965 177.258 259.611 177.258ZM259.725 176.497C260.065 176.497 260.352 176.408 260.587 176.231C260.821 176.052 261 175.804 261.122 175.488C261.244 175.17 261.305 174.803 261.305 174.386C261.305 173.975 261.245 173.615 261.125 173.306C261.006 172.995 260.828 172.754 260.594 172.581C260.36 172.407 260.07 172.319 259.725 172.319C259.367 172.319 259.068 172.411 258.828 172.596C258.591 172.777 258.413 173.025 258.294 173.339C258.176 173.65 258.118 173.999 258.118 174.386C258.118 174.779 258.178 175.135 258.297 175.456C258.419 175.774 258.599 176.028 258.835 176.217C259.075 176.403 259.371 176.497 259.725 176.497ZM266.763 177.143V169.793H267.61V172.506H267.682C267.744 172.41 267.83 172.288 267.94 172.14C268.053 171.989 268.213 171.855 268.421 171.738C268.632 171.618 268.917 171.558 269.275 171.558C269.74 171.558 270.149 171.674 270.503 171.907C270.857 172.139 271.133 172.468 271.332 172.893C271.53 173.319 271.63 173.822 271.63 174.401C271.63 174.985 271.53 175.491 271.332 175.919C271.133 176.345 270.858 176.675 270.506 176.909C270.155 177.142 269.749 177.258 269.29 177.258C268.936 177.258 268.652 177.199 268.439 177.082C268.226 176.962 268.062 176.827 267.948 176.676C267.833 176.523 267.744 176.396 267.682 176.296H267.581V177.143H266.763ZM267.596 174.386C267.596 174.803 267.657 175.17 267.779 175.488C267.901 175.804 268.079 176.052 268.314 176.231C268.548 176.408 268.835 176.497 269.175 176.497C269.529 176.497 269.825 176.403 270.061 176.217C270.301 176.028 270.48 175.774 270.6 175.456C270.722 175.135 270.783 174.779 270.783 174.386C270.783 173.999 270.723 173.65 270.603 173.339C270.486 173.025 270.308 172.777 270.069 172.596C269.832 172.411 269.534 172.319 269.175 172.319C268.83 172.319 268.541 172.407 268.306 172.581C268.072 172.754 267.895 172.995 267.775 173.306C267.656 173.615 267.596 173.975 267.596 174.386ZM273.273 179.21C273.13 179.21 273.002 179.198 272.889 179.174C272.777 179.152 272.699 179.131 272.656 179.109L272.871 178.363C273.077 178.416 273.259 178.435 273.417 178.42C273.575 178.406 273.715 178.335 273.837 178.209C273.961 178.084 274.075 177.882 274.178 177.602L274.336 177.171L272.297 171.63H273.216L274.738 176.023H274.795L276.317 171.63H277.236L274.896 177.947C274.79 178.231 274.66 178.467 274.504 178.654C274.349 178.843 274.168 178.983 273.962 179.074C273.759 179.164 273.529 179.21 273.273 179.21Z" fill="#575656"/>
<path d="M281.142 177.143V171.63H282.215V177.143H281.142ZM281.684 170.78C281.497 170.78 281.337 170.717 281.203 170.593C281.071 170.466 281.006 170.316 281.006 170.141C281.006 169.964 281.071 169.813 281.203 169.689C281.337 169.562 281.497 169.498 281.684 169.498C281.871 169.498 282.03 169.562 282.161 169.689C282.295 169.813 282.362 169.964 282.362 170.141C282.362 170.316 282.295 170.466 282.161 170.593C282.03 170.717 281.871 170.78 281.684 170.78ZM284.732 173.87V177.143H283.659V171.63H284.689V172.527H284.757C284.884 172.236 285.082 172.001 285.353 171.824C285.625 171.647 285.969 171.558 286.383 171.558C286.758 171.558 287.087 171.637 287.37 171.795C287.652 171.951 287.871 172.183 288.026 172.492C288.182 172.8 288.26 173.182 288.26 173.636V177.143H287.187V173.766C287.187 173.366 287.082 173.054 286.874 172.829C286.666 172.602 286.38 172.488 286.017 172.488C285.768 172.488 285.546 172.542 285.353 172.649C285.161 172.757 285.009 172.915 284.897 173.123C284.787 173.329 284.732 173.578 284.732 173.87ZM292.272 171.63V172.492H289.261V171.63H292.272ZM290.068 170.31H291.141V175.524C291.141 175.732 291.173 175.889 291.235 175.994C291.297 176.097 291.377 176.168 291.475 176.206C291.576 176.242 291.685 176.26 291.802 176.26C291.888 176.26 291.963 176.254 292.028 176.242C292.092 176.23 292.143 176.22 292.179 176.213L292.372 177.1C292.31 177.124 292.222 177.147 292.107 177.171C291.992 177.198 291.848 177.212 291.676 177.214C291.394 177.219 291.131 177.169 290.887 177.064C290.643 176.958 290.445 176.796 290.294 176.576C290.144 176.356 290.068 176.079 290.068 175.747V170.31ZM295.776 177.254C295.232 177.254 294.765 177.138 294.372 176.906C293.982 176.671 293.681 176.342 293.468 175.919C293.257 175.493 293.152 174.994 293.152 174.422C293.152 173.858 293.257 173.36 293.468 172.929C293.681 172.499 293.978 172.163 294.358 171.921C294.741 171.679 295.188 171.558 295.7 171.558C296.011 171.558 296.313 171.61 296.605 171.713C296.896 171.816 297.158 171.977 297.39 172.197C297.623 172.417 297.806 172.703 297.94 173.055C298.074 173.404 298.141 173.829 298.141 174.329V174.709H293.759V173.906H297.089C297.089 173.623 297.032 173.373 296.917 173.155C296.802 172.935 296.64 172.762 296.432 172.635C296.227 172.508 295.985 172.445 295.707 172.445C295.406 172.445 295.143 172.519 294.918 172.667C294.695 172.813 294.523 173.005 294.401 173.242C294.281 173.476 294.222 173.731 294.222 174.006V174.634C294.222 175.003 294.286 175.316 294.415 175.574C294.547 175.833 294.73 176.03 294.964 176.167C295.199 176.301 295.473 176.368 295.786 176.368C295.99 176.368 296.175 176.339 296.343 176.281C296.51 176.222 296.655 176.133 296.777 176.016C296.899 175.899 296.992 175.754 297.057 175.582L298.072 175.765C297.991 176.064 297.845 176.326 297.635 176.551C297.426 176.773 297.164 176.947 296.849 177.071C296.535 177.193 296.177 177.254 295.776 177.254ZM301.642 179.325C301.205 179.325 300.828 179.267 300.512 179.152C300.198 179.038 299.942 178.886 299.744 178.697C299.545 178.508 299.397 178.301 299.299 178.076L300.221 177.695C300.286 177.801 300.372 177.912 300.48 178.029C300.59 178.149 300.738 178.25 300.925 178.334C301.114 178.418 301.356 178.46 301.653 178.46C302.06 178.46 302.396 178.361 302.662 178.162C302.927 177.966 303.06 177.652 303.06 177.222V176.138H302.992C302.927 176.255 302.834 176.385 302.712 176.529C302.592 176.673 302.427 176.797 302.217 176.902C302.006 177.008 301.732 177.06 301.395 177.06C300.959 177.06 300.567 176.958 300.218 176.755C299.871 176.549 299.596 176.247 299.392 175.847C299.191 175.445 299.091 174.951 299.091 174.365C299.091 173.779 299.19 173.276 299.389 172.858C299.59 172.439 299.865 172.118 300.214 171.896C300.563 171.671 300.959 171.558 301.402 171.558C301.744 171.558 302.02 171.616 302.231 171.731C302.442 171.843 302.605 171.975 302.723 172.125C302.842 172.276 302.934 172.409 302.999 172.524H303.078V171.63H304.129V177.265C304.129 177.738 304.019 178.127 303.799 178.431C303.579 178.735 303.281 178.96 302.906 179.106C302.532 179.252 302.111 179.325 301.642 179.325ZM301.632 176.17C301.94 176.17 302.201 176.098 302.414 175.955C302.629 175.809 302.792 175.601 302.902 175.33C303.015 175.058 303.071 174.731 303.071 174.351C303.071 173.98 303.016 173.653 302.906 173.371C302.796 173.088 302.634 172.868 302.421 172.71C302.208 172.55 301.945 172.47 301.632 172.47C301.309 172.47 301.039 172.554 300.824 172.721C300.609 172.886 300.446 173.111 300.336 173.396C300.228 173.681 300.175 173.999 300.175 174.351C300.175 174.712 300.23 175.029 300.34 175.302C300.45 175.574 300.612 175.787 300.828 175.94C301.045 176.094 301.313 176.17 301.632 176.17ZM305.569 177.143V171.63H306.606V172.506H306.663C306.764 172.209 306.941 171.976 307.194 171.806C307.45 171.634 307.74 171.548 308.063 171.548C308.13 171.548 308.209 171.55 308.3 171.555C308.393 171.56 308.466 171.566 308.519 171.573V172.599C308.476 172.587 308.399 172.574 308.289 172.56C308.179 172.543 308.069 172.535 307.959 172.535C307.705 172.535 307.479 172.588 307.28 172.696C307.084 172.801 306.929 172.949 306.814 173.138C306.699 173.324 306.642 173.537 306.642 173.776V177.143H305.569ZM311.002 177.265C310.653 177.265 310.337 177.2 310.055 177.071C309.772 176.939 309.549 176.749 309.384 176.5C309.221 176.251 309.14 175.946 309.14 175.585C309.14 175.274 309.199 175.018 309.319 174.817C309.439 174.616 309.6 174.457 309.803 174.34C310.007 174.223 310.234 174.134 310.485 174.074C310.737 174.014 310.993 173.969 311.253 173.938C311.584 173.9 311.851 173.868 312.057 173.845C312.263 173.818 312.413 173.776 312.506 173.719C312.599 173.662 312.646 173.568 312.646 173.439V173.414C312.646 173.1 312.557 172.858 312.38 172.685C312.206 172.513 311.945 172.427 311.598 172.427C311.237 172.427 310.952 172.507 310.744 172.667C310.538 172.825 310.396 173.001 310.317 173.195L309.308 172.965C309.428 172.63 309.602 172.36 309.832 172.154C310.064 171.946 310.331 171.795 310.632 171.702C310.934 171.606 311.251 171.558 311.584 171.558C311.804 171.558 312.037 171.585 312.283 171.637C312.532 171.688 312.764 171.781 312.98 171.917C313.197 172.054 313.376 172.249 313.514 172.502C313.653 172.754 313.722 173.08 313.722 173.482V177.143H312.675V176.389H312.631C312.562 176.528 312.458 176.664 312.319 176.798C312.18 176.932 312.002 177.043 311.784 177.132C311.567 177.22 311.306 177.265 311.002 177.265ZM311.235 176.403C311.532 176.403 311.786 176.345 311.996 176.228C312.209 176.11 312.371 175.957 312.481 175.768C312.593 175.577 312.649 175.372 312.649 175.154V174.444C312.611 174.482 312.537 174.518 312.427 174.552C312.319 174.583 312.196 174.61 312.057 174.634C311.918 174.656 311.783 174.676 311.652 174.695C311.52 174.712 311.41 174.726 311.322 174.738C311.113 174.764 310.923 174.809 310.751 174.871C310.581 174.933 310.445 175.023 310.342 175.14C310.241 175.255 310.191 175.408 310.191 175.599C310.191 175.865 310.289 176.066 310.485 176.202C310.682 176.336 310.932 176.403 311.235 176.403ZM317.775 171.63V172.492H314.66V171.63H317.775ZM315.514 177.143V170.991C315.514 170.647 315.59 170.361 315.74 170.134C315.891 169.904 316.091 169.733 316.34 169.62C316.588 169.506 316.859 169.448 317.151 169.448C317.366 169.448 317.55 169.466 317.703 169.502C317.857 169.536 317.97 169.567 318.044 169.595L317.793 170.464C317.743 170.449 317.678 170.433 317.599 170.414C317.52 170.392 317.425 170.381 317.312 170.381C317.051 170.381 316.865 170.446 316.752 170.575C316.642 170.704 316.587 170.891 316.587 171.135V177.143H315.514ZM319.955 169.793V177.143H318.882V169.793H319.955ZM323.721 177.254C323.204 177.254 322.753 177.136 322.368 176.899C321.983 176.662 321.684 176.33 321.471 175.905C321.258 175.479 321.151 174.981 321.151 174.412C321.151 173.84 321.258 173.34 321.471 172.911C321.684 172.483 321.983 172.151 322.368 171.914C322.753 171.677 323.204 171.558 323.721 171.558C324.238 171.558 324.689 171.677 325.074 171.914C325.459 172.151 325.758 172.483 325.971 172.911C326.184 173.34 326.291 173.84 326.291 174.412C326.291 174.981 326.184 175.479 325.971 175.905C325.758 176.33 325.459 176.662 325.074 176.899C324.689 177.136 324.238 177.254 323.721 177.254ZM323.725 176.353C324.06 176.353 324.337 176.265 324.557 176.088C324.777 175.911 324.94 175.675 325.045 175.381C325.153 175.086 325.207 174.762 325.207 174.408C325.207 174.056 325.153 173.733 325.045 173.439C324.94 173.142 324.777 172.904 324.557 172.725C324.337 172.545 324.06 172.456 323.725 172.456C323.387 172.456 323.107 172.545 322.885 172.725C322.665 172.904 322.501 173.142 322.393 173.439C322.288 173.733 322.235 174.056 322.235 174.408C322.235 174.762 322.288 175.086 322.393 175.381C322.501 175.675 322.665 175.911 322.885 176.088C323.107 176.265 323.387 176.353 323.725 176.353ZM328.516 177.143L326.894 171.63H328.003L329.083 175.678H329.137L330.22 171.63H331.329L332.406 175.661H332.46L333.533 171.63H334.642L333.023 177.143H331.929L330.809 173.163H330.726L329.607 177.143H328.516Z" fill="#050505"/>
</g>
<defs>
<filter id="filter0_d_1039_13699" x="-37.4006" y="-19.6818" width="613.592" height="275.337" filterUnits="userSpaceOnUse" color-interpolation-filters="sRGB">
<feFlood flood-opacity="0" result="BackgroundImageFix"/>
<feColorMatrix in="SourceAlpha" type="matrix" values="0 0 0 0 0 0 0 0 0 0 0 0 0 0 0 0 0 0 127 0" result="hardAlpha"/>
<feOffset dy="17.3249"/>
<feGaussianBlur stdDeviation="18.7687"/>
<feComposite in2="hardAlpha" operator="out"/>
<feColorMatrix type="matrix" values="0 0 0 0 0 0 0 0 0 0 0 0 0 0 0 0 0 0 0.04 0"/>
<feBlend mode="normal" in2="BackgroundImageFix" result="effect1_dropShadow_1039_13699"/>
<feBlend mode="normal" in="SourceGraphic" in2="effect1_dropShadow_1039_13699" result="shape"/>
</filter>
</defs>
</svg>
