<svg width="307" height="241" viewBox="0 0 307 241" fill="none" xmlns="http://www.w3.org/2000/svg">
<g opacity="0.8">
<rect y="0.637695" width="306.506" height="239.383" rx="12.6079" fill="white"/>
<path d="M57.2965 37.5495V25.9131H59.7567V30.7143H64.7511V25.9131H67.2056V37.5495H64.7511V32.7427H59.7567V37.5495H57.2965ZM73.1317 37.72C72.2492 37.72 71.4859 37.5325 70.842 37.1575C70.2018 36.7787 69.7075 36.2522 69.359 35.5779C69.0105 34.8999 68.8363 34.1139 68.8363 33.22C68.8363 32.3184 69.0105 31.5306 69.359 30.8563C69.7075 30.1783 70.2018 29.6518 70.842 29.2768C71.4859 28.898 72.2492 28.7086 73.1317 28.7086C74.0143 28.7086 74.7757 28.898 75.4158 29.2768C76.0598 29.6518 76.556 30.1783 76.9045 30.8563C77.253 31.5306 77.4272 32.3184 77.4272 33.22C77.4272 34.1139 77.253 34.8999 76.9045 35.5779C76.556 36.2522 76.0598 36.7787 75.4158 37.1575C74.7757 37.5325 74.0143 37.72 73.1317 37.72ZM73.1431 35.845C73.5446 35.845 73.8799 35.7313 74.1488 35.504C74.4177 35.273 74.6204 34.9586 74.7567 34.5609C74.8969 34.1631 74.967 33.7105 74.967 33.2029C74.967 32.6953 74.8969 32.2427 74.7567 31.845C74.6204 31.4472 74.4177 31.1328 74.1488 30.9018C73.8799 30.6707 73.5446 30.5552 73.1431 30.5552C72.7378 30.5552 72.3969 30.6707 72.1204 30.9018C71.8477 31.1328 71.6412 31.4472 71.5011 31.845C71.3647 32.2427 71.2965 32.6953 71.2965 33.2029C71.2965 33.7105 71.3647 34.1631 71.5011 34.5609C71.6412 34.9586 71.8477 35.273 72.1204 35.504C72.3969 35.7313 72.7378 35.845 73.1431 35.845ZM80.5039 37.5495L78.1289 28.8222H80.5778L81.93 34.6859H82.0096L83.4187 28.8222H85.8221L87.2539 34.6518H87.3278L88.6573 28.8222H91.1005L88.7312 37.5495H86.1687L84.6687 32.0609H84.5607L83.0607 37.5495H80.5039ZM97.8164 37.5495L95.4414 28.8222H97.8903L99.2425 34.6859H99.3221L100.731 28.8222H103.135L104.566 34.6518H104.64L105.97 28.8222H108.413L106.044 37.5495H103.481L101.981 32.0609H101.873L100.373 37.5495H97.8164ZM113.429 37.72C112.546 37.72 111.783 37.5325 111.139 37.1575C110.499 36.7787 110.004 36.2522 109.656 35.5779C109.307 34.8999 109.133 34.1139 109.133 33.22C109.133 32.3184 109.307 31.5306 109.656 30.8563C110.004 30.1783 110.499 29.6518 111.139 29.2768C111.783 28.898 112.546 28.7086 113.429 28.7086C114.311 28.7086 115.073 28.898 115.713 29.2768C116.357 29.6518 116.853 30.1783 117.201 30.8563C117.55 31.5306 117.724 32.3184 117.724 33.22C117.724 34.1139 117.55 34.8999 117.201 35.5779C116.853 36.2522 116.357 36.7787 115.713 37.1575C115.073 37.5325 114.311 37.72 113.429 37.72ZM113.44 35.845C113.842 35.845 114.177 35.7313 114.446 35.504C114.715 35.273 114.917 34.9586 115.054 34.5609C115.194 34.1631 115.264 33.7105 115.264 33.2029C115.264 32.6953 115.194 32.2427 115.054 31.845C114.917 31.4472 114.715 31.1328 114.446 30.9018C114.177 30.6707 113.842 30.5552 113.44 30.5552C113.035 30.5552 112.694 30.6707 112.417 30.9018C112.145 31.1328 111.938 31.4472 111.798 31.845C111.662 32.2427 111.593 32.6953 111.593 33.2029C111.593 33.7105 111.662 34.1631 111.798 34.5609C111.938 34.9586 112.145 35.273 112.417 35.504C112.694 35.7313 113.035 35.845 113.44 35.845ZM124.895 33.8336V28.8222H127.315V37.5495H124.991V35.9643H124.9C124.703 36.4756 124.376 36.8866 123.917 37.1972C123.463 37.5078 122.908 37.6631 122.252 37.6631C121.669 37.6631 121.156 37.5306 120.713 37.2654C120.27 37.0003 119.923 36.6234 119.673 36.1347C119.427 35.6461 119.302 35.0609 119.298 34.379V28.8222H121.718V33.9472C121.722 34.4624 121.86 34.8696 122.133 35.1688C122.406 35.4681 122.771 35.6177 123.23 35.6177C123.521 35.6177 123.794 35.5514 124.048 35.4188C124.302 35.2825 124.506 35.0817 124.662 34.8165C124.821 34.5514 124.898 34.2237 124.895 33.8336ZM131.672 25.9131V37.5495H129.251V25.9131H131.672ZM136.826 37.6915C136.163 37.6915 135.563 37.5211 135.025 37.1802C134.491 36.8355 134.067 36.3298 133.752 35.6631C133.442 34.9927 133.287 34.1707 133.287 33.1972C133.287 32.1972 133.448 31.3658 133.77 30.7029C134.092 30.0362 134.52 29.5381 135.054 29.2086C135.592 28.8753 136.181 28.7086 136.821 28.7086C137.309 28.7086 137.717 28.7919 138.042 28.9586C138.372 29.1215 138.637 29.326 138.838 29.5722C139.042 29.8147 139.198 30.0533 139.304 30.2881H139.377V25.9131H141.792V37.5495H139.406V36.1518H139.304C139.19 36.3942 139.029 36.6347 138.821 36.8734C138.616 37.1082 138.349 37.3033 138.02 37.4586C137.694 37.6139 137.296 37.6915 136.826 37.6915ZM137.593 35.7654C137.984 35.7654 138.313 35.6593 138.582 35.4472C138.855 35.2313 139.063 34.9302 139.207 34.5438C139.355 34.1575 139.429 33.7048 139.429 33.1859C139.429 32.6669 139.357 32.2162 139.213 31.8336C139.069 31.451 138.86 31.1556 138.588 30.9472C138.315 30.7389 137.984 30.6347 137.593 30.6347C137.196 30.6347 136.86 30.7427 136.588 30.9586C136.315 31.1745 136.109 31.4737 135.968 31.8563C135.828 32.2389 135.758 32.6821 135.758 33.1859C135.758 33.6934 135.828 34.1423 135.968 34.5325C136.112 34.9188 136.319 35.2218 136.588 35.4415C136.86 35.6575 137.196 35.7654 137.593 35.7654ZM148.98 40.8222C148.673 40.8222 148.385 40.7976 148.116 40.7484C147.851 40.7029 147.631 40.6442 147.457 40.5722L148.002 38.7654C148.287 38.8525 148.542 38.8999 148.77 38.9075C149.001 38.915 149.199 38.862 149.366 38.7484C149.537 38.6347 149.675 38.4415 149.781 38.1688L149.923 37.7995L146.792 28.8222H149.338L151.145 35.2313H151.235L153.059 28.8222H155.622L152.23 38.4927C152.067 38.9624 151.845 39.3715 151.565 39.72C151.288 40.0722 150.938 40.3431 150.514 40.5325C150.09 40.7256 149.578 40.8222 148.98 40.8222ZM160.522 37.72C159.64 37.72 158.877 37.5325 158.233 37.1575C157.592 36.7787 157.098 36.2522 156.75 35.5779C156.401 34.8999 156.227 34.1139 156.227 33.22C156.227 32.3184 156.401 31.5306 156.75 30.8563C157.098 30.1783 157.592 29.6518 158.233 29.2768C158.877 28.898 159.64 28.7086 160.522 28.7086C161.405 28.7086 162.166 28.898 162.806 29.2768C163.45 29.6518 163.947 30.1783 164.295 30.8563C164.644 31.5306 164.818 32.3184 164.818 33.22C164.818 34.1139 164.644 34.8999 164.295 35.5779C163.947 36.2522 163.45 36.7787 162.806 37.1575C162.166 37.5325 161.405 37.72 160.522 37.72ZM160.534 35.845C160.935 35.845 161.27 35.7313 161.539 35.504C161.808 35.273 162.011 34.9586 162.147 34.5609C162.288 34.1631 162.358 33.7105 162.358 33.2029C162.358 32.6953 162.288 32.2427 162.147 31.845C162.011 31.4472 161.808 31.1328 161.539 30.9018C161.27 30.6707 160.935 30.5552 160.534 30.5552C160.128 30.5552 159.788 30.6707 159.511 30.9018C159.238 31.1328 159.032 31.4472 158.892 31.845C158.755 32.2427 158.687 32.6953 158.687 33.2029C158.687 33.7105 158.755 34.1631 158.892 34.5609C159.032 34.9586 159.238 35.273 159.511 35.504C159.788 35.7313 160.128 35.845 160.534 35.845ZM171.988 33.8336V28.8222H174.409V37.5495H172.085V35.9643H171.994C171.797 36.4756 171.469 36.8866 171.011 37.1972C170.556 37.5078 170.002 37.6631 169.346 37.6631C168.763 37.6631 168.25 37.5306 167.806 37.2654C167.363 37.0003 167.017 36.6234 166.767 36.1347C166.52 35.6461 166.395 35.0609 166.392 34.379V28.8222H168.812V33.9472C168.816 34.4624 168.954 34.8696 169.227 35.1688C169.5 35.4681 169.865 35.6177 170.324 35.6177C170.615 35.6177 170.888 35.5514 171.142 35.4188C171.395 35.2825 171.6 35.0817 171.755 34.8165C171.914 34.5514 171.992 34.2237 171.988 33.8336ZM180.048 37.5495V28.8222H182.395V30.345H182.485C182.645 29.8033 182.912 29.3942 183.287 29.1177C183.662 28.8374 184.093 28.6972 184.582 28.6972C184.703 28.6972 184.834 28.7048 184.974 28.72C185.114 28.7351 185.237 28.7559 185.343 28.7825V30.9302C185.23 30.8961 185.073 30.8658 184.872 30.8393C184.671 30.8128 184.487 30.7995 184.321 30.7995C183.965 30.7995 183.646 30.8772 183.366 31.0325C183.09 31.184 182.87 31.3961 182.707 31.6688C182.548 31.9415 182.468 32.2559 182.468 32.612V37.5495H180.048ZM188.833 37.7143C188.277 37.7143 187.78 37.6177 187.345 37.4245C186.909 37.2275 186.565 36.9378 186.311 36.5552C186.061 36.1688 185.936 35.6878 185.936 35.112C185.936 34.6272 186.025 34.22 186.203 33.8904C186.381 33.5609 186.623 33.2957 186.93 33.095C187.237 32.8942 187.585 32.7427 187.975 32.6404C188.369 32.5381 188.782 32.4662 189.214 32.4245C189.722 32.3715 190.131 32.3222 190.441 32.2768C190.752 32.2275 190.977 32.1556 191.118 32.0609C191.258 31.9662 191.328 31.826 191.328 31.6404V31.6063C191.328 31.2465 191.214 30.9681 190.987 30.7711C190.763 30.5741 190.445 30.4756 190.032 30.4756C189.597 30.4756 189.25 30.5722 188.993 30.7654C188.735 30.9548 188.565 31.1934 188.481 31.4813L186.243 31.2995C186.356 30.7692 186.58 30.3109 186.913 29.9245C187.246 29.5343 187.676 29.2351 188.203 29.0268C188.733 28.8147 189.347 28.7086 190.044 28.7086C190.529 28.7086 190.993 28.7654 191.436 28.879C191.883 28.9927 192.279 29.1688 192.623 29.4075C192.972 29.6461 193.246 29.9529 193.447 30.3279C193.648 30.6991 193.748 31.1442 193.748 31.6631V37.5495H191.453V36.3393H191.385C191.244 36.612 191.057 36.8525 190.822 37.0609C190.587 37.2654 190.305 37.4264 189.975 37.5438C189.646 37.6575 189.265 37.7143 188.833 37.7143ZM189.527 36.0438C189.883 36.0438 190.197 35.9737 190.47 35.8336C190.743 35.6897 190.957 35.4965 191.112 35.254C191.267 35.0116 191.345 34.737 191.345 34.4302V33.504C191.269 33.5533 191.165 33.5987 191.032 33.6404C190.904 33.6783 190.758 33.7143 190.595 33.7484C190.432 33.7787 190.269 33.8071 190.106 33.8336C189.943 33.8563 189.796 33.8772 189.663 33.8961C189.379 33.9378 189.131 34.004 188.919 34.095C188.707 34.1859 188.542 34.309 188.424 34.4643C188.307 34.6158 188.248 34.8052 188.248 35.0325C188.248 35.362 188.368 35.6139 188.606 35.7881C188.849 35.9586 189.155 36.0438 189.527 36.0438ZM200.268 28.8222V30.6404H195.012V28.8222H200.268ZM196.206 26.7313H198.626V34.8677C198.626 35.0912 198.66 35.2654 198.728 35.3904C198.797 35.5116 198.891 35.5968 199.012 35.6461C199.137 35.6953 199.281 35.72 199.444 35.72C199.558 35.72 199.672 35.7105 199.785 35.6915C199.899 35.6688 199.986 35.6518 200.047 35.6404L200.427 37.4415C200.306 37.4794 200.136 37.523 199.916 37.5722C199.696 37.6253 199.429 37.6575 199.115 37.6688C198.531 37.6915 198.02 37.6139 197.581 37.4359C197.145 37.2578 196.806 36.9813 196.564 36.6063C196.321 36.2313 196.202 35.7578 196.206 35.1859V26.7313ZM205.728 37.72C204.831 37.72 204.058 37.5381 203.41 37.1745C202.766 36.8071 202.27 36.2881 201.922 35.6177C201.573 34.9434 201.399 34.1461 201.399 33.2256C201.399 32.3279 201.573 31.54 201.922 30.862C202.27 30.184 202.761 29.6556 203.393 29.2768C204.029 28.898 204.776 28.7086 205.632 28.7086C206.208 28.7086 206.743 28.8014 207.24 28.987C207.74 29.1688 208.175 29.4434 208.547 29.8109C208.922 30.1783 209.213 30.6404 209.422 31.1972C209.63 31.7503 209.734 32.398 209.734 33.1404V33.8052H202.365V32.3052H207.456C207.456 31.9567 207.38 31.648 207.228 31.379C207.077 31.1101 206.867 30.8999 206.598 30.7484C206.333 30.5931 206.024 30.5154 205.672 30.5154C205.304 30.5154 204.978 30.6006 204.694 30.7711C204.414 30.9378 204.194 31.1631 204.035 31.4472C203.876 31.7275 203.795 32.04 203.791 32.3847V33.8109C203.791 34.2427 203.87 34.6158 204.029 34.9302C204.192 35.2446 204.422 35.487 204.717 35.6575C205.012 35.8279 205.363 35.9131 205.768 35.9131C206.037 35.9131 206.283 35.8753 206.507 35.7995C206.73 35.7237 206.922 35.6101 207.081 35.4586C207.24 35.3071 207.361 35.1215 207.444 34.9018L209.683 35.0495C209.569 35.5874 209.336 36.0571 208.984 36.4586C208.636 36.8563 208.185 37.1669 207.632 37.3904C207.083 37.6101 206.448 37.72 205.728 37.72ZM216.511 40.8222C216.204 40.8222 215.916 40.7976 215.647 40.7484C215.382 40.7029 215.163 40.6442 214.988 40.5722L215.534 38.7654C215.818 38.8525 216.074 38.8999 216.301 38.9075C216.532 38.915 216.731 38.862 216.897 38.7484C217.068 38.6347 217.206 38.4415 217.312 38.1688L217.454 37.7995L214.324 28.8222H216.869L218.676 35.2313H218.767L220.591 28.8222H223.153L219.761 38.4927C219.598 38.9624 219.377 39.3715 219.096 39.72C218.82 40.0722 218.469 40.3431 218.045 40.5325C217.621 40.7256 217.109 40.8222 216.511 40.8222ZM228.054 37.72C227.171 37.72 226.408 37.5325 225.764 37.1575C225.124 36.7787 224.629 36.2522 224.281 35.5779C223.932 34.8999 223.758 34.1139 223.758 33.22C223.758 32.3184 223.932 31.5306 224.281 30.8563C224.629 30.1783 225.124 29.6518 225.764 29.2768C226.408 28.898 227.171 28.7086 228.054 28.7086C228.936 28.7086 229.698 28.898 230.338 29.2768C230.982 29.6518 231.478 30.1783 231.826 30.8563C232.175 31.5306 232.349 32.3184 232.349 33.22C232.349 34.1139 232.175 34.8999 231.826 35.5779C231.478 36.2522 230.982 36.7787 230.338 37.1575C229.698 37.5325 228.936 37.72 228.054 37.72ZM228.065 35.845C228.467 35.845 228.802 35.7313 229.071 35.504C229.34 35.273 229.542 34.9586 229.679 34.5609C229.819 34.1631 229.889 33.7105 229.889 33.2029C229.889 32.6953 229.819 32.2427 229.679 31.845C229.542 31.4472 229.34 31.1328 229.071 30.9018C228.802 30.6707 228.467 30.5552 228.065 30.5552C227.66 30.5552 227.319 30.6707 227.042 30.9018C226.77 31.1328 226.563 31.4472 226.423 31.845C226.287 32.2427 226.218 32.6953 226.218 33.2029C226.218 33.7105 226.287 34.1631 226.423 34.5609C226.563 34.9586 226.77 35.273 227.042 35.504C227.319 35.7313 227.66 35.845 228.065 35.845ZM239.52 33.8336V28.8222H241.94V37.5495H239.616V35.9643H239.525C239.328 36.4756 239.001 36.8866 238.542 37.1972C238.088 37.5078 237.533 37.6631 236.877 37.6631C236.294 37.6631 235.781 37.5306 235.338 37.2654C234.895 37.0003 234.548 36.6234 234.298 36.1347C234.052 35.6461 233.927 35.0609 233.923 34.379V28.8222H236.343V33.9472C236.347 34.4624 236.485 34.8696 236.758 35.1688C237.031 35.4681 237.396 35.6177 237.855 35.6177C238.146 35.6177 238.419 35.5514 238.673 35.4188C238.927 35.2825 239.131 35.0817 239.287 34.8165C239.446 34.5514 239.523 34.2237 239.52 33.8336ZM243.876 37.5495V28.8222H246.223V30.345H246.314C246.473 29.8033 246.74 29.3942 247.115 29.1177C247.49 28.8374 247.922 28.6972 248.41 28.6972C248.531 28.6972 248.662 28.7048 248.802 28.72C248.942 28.7351 249.065 28.7559 249.172 28.7825V30.9302C249.058 30.8961 248.901 30.8658 248.7 30.8393C248.499 30.8128 248.315 30.7995 248.149 30.7995C247.793 30.7995 247.475 30.8772 247.194 31.0325C246.918 31.184 246.698 31.3961 246.535 31.6688C246.376 31.9415 246.297 32.2559 246.297 32.612V37.5495H243.876ZM80.7077 55.3109L78.4918 55.4472C78.454 55.2578 78.3725 55.0874 78.2475 54.9359C78.1225 54.7806 77.9577 54.6575 77.7532 54.5665C77.5524 54.4718 77.3119 54.4245 77.0316 54.4245C76.6566 54.4245 76.3403 54.504 76.0827 54.6631C75.8252 54.8184 75.6964 55.0268 75.6964 55.2881C75.6964 55.4965 75.7797 55.6726 75.9464 55.8165C76.113 55.9605 76.399 56.076 76.8043 56.1631L78.3839 56.4813C79.2324 56.6556 79.8649 56.9359 80.2816 57.3222C80.6983 57.7086 80.9066 58.2162 80.9066 58.845C80.9066 59.4169 80.738 59.9188 80.4009 60.3506C80.0676 60.7825 79.6093 61.1196 79.0259 61.362C78.4464 61.6006 77.7778 61.72 77.0202 61.72C75.8649 61.72 74.9445 61.4794 74.2589 60.9984C73.5771 60.5135 73.1774 59.8544 73.06 59.0211L75.4407 58.8961C75.5127 59.2484 75.6869 59.5173 75.9634 59.7029C76.2399 59.8847 76.5941 59.9756 77.0259 59.9756C77.4502 59.9756 77.7911 59.8942 78.0487 59.7313C78.31 59.5647 78.4426 59.3506 78.4464 59.0893C78.4426 58.8696 78.3498 58.6897 78.168 58.5495C77.9862 58.4056 77.7058 58.2957 77.3271 58.22L75.8157 57.9188C74.9634 57.7484 74.329 57.4529 73.9123 57.0325C73.4994 56.612 73.293 56.076 73.293 55.4245C73.293 54.8639 73.4445 54.3809 73.7475 53.9756C74.0543 53.5703 74.4843 53.2578 75.0373 53.0381C75.5941 52.8184 76.2456 52.7086 76.9918 52.7086C78.0941 52.7086 78.9615 52.9415 79.5941 53.4075C80.2305 53.8734 80.6017 54.5078 80.7077 55.3109ZM84.9194 61.7143C84.3626 61.7143 83.8664 61.6177 83.4308 61.4245C82.9951 61.2275 82.6504 60.9378 82.3967 60.5552C82.1467 60.1688 82.0217 59.6878 82.0217 59.112C82.0217 58.6272 82.1107 58.22 82.2887 57.8904C82.4667 57.5609 82.7092 57.2957 83.016 57.095C83.3228 56.8942 83.6713 56.7427 84.0614 56.6404C84.4554 56.5381 84.8683 56.4662 85.3001 56.4245C85.8076 56.3715 86.2167 56.3222 86.5273 56.2768C86.838 56.2275 87.0633 56.1556 87.2035 56.0609C87.3436 55.9662 87.4137 55.826 87.4137 55.6404V55.6063C87.4137 55.2465 87.3001 54.9681 87.0728 54.7711C86.8493 54.5741 86.5311 54.4756 86.1183 54.4756C85.6826 54.4756 85.3361 54.5722 85.0785 54.7654C84.8209 54.9548 84.6504 55.1934 84.5671 55.4813L82.3285 55.2995C82.4421 54.7692 82.6656 54.3109 82.9989 53.9245C83.3323 53.5343 83.7622 53.2351 84.2887 53.0268C84.819 52.8147 85.4326 52.7086 86.1296 52.7086C86.6145 52.7086 87.0785 52.7654 87.5217 52.879C87.9686 52.9927 88.3645 53.1688 88.7092 53.4075C89.0576 53.6461 89.3323 53.9529 89.533 54.3279C89.7338 54.6991 89.8342 55.1442 89.8342 55.6631V61.5495H87.5387V60.3393H87.4705C87.3304 60.612 87.1429 60.8525 86.908 61.0609C86.6732 61.2654 86.391 61.4264 86.0614 61.5438C85.7319 61.6575 85.3512 61.7143 84.9194 61.7143ZM85.6126 60.0438C85.9686 60.0438 86.283 59.9737 86.5558 59.8336C86.8285 59.6897 87.0425 59.4965 87.1978 59.254C87.3531 59.0116 87.4308 58.737 87.4308 58.4302V57.504C87.355 57.5533 87.2508 57.5987 87.1183 57.6404C86.9895 57.6783 86.8436 57.7143 86.6808 57.7484C86.5179 57.7787 86.355 57.8071 86.1921 57.8336C86.0292 57.8563 85.8815 57.8772 85.7489 57.8961C85.4648 57.9378 85.2167 58.004 85.0046 58.095C84.7925 58.1859 84.6277 58.309 84.5103 58.4643C84.3929 58.6158 84.3342 58.8052 84.3342 59.0325C84.3342 59.362 84.4535 59.6139 84.6921 59.7881C84.9345 59.9586 85.2414 60.0438 85.6126 60.0438ZM96.354 52.8222V54.6404H91.0984V52.8222H96.354ZM92.2915 50.7313H94.712V58.8677C94.712 59.0912 94.7461 59.2654 94.8143 59.3904C94.8825 59.5116 94.9772 59.5968 95.0984 59.6461C95.2234 59.6953 95.3673 59.72 95.5302 59.72C95.6438 59.72 95.7575 59.7105 95.8711 59.6915C95.9847 59.6688 96.0719 59.6518 96.1325 59.6404L96.5131 61.4415C96.3919 61.4794 96.2215 61.523 96.0018 61.5722C95.7821 61.6253 95.515 61.6575 95.2006 61.6688C94.6173 61.6915 94.1059 61.6139 93.6665 61.4359C93.2309 61.2578 92.8919 60.9813 92.6495 60.6063C92.4071 60.2313 92.2878 59.7578 92.2915 59.1859V50.7313ZM97.9308 61.5495V52.8222H100.351V61.5495H97.9308ZM99.1467 51.6972C98.7868 51.6972 98.4781 51.5779 98.2205 51.3393C97.9667 51.0968 97.8398 50.8071 97.8398 50.47C97.8398 50.1366 97.9667 49.8506 98.2205 49.612C98.4781 49.3696 98.7868 49.2484 99.1467 49.2484C99.5065 49.2484 99.8133 49.3696 100.067 49.612C100.325 49.8506 100.453 50.1366 100.453 50.47C100.453 50.8071 100.325 51.0968 100.067 51.3393C99.8133 51.5779 99.5065 51.6972 99.1467 51.6972ZM109.551 55.3109L107.336 55.4472C107.298 55.2578 107.216 55.0874 107.091 54.9359C106.966 54.7806 106.801 54.6575 106.597 54.5665C106.396 54.4718 106.156 54.4245 105.875 54.4245C105.5 54.4245 105.184 54.504 104.926 54.6631C104.669 54.8184 104.54 55.0268 104.54 55.2881C104.54 55.4965 104.623 55.6726 104.79 55.8165C104.957 55.9605 105.243 56.076 105.648 56.1631L107.228 56.4813C108.076 56.6556 108.709 56.9359 109.125 57.3222C109.542 57.7086 109.75 58.2162 109.75 58.845C109.75 59.4169 109.582 59.9188 109.245 60.3506C108.911 60.7825 108.453 61.1196 107.87 61.362C107.29 61.6006 106.622 61.72 105.864 61.72C104.709 61.72 103.788 61.4794 103.103 60.9984C102.421 60.5135 102.021 59.8544 101.904 59.0211L104.284 58.8961C104.356 59.2484 104.531 59.5173 104.807 59.7029C105.084 59.8847 105.438 59.9756 105.87 59.9756C106.294 59.9756 106.635 59.8942 106.892 59.7313C107.154 59.5647 107.286 59.3506 107.29 59.0893C107.286 58.8696 107.194 58.6897 107.012 58.5495C106.83 58.4056 106.55 58.2957 106.171 58.22L104.659 57.9188C103.807 57.7484 103.173 57.4529 102.756 57.0325C102.343 56.612 102.137 56.076 102.137 55.4245C102.137 54.8639 102.288 54.3809 102.591 53.9756C102.898 53.5703 103.328 53.2578 103.881 53.0381C104.438 52.8184 105.089 52.7086 105.836 52.7086C106.938 52.7086 107.805 52.9415 108.438 53.4075C109.074 53.8734 109.445 54.5078 109.551 55.3109ZM115.968 52.8222V54.6404H110.581V52.8222H115.968ZM111.814 61.5495V52.1915C111.814 51.559 111.937 51.0343 112.184 50.6177C112.434 50.201 112.775 49.8885 113.206 49.6802C113.638 49.4718 114.129 49.3677 114.678 49.3677C115.049 49.3677 115.388 49.3961 115.695 49.4529C116.006 49.5097 116.237 49.5609 116.388 49.6063L115.956 51.4245C115.862 51.3942 115.744 51.3658 115.604 51.3393C115.468 51.3128 115.328 51.2995 115.184 51.2995C114.828 51.2995 114.579 51.3828 114.439 51.5495C114.299 51.7124 114.229 51.9415 114.229 52.237V61.5495H111.814ZM119.623 61.7143C119.066 61.7143 118.569 61.6177 118.134 61.4245C117.698 61.2275 117.354 60.9378 117.1 60.5552C116.85 60.1688 116.725 59.6878 116.725 59.112C116.725 58.6272 116.814 58.22 116.992 57.8904C117.17 57.5609 117.412 57.2957 117.719 57.095C118.026 56.8942 118.374 56.7427 118.765 56.6404C119.158 56.5381 119.571 56.4662 120.003 56.4245C120.511 56.3715 120.92 56.3222 121.23 56.2768C121.541 56.2275 121.766 56.1556 121.907 56.0609C122.047 55.9662 122.117 55.826 122.117 55.6404V55.6063C122.117 55.2465 122.003 54.9681 121.776 54.7711C121.552 54.5741 121.234 54.4756 120.821 54.4756C120.386 54.4756 120.039 54.5722 119.782 54.7654C119.524 54.9548 119.354 55.1934 119.27 55.4813L117.032 55.2995C117.145 54.7692 117.369 54.3109 117.702 53.9245C118.035 53.5343 118.465 53.2351 118.992 53.0268C119.522 52.8147 120.136 52.7086 120.833 52.7086C121.318 52.7086 121.782 52.7654 122.225 52.879C122.672 52.9927 123.068 53.1688 123.412 53.4075C123.761 53.6461 124.035 53.9529 124.236 54.3279C124.437 54.6991 124.537 55.1442 124.537 55.6631V61.5495H122.242V60.3393H122.174C122.033 60.612 121.846 60.8525 121.611 61.0609C121.376 61.2654 121.094 61.4264 120.765 61.5438C120.435 61.6575 120.054 61.7143 119.623 61.7143ZM120.316 60.0438C120.672 60.0438 120.986 59.9737 121.259 59.8336C121.532 59.6897 121.746 59.4965 121.901 59.254C122.056 59.0116 122.134 58.737 122.134 58.4302V57.504C122.058 57.5533 121.954 57.5987 121.821 57.6404C121.693 57.6783 121.547 57.7143 121.384 57.7484C121.221 57.7787 121.058 57.8071 120.895 57.8336C120.732 57.8563 120.585 57.8772 120.452 57.8961C120.168 57.9378 119.92 58.004 119.708 58.095C119.496 58.1859 119.331 58.309 119.213 58.4643C119.096 58.6158 119.037 58.8052 119.037 59.0325C119.037 59.362 119.157 59.6139 119.395 59.7881C119.638 59.9586 119.944 60.0438 120.316 60.0438ZM130.358 61.72C129.464 61.72 128.695 61.5306 128.051 61.1518C127.411 60.7692 126.919 60.2389 126.574 59.5609C126.233 58.8828 126.063 58.1025 126.063 57.22C126.063 56.326 126.235 55.5419 126.58 54.8677C126.928 54.1897 127.423 53.6612 128.063 53.2825C128.703 52.8999 129.464 52.7086 130.347 52.7086C131.108 52.7086 131.775 52.8468 132.347 53.1234C132.919 53.3999 133.372 53.7881 133.705 54.2881C134.038 54.7881 134.222 55.3753 134.256 56.0495H131.972C131.908 55.6139 131.737 55.2635 131.461 54.9984C131.188 54.7294 130.83 54.595 130.387 54.595C130.012 54.595 129.684 54.6972 129.404 54.9018C129.127 55.1025 128.911 55.3961 128.756 55.7825C128.601 56.1688 128.523 56.6366 128.523 57.1859C128.523 57.7427 128.599 58.2162 128.75 58.6063C128.906 58.9965 129.123 59.2938 129.404 59.4984C129.684 59.7029 130.012 59.8052 130.387 59.8052C130.663 59.8052 130.911 59.7484 131.131 59.6347C131.355 59.5211 131.538 59.3563 131.682 59.1404C131.83 58.9207 131.926 58.6575 131.972 58.3506H134.256C134.218 59.0173 134.036 59.6044 133.711 60.112C133.389 60.6158 132.944 61.0097 132.375 61.2938C131.807 61.5779 131.135 61.72 130.358 61.72ZM140.448 52.8222V54.6404H135.192V52.8222H140.448ZM136.385 50.7313H138.806V58.8677C138.806 59.0912 138.84 59.2654 138.908 59.3904C138.976 59.5116 139.071 59.5968 139.192 59.6461C139.317 59.6953 139.461 59.72 139.624 59.72C139.738 59.72 139.851 59.7105 139.965 59.6915C140.078 59.6688 140.166 59.6518 140.226 59.6404L140.607 61.4415C140.486 61.4794 140.315 61.523 140.096 61.5722C139.876 61.6253 139.609 61.6575 139.294 61.6688C138.711 61.6915 138.2 61.6139 137.76 61.4359C137.325 61.2578 136.986 60.9813 136.743 60.6063C136.501 60.2313 136.382 59.7578 136.385 59.1859V50.7313ZM142.025 61.5495V52.8222H144.445V61.5495H142.025ZM143.24 51.6972C142.881 51.6972 142.572 51.5779 142.314 51.3393C142.06 51.0968 141.934 50.8071 141.934 50.47C141.934 50.1366 142.06 49.8506 142.314 49.612C142.572 49.3696 142.881 49.2484 143.24 49.2484C143.6 49.2484 143.907 49.3696 144.161 49.612C144.418 49.8506 144.547 50.1366 144.547 50.47C144.547 50.8071 144.418 51.0968 144.161 51.3393C143.907 51.5779 143.6 51.6972 143.24 51.6972ZM150.327 61.72C149.444 61.72 148.681 61.5325 148.037 61.1575C147.397 60.7787 146.903 60.2522 146.554 59.5779C146.206 58.8999 146.032 58.1139 146.032 57.22C146.032 56.3184 146.206 55.5306 146.554 54.8563C146.903 54.1783 147.397 53.6518 148.037 53.2768C148.681 52.898 149.444 52.7086 150.327 52.7086C151.21 52.7086 151.971 52.898 152.611 53.2768C153.255 53.6518 153.751 54.1783 154.1 54.8563C154.448 55.5306 154.623 56.3184 154.623 57.22C154.623 58.1139 154.448 58.8999 154.1 59.5779C153.751 60.2522 153.255 60.7787 152.611 61.1575C151.971 61.5325 151.21 61.72 150.327 61.72ZM150.338 59.845C150.74 59.845 151.075 59.7313 151.344 59.504C151.613 59.273 151.816 58.9586 151.952 58.5609C152.092 58.1631 152.162 57.7105 152.162 57.2029C152.162 56.6953 152.092 56.2427 151.952 55.845C151.816 55.4472 151.613 55.1328 151.344 54.9018C151.075 54.6707 150.74 54.5552 150.338 54.5552C149.933 54.5552 149.592 54.6707 149.316 54.9018C149.043 55.1328 148.837 55.4472 148.696 55.845C148.56 56.2427 148.492 56.6953 148.492 57.2029C148.492 57.7105 148.56 58.1631 148.696 58.5609C148.837 58.9586 149.043 59.273 149.316 59.504C149.592 59.7313 149.933 59.845 150.338 59.845ZM158.617 56.504V61.5495H156.196V52.8222H158.503V54.362H158.605C158.799 53.8544 159.123 53.4529 159.577 53.1575C160.032 52.8582 160.583 52.7086 161.23 52.7086C161.837 52.7086 162.365 52.8412 162.816 53.1063C163.266 53.3715 163.617 53.7503 163.867 54.2427C164.117 54.7313 164.242 55.3147 164.242 55.9927V61.5495H161.821V56.4245C161.825 55.8904 161.689 55.4737 161.412 55.1745C161.136 54.8715 160.755 54.72 160.27 54.72C159.944 54.72 159.657 54.79 159.407 54.9302C159.16 55.0703 158.967 55.2749 158.827 55.5438C158.691 55.809 158.621 56.129 158.617 56.504ZM171.574 61.5495L169.199 52.8222H171.648L173 58.6859H173.08L174.489 52.8222H176.892L178.324 58.6518H178.398L179.728 52.8222H182.171L179.801 61.5495H177.239L175.739 56.0609H175.631L174.131 61.5495H171.574ZM183.462 61.5495V52.8222H185.882V61.5495H183.462ZM184.678 51.6972C184.318 51.6972 184.009 51.5779 183.752 51.3393C183.498 51.0968 183.371 50.8071 183.371 50.47C183.371 50.1366 183.498 49.8506 183.752 49.612C184.009 49.3696 184.318 49.2484 184.678 49.2484C185.038 49.2484 185.345 49.3696 185.598 49.612C185.856 49.8506 185.985 50.1366 185.985 50.47C185.985 50.8071 185.856 51.0968 185.598 51.3393C185.345 51.5779 185.038 51.6972 184.678 51.6972ZM192.463 52.8222V54.6404H187.208V52.8222H192.463ZM188.401 50.7313H190.821V58.8677C190.821 59.0912 190.855 59.2654 190.924 59.3904C190.992 59.5116 191.087 59.5968 191.208 59.6461C191.333 59.6953 191.477 59.72 191.64 59.72C191.753 59.72 191.867 59.7105 191.98 59.6915C192.094 59.6688 192.181 59.6518 192.242 59.6404L192.623 61.4415C192.501 61.4794 192.331 61.523 192.111 61.5722C191.891 61.6253 191.624 61.6575 191.31 61.6688C190.727 61.6915 190.215 61.6139 189.776 61.4359C189.34 61.2578 189.001 60.9813 188.759 60.6063C188.516 60.2313 188.397 59.7578 188.401 59.1859V50.7313ZM196.648 56.504V61.5495H194.228V49.9131H196.58V54.362H196.682C196.879 53.8468 197.197 53.4434 197.637 53.1518C198.076 52.8563 198.627 52.7086 199.29 52.7086C199.896 52.7086 200.425 52.8412 200.875 53.1063C201.33 53.3677 201.682 53.7446 201.932 54.237C202.186 54.7256 202.311 55.3109 202.307 55.9927V61.5495H199.887V56.4245C199.891 55.8866 199.754 55.4681 199.478 55.1688C199.205 54.8696 198.822 54.72 198.33 54.72C198 54.72 197.709 54.79 197.455 54.9302C197.205 55.0703 197.008 55.2749 196.864 55.5438C196.724 55.809 196.652 56.129 196.648 56.504ZM211.858 61.72C210.976 61.72 210.212 61.5325 209.569 61.1575C208.928 60.7787 208.434 60.2522 208.086 59.5779C207.737 58.8999 207.563 58.1139 207.563 57.22C207.563 56.3184 207.737 55.5306 208.086 54.8563C208.434 54.1783 208.928 53.6518 209.569 53.2768C210.212 52.898 210.976 52.7086 211.858 52.7086C212.741 52.7086 213.502 52.898 214.142 53.2768C214.786 53.6518 215.283 54.1783 215.631 54.8563C215.98 55.5306 216.154 56.3184 216.154 57.22C216.154 58.1139 215.98 58.8999 215.631 59.5779C215.283 60.2522 214.786 60.7787 214.142 61.1575C213.502 61.5325 212.741 61.72 211.858 61.72ZM211.87 59.845C212.271 59.845 212.606 59.7313 212.875 59.504C213.144 59.273 213.347 58.9586 213.483 58.5609C213.623 58.1631 213.694 57.7105 213.694 57.2029C213.694 56.6953 213.623 56.2427 213.483 55.845C213.347 55.4472 213.144 55.1328 212.875 54.9018C212.606 54.6707 212.271 54.5552 211.87 54.5552C211.464 54.5552 211.123 54.6707 210.847 54.9018C210.574 55.1328 210.368 55.4472 210.228 55.845C210.091 56.2427 210.023 56.6953 210.023 57.2029C210.023 57.7105 210.091 58.1631 210.228 58.5609C210.368 58.9586 210.574 59.273 210.847 59.504C211.123 59.7313 211.464 59.845 211.87 59.845ZM223.324 57.8336V52.8222H225.745V61.5495H223.421V59.9643H223.33C223.133 60.4756 222.805 60.8866 222.347 61.1972C221.892 61.5078 221.337 61.6631 220.682 61.6631C220.099 61.6631 219.586 61.5306 219.142 61.2654C218.699 61.0003 218.353 60.6234 218.103 60.1347C217.856 59.6461 217.731 59.0609 217.728 58.379V52.8222H220.148V57.9472C220.152 58.4624 220.29 58.8696 220.563 59.1688C220.836 59.4681 221.201 59.6177 221.659 59.6177C221.951 59.6177 222.224 59.5514 222.478 59.4188C222.731 59.2825 222.936 59.0817 223.091 58.8165C223.25 58.5514 223.328 58.2237 223.324 57.8336ZM227.681 61.5495V52.8222H230.027V54.345H230.118C230.277 53.8033 230.544 53.3942 230.919 53.1177C231.294 52.8374 231.726 52.6972 232.215 52.6972C232.336 52.6972 232.467 52.7048 232.607 52.72C232.747 52.7351 232.87 52.7559 232.976 52.7825V54.9302C232.863 54.8961 232.705 54.8658 232.505 54.8393C232.304 54.8128 232.12 54.7995 231.953 54.7995C231.597 54.7995 231.279 54.8772 230.999 55.0325C230.722 55.184 230.503 55.3961 230.34 55.6688C230.181 55.9415 230.101 56.2559 230.101 56.612V61.5495H227.681ZM118.431 88.8222V76.8222H120.817V78.2881H120.925C121.031 78.0533 121.185 77.8147 121.385 77.5722C121.59 77.326 121.855 77.1215 122.181 76.9586C122.51 76.7919 122.919 76.7086 123.408 76.7086C124.044 76.7086 124.632 76.8753 125.169 77.2086C125.707 77.5381 126.137 78.0362 126.459 78.7029C126.781 79.3658 126.942 80.1972 126.942 81.1972C126.942 82.1707 126.785 82.9927 126.471 83.6631C126.16 84.3298 125.736 84.8355 125.198 85.1802C124.664 85.5211 124.065 85.6915 123.402 85.6915C122.933 85.6915 122.533 85.6139 122.203 85.4586C121.878 85.3033 121.611 85.1082 121.402 84.8734C121.194 84.6347 121.035 84.3942 120.925 84.1518H120.851V88.8222H118.431ZM120.8 81.1859C120.8 81.7048 120.872 82.1575 121.016 82.5438C121.16 82.9302 121.368 83.2313 121.641 83.4472C121.914 83.6593 122.245 83.7654 122.635 83.7654C123.029 83.7654 123.363 83.6575 123.635 83.4415C123.908 83.2218 124.114 82.9188 124.255 82.5325C124.399 82.1423 124.471 81.6934 124.471 81.1859C124.471 80.6821 124.4 80.2389 124.26 79.8563C124.12 79.4737 123.914 79.1745 123.641 78.9586C123.368 78.7427 123.033 78.6347 122.635 78.6347C122.241 78.6347 121.908 78.7389 121.635 78.9472C121.366 79.1556 121.16 79.451 121.016 79.8336C120.872 80.2162 120.8 80.6669 120.8 81.1859ZM128.556 85.5495V76.8222H130.902V78.345H130.993C131.152 77.8033 131.419 77.3942 131.794 77.1177C132.169 76.8374 132.601 76.6972 133.09 76.6972C133.211 76.6972 133.342 76.7048 133.482 76.72C133.622 76.7351 133.745 76.7559 133.851 76.7825V78.9302C133.738 78.8961 133.58 78.8658 133.38 78.8393C133.179 78.8128 132.995 78.7995 132.828 78.7995C132.472 78.7995 132.154 78.8772 131.874 79.0325C131.597 79.184 131.378 79.3961 131.215 79.6688C131.056 79.9415 130.976 80.2559 130.976 80.612V85.5495H128.556ZM138.64 85.72C137.757 85.72 136.994 85.5325 136.35 85.1575C135.71 84.7787 135.215 84.2522 134.867 83.5779C134.518 82.8999 134.344 82.1139 134.344 81.22C134.344 80.3184 134.518 79.5306 134.867 78.8563C135.215 78.1783 135.71 77.6518 136.35 77.2768C136.994 76.898 137.757 76.7086 138.64 76.7086C139.522 76.7086 140.283 76.898 140.924 77.2768C141.568 77.6518 142.064 78.1783 142.412 78.8563C142.761 79.5306 142.935 80.3184 142.935 81.22C142.935 82.1139 142.761 82.8999 142.412 83.5779C142.064 84.2522 141.568 84.7787 140.924 85.1575C140.283 85.5325 139.522 85.72 138.64 85.72ZM138.651 83.845C139.052 83.845 139.388 83.7313 139.657 83.504C139.926 83.273 140.128 82.9586 140.265 82.5609C140.405 82.1631 140.475 81.7105 140.475 81.2029C140.475 80.6953 140.405 80.2427 140.265 79.845C140.128 79.4472 139.926 79.1328 139.657 78.9018C139.388 78.6707 139.052 78.5552 138.651 78.5552C138.246 78.5552 137.905 78.6707 137.628 78.9018C137.355 79.1328 137.149 79.4472 137.009 79.845C136.873 80.2427 136.804 80.6953 136.804 81.2029C136.804 81.7105 136.873 82.1631 137.009 82.5609C137.149 82.9586 137.355 83.273 137.628 83.504C137.905 83.7313 138.246 83.845 138.651 83.845ZM147.725 85.6915C147.062 85.6915 146.462 85.5211 145.924 85.1802C145.39 84.8355 144.965 84.3298 144.651 83.6631C144.34 82.9927 144.185 82.1707 144.185 81.1972C144.185 80.1972 144.346 79.3658 144.668 78.7029C144.99 78.0362 145.418 77.5381 145.952 77.2086C146.49 76.8753 147.079 76.7086 147.719 76.7086C148.208 76.7086 148.615 76.7919 148.941 76.9586C149.27 77.1215 149.535 77.326 149.736 77.5722C149.941 77.8147 150.096 78.0533 150.202 78.2881H150.276V73.9131H152.691V85.5495H150.304V84.1518H150.202C150.088 84.3942 149.927 84.6347 149.719 84.8734C149.515 85.1082 149.248 85.3033 148.918 85.4586C148.592 85.6139 148.194 85.6915 147.725 85.6915ZM148.492 83.7654C148.882 83.7654 149.212 83.6593 149.48 83.4472C149.753 83.2313 149.962 82.9302 150.105 82.5438C150.253 82.1575 150.327 81.7048 150.327 81.1859C150.327 80.6669 150.255 80.2162 150.111 79.8336C149.967 79.451 149.759 79.1556 149.486 78.9472C149.213 78.7389 148.882 78.6347 148.492 78.6347C148.094 78.6347 147.759 78.7427 147.486 78.9586C147.213 79.1745 147.007 79.4737 146.867 79.8563C146.727 80.2389 146.657 80.6821 146.657 81.1859C146.657 81.6934 146.727 82.1423 146.867 82.5325C147.011 82.9188 147.217 83.2218 147.486 83.4415C147.759 83.6575 148.094 83.7654 148.492 83.7654ZM160.277 81.8336V76.8222H162.698V85.5495H160.374V83.9643H160.283C160.086 84.4756 159.758 84.8866 159.3 85.1972C158.846 85.5078 158.291 85.6631 157.635 85.6631C157.052 85.6631 156.539 85.5306 156.096 85.2654C155.652 85.0003 155.306 84.6234 155.056 84.1347C154.81 83.6461 154.685 83.0609 154.681 82.379V76.8222H157.101V81.9472C157.105 82.4624 157.243 82.8696 157.516 83.1688C157.789 83.4681 158.154 83.6177 158.613 83.6177C158.904 83.6177 159.177 83.5514 159.431 83.4188C159.685 83.2825 159.889 83.0817 160.044 82.8165C160.203 82.5514 160.281 82.2237 160.277 81.8336ZM168.577 85.72C167.683 85.72 166.914 85.5306 166.27 85.1518C165.63 84.7692 165.138 84.2389 164.793 83.5609C164.452 82.8828 164.282 82.1025 164.282 81.22C164.282 80.326 164.454 79.5419 164.799 78.8677C165.147 78.1897 165.641 77.6612 166.282 77.2825C166.922 76.8999 167.683 76.7086 168.566 76.7086C169.327 76.7086 169.994 76.8468 170.566 77.1234C171.138 77.3999 171.59 77.7881 171.924 78.2881C172.257 78.7881 172.441 79.3753 172.475 80.0495H170.191C170.126 79.6139 169.956 79.2635 169.679 78.9984C169.407 78.7294 169.049 78.595 168.605 78.595C168.23 78.595 167.903 78.6972 167.623 78.9018C167.346 79.1025 167.13 79.3961 166.975 79.7825C166.819 80.1688 166.742 80.6366 166.742 81.1859C166.742 81.7427 166.818 82.2162 166.969 82.6063C167.124 82.9965 167.342 83.2938 167.623 83.4984C167.903 83.7029 168.23 83.8052 168.605 83.8052C168.882 83.8052 169.13 83.7484 169.35 83.6347C169.573 83.5211 169.757 83.3563 169.901 83.1404C170.049 82.9207 170.145 82.6575 170.191 82.3506H172.475C172.437 83.0173 172.255 83.6044 171.929 84.112C171.607 84.6158 171.162 85.0097 170.594 85.2938C170.026 85.5779 169.354 85.72 168.577 85.72ZM178.667 76.8222V78.6404H173.411V76.8222H178.667ZM174.604 74.7313H177.025V82.8677C177.025 83.0912 177.059 83.2654 177.127 83.3904C177.195 83.5116 177.29 83.5968 177.411 83.6461C177.536 83.6953 177.68 83.72 177.843 83.72C177.956 83.72 178.07 83.7105 178.184 83.6915C178.297 83.6688 178.384 83.6518 178.445 83.6404L178.826 85.4415C178.704 85.4794 178.534 85.523 178.314 85.5722C178.095 85.6253 177.828 85.6575 177.513 85.6688C176.93 85.6915 176.418 85.6139 175.979 85.4359C175.543 85.2578 175.204 84.9813 174.962 84.6063C174.72 84.2313 174.6 83.7578 174.604 83.1859V74.7313ZM182.323 82.0609V81.8677C182.327 81.2048 182.385 80.6764 182.499 80.2825C182.616 79.8885 182.787 79.5703 183.01 79.3279C183.234 79.0855 183.503 78.8658 183.817 78.6688C184.052 78.5173 184.262 78.3601 184.448 78.1972C184.633 78.0343 184.781 77.8544 184.891 77.6575C185.001 77.4567 185.056 77.2332 185.056 76.987C185.056 76.7256 184.993 76.4965 184.868 76.2995C184.743 76.1025 184.575 75.951 184.363 75.845C184.154 75.7389 183.923 75.6859 183.669 75.6859C183.423 75.6859 183.19 75.7408 182.971 75.8506C182.751 75.9567 182.571 76.1158 182.431 76.3279C182.291 76.5362 182.215 76.7957 182.203 77.1063H179.885C179.904 76.3487 180.086 75.7237 180.431 75.2313C180.775 74.7351 181.232 74.3658 181.8 74.1234C182.368 73.8772 182.995 73.754 183.681 73.754C184.435 73.754 185.101 73.879 185.681 74.129C186.26 74.3753 186.715 74.7332 187.044 75.2029C187.374 75.6726 187.539 76.2389 187.539 76.9018C187.539 77.345 187.465 77.7389 187.317 78.0836C187.173 78.4245 186.971 78.7275 186.709 78.9927C186.448 79.254 186.139 79.4908 185.783 79.7029C185.484 79.8809 185.238 80.0665 185.044 80.2597C184.855 80.4529 184.713 80.6764 184.618 80.9302C184.527 81.184 184.48 81.4965 184.476 81.8677V82.0609H182.323ZM183.448 85.6972C183.069 85.6972 182.745 85.5647 182.476 85.2995C182.211 85.0306 182.08 84.7086 182.084 84.3336C182.08 83.9624 182.211 83.6442 182.476 83.379C182.745 83.1139 183.069 82.9813 183.448 82.9813C183.808 82.9813 184.124 83.1139 184.397 83.379C184.669 83.6442 184.808 83.9624 184.811 84.3336C184.808 84.5836 184.741 84.8128 184.613 85.0211C184.488 85.2256 184.323 85.3904 184.118 85.5154C183.914 85.6366 183.69 85.6972 183.448 85.6972Z" fill="#050505"/>
<path d="M72.2658 111.853L69.7585 102.684H70.8868L72.8031 110.152H72.8926L74.8447 102.684H76.0983L78.0504 110.152H78.1399L80.0562 102.684H81.1844L78.6772 111.853H77.531L75.5073 104.547H75.4357L73.412 111.853H72.2658ZM85.3079 111.997C84.6453 111.997 84.0737 111.85 83.5932 111.558C83.1156 111.262 82.747 110.851 82.4873 110.322C82.2306 109.791 82.1023 109.173 82.1023 108.469C82.1023 107.764 82.2306 107.143 82.4873 106.606C82.747 106.066 83.1081 105.645 83.5708 105.344C84.0364 105.039 84.5797 104.887 85.2005 104.887C85.5587 104.887 85.9124 104.947 86.2616 105.066C86.6108 105.185 86.9287 105.379 87.2152 105.648C87.5018 105.914 87.7301 106.266 87.9003 106.705C88.0704 107.143 88.1555 107.684 88.1555 108.325V108.773H82.8544V107.86H87.0809C87.0809 107.472 87.0033 107.126 86.8481 106.821C86.6959 106.517 86.478 106.276 86.1944 106.1C85.9139 105.924 85.5825 105.836 85.2005 105.836C84.7796 105.836 84.4155 105.941 84.108 106.149C83.8036 106.355 83.5693 106.624 83.4051 106.955C83.241 107.287 83.1589 107.642 83.1589 108.021V108.63C83.1589 109.149 83.2484 109.589 83.4275 109.951C83.6096 110.309 83.8618 110.582 84.1842 110.77C84.5065 110.955 84.8811 111.048 85.3079 111.048C85.5855 111.048 85.8363 111.009 86.0601 110.931C86.287 110.851 86.4825 110.731 86.6466 110.573C86.8108 110.412 86.9377 110.212 87.0272 109.973L88.048 110.26C87.9406 110.606 87.76 110.91 87.5063 111.173C87.2526 111.433 86.9391 111.636 86.566 111.782C86.1929 111.925 85.7736 111.997 85.3079 111.997ZM92.1626 104.045L90.7657 101.968H92.0014L93.0938 104.045H92.1626ZM98.6266 111.997C98.0535 111.997 97.5476 111.852 97.1088 111.562C96.67 111.27 96.3268 110.858 96.079 110.327C95.8313 109.792 95.7074 109.161 95.7074 108.433C95.7074 107.711 95.8313 107.084 96.079 106.552C96.3268 106.021 96.6715 105.611 97.1133 105.321C97.555 105.032 98.0654 104.887 98.6445 104.887C99.0922 104.887 99.4459 104.962 99.7056 105.111C99.9682 105.257 100.168 105.424 100.306 105.612C100.446 105.797 100.555 105.949 100.632 106.069H100.722V102.684H101.779V111.853H100.758V110.797H100.632C100.555 110.922 100.444 111.08 100.301 111.271C100.158 111.459 99.9533 111.628 99.6877 111.777C99.422 111.924 99.0683 111.997 98.6266 111.997ZM98.7698 111.048C99.1937 111.048 99.5519 110.937 99.8444 110.716C100.137 110.492 100.359 110.183 100.511 109.789C100.664 109.392 100.74 108.934 100.74 108.415C100.74 107.902 100.665 107.452 100.516 107.067C100.367 106.679 100.146 106.378 99.8533 106.163C99.5608 105.945 99.1997 105.836 98.7698 105.836C98.3221 105.836 97.949 105.951 97.6505 106.181C97.355 106.408 97.1327 106.717 96.9834 107.108C96.8372 107.496 96.764 107.931 96.764 108.415C96.764 108.904 96.8387 109.349 96.9879 109.749C97.1401 110.146 97.364 110.463 97.6595 110.698C97.958 110.931 98.3281 111.048 98.7698 111.048ZM108.463 102.684V111.853H107.406V102.684H108.463ZM113.192 111.997C112.571 111.997 112.027 111.849 111.558 111.553C111.092 111.258 110.728 110.845 110.465 110.313C110.206 109.782 110.076 109.161 110.076 108.451C110.076 107.734 110.206 107.109 110.465 106.575C110.728 106.041 111.092 105.626 111.558 105.33C112.027 105.035 112.571 104.887 113.192 104.887C113.813 104.887 114.356 105.035 114.822 105.33C115.29 105.626 115.655 106.041 115.914 106.575C116.177 107.109 116.308 107.734 116.308 108.451C116.308 109.161 116.177 109.782 115.914 110.313C115.655 110.845 115.29 111.258 114.822 111.553C114.356 111.849 113.813 111.997 113.192 111.997ZM113.192 111.048C113.664 111.048 114.052 110.927 114.356 110.685C114.661 110.443 114.886 110.125 115.032 109.731C115.179 109.337 115.252 108.91 115.252 108.451C115.252 107.991 115.179 107.563 115.032 107.166C114.886 106.769 114.661 106.448 114.356 106.203C114.052 105.958 113.664 105.836 113.192 105.836C112.721 105.836 112.332 105.958 112.028 106.203C111.724 106.448 111.498 106.769 111.352 107.166C111.206 107.563 111.133 107.991 111.133 108.451C111.133 108.91 111.206 109.337 111.352 109.731C111.498 110.125 111.724 110.443 112.028 110.685C112.332 110.927 112.721 111.048 113.192 111.048ZM123.298 104.976L120.755 111.853H119.681L117.138 104.976H118.284L120.182 110.457H120.254L122.152 104.976H123.298ZM127.33 111.997C126.667 111.997 126.096 111.85 125.615 111.558C125.138 111.262 124.769 110.851 124.509 110.322C124.253 109.791 124.124 109.173 124.124 108.469C124.124 107.764 124.253 107.143 124.509 106.606C124.769 106.066 125.13 105.645 125.593 105.344C126.059 105.039 126.602 104.887 127.223 104.887C127.581 104.887 127.935 104.947 128.284 105.066C128.633 105.185 128.951 105.379 129.237 105.648C129.524 105.914 129.752 106.266 129.922 106.705C130.093 107.143 130.178 107.684 130.178 108.325V108.773H124.877V107.86H129.103C129.103 107.472 129.025 107.126 128.87 106.821C128.718 106.517 128.5 106.276 128.217 106.1C127.936 105.924 127.605 105.836 127.223 105.836C126.802 105.836 126.438 105.941 126.13 106.149C125.826 106.355 125.591 106.624 125.427 106.955C125.263 107.287 125.181 107.642 125.181 108.021V108.63C125.181 109.149 125.271 109.589 125.45 109.951C125.632 110.309 125.884 110.582 126.206 110.77C126.529 110.955 126.903 111.048 127.33 111.048C127.608 111.048 127.858 111.009 128.082 110.931C128.309 110.851 128.505 110.731 128.669 110.573C128.833 110.412 128.96 110.212 129.049 109.973L130.07 110.26C129.963 110.606 129.782 110.91 129.528 111.173C129.275 111.433 128.961 111.636 128.588 111.782C128.215 111.925 127.796 111.997 127.33 111.997ZM138.322 104.976V105.872H134.758V104.976H138.322ZM135.797 103.329H136.853V109.883C136.853 110.182 136.896 110.406 136.983 110.555C137.073 110.701 137.186 110.8 137.323 110.851C137.464 110.898 137.611 110.922 137.766 110.922C137.883 110.922 137.978 110.916 138.053 110.904C138.128 110.889 138.187 110.877 138.232 110.868L138.447 111.818C138.375 111.845 138.275 111.871 138.147 111.898C138.019 111.928 137.856 111.943 137.659 111.943C137.361 111.943 137.068 111.879 136.781 111.75C136.498 111.622 136.262 111.427 136.074 111.164C135.889 110.901 135.797 110.57 135.797 110.17V103.329ZM142.631 111.997C142.01 111.997 141.465 111.849 140.997 111.553C140.531 111.258 140.167 110.845 139.904 110.313C139.645 109.782 139.515 109.161 139.515 108.451C139.515 107.734 139.645 107.109 139.904 106.575C140.167 106.041 140.531 105.626 140.997 105.33C141.465 105.035 142.01 104.887 142.631 104.887C143.252 104.887 143.795 105.035 144.261 105.33C144.729 105.626 145.093 106.041 145.353 106.575C145.616 107.109 145.747 107.734 145.747 108.451C145.747 109.161 145.616 109.782 145.353 110.313C145.093 110.845 144.729 111.258 144.261 111.553C143.795 111.849 143.252 111.997 142.631 111.997ZM142.631 111.048C143.103 111.048 143.491 110.927 143.795 110.685C144.1 110.443 144.325 110.125 144.471 109.731C144.617 109.337 144.691 108.91 144.691 108.451C144.691 107.991 144.617 107.563 144.471 107.166C144.325 106.769 144.1 106.448 143.795 106.203C143.491 105.958 143.103 105.836 142.631 105.836C142.159 105.836 141.771 105.958 141.467 106.203C141.162 106.448 140.937 106.769 140.791 107.166C140.645 107.563 140.571 107.991 140.571 108.451C140.571 108.91 140.645 109.337 140.791 109.731C140.937 110.125 141.162 110.443 141.467 110.685C141.771 110.927 142.159 111.048 142.631 111.048ZM151.963 107.716V111.853H150.906V102.684H151.963V106.051H152.052C152.213 105.696 152.455 105.414 152.778 105.205C153.103 104.993 153.536 104.887 154.076 104.887C154.545 104.887 154.955 104.981 155.307 105.169C155.659 105.354 155.932 105.639 156.126 106.024C156.323 106.406 156.422 106.893 156.422 107.484V111.853H155.365V107.555C155.365 107.009 155.224 106.587 154.94 106.288C154.659 105.987 154.27 105.836 153.771 105.836C153.425 105.836 153.115 105.909 152.84 106.055C152.569 106.202 152.354 106.415 152.195 106.696C152.04 106.976 151.963 107.317 151.963 107.716ZM161.238 111.997C160.576 111.997 160.004 111.85 159.524 111.558C159.046 111.262 158.677 110.851 158.418 110.322C158.161 109.791 158.033 109.173 158.033 108.469C158.033 107.764 158.161 107.143 158.418 106.606C158.677 106.066 159.039 105.645 159.501 105.344C159.967 105.039 160.51 104.887 161.131 104.887C161.489 104.887 161.843 104.947 162.192 105.066C162.541 105.185 162.859 105.379 163.146 105.648C163.432 105.914 163.661 106.266 163.831 106.705C164.001 107.143 164.086 107.684 164.086 108.325V108.773H158.785V107.86H163.011C163.011 107.472 162.934 107.126 162.779 106.821C162.626 106.517 162.408 106.276 162.125 106.1C161.844 105.924 161.513 105.836 161.131 105.836C160.71 105.836 160.346 105.941 160.038 106.149C159.734 106.355 159.5 106.624 159.336 106.955C159.171 107.287 159.089 107.642 159.089 108.021V108.63C159.089 109.149 159.179 109.589 159.358 109.951C159.54 110.309 159.792 110.582 160.115 110.77C160.437 110.955 160.812 111.048 161.238 111.048C161.516 111.048 161.767 111.009 161.991 110.931C162.217 110.851 162.413 110.731 162.577 110.573C162.741 110.412 162.868 110.212 162.958 109.973L163.978 110.26C163.871 110.606 163.69 110.91 163.437 111.173C163.183 111.433 162.87 111.636 162.496 111.782C162.123 111.925 161.704 111.997 161.238 111.997ZM167.717 112.015C167.281 112.015 166.886 111.933 166.53 111.768C166.175 111.601 165.893 111.361 165.684 111.048C165.475 110.731 165.371 110.349 165.371 109.901C165.371 109.507 165.448 109.188 165.604 108.943C165.759 108.696 165.966 108.502 166.226 108.361C166.486 108.221 166.772 108.116 167.086 108.048C167.402 107.976 167.72 107.919 168.039 107.878C168.457 107.824 168.796 107.784 169.056 107.757C169.318 107.727 169.509 107.678 169.629 107.609C169.751 107.54 169.812 107.421 169.812 107.251V107.215C169.812 106.773 169.691 106.43 169.45 106.185C169.211 105.941 168.848 105.818 168.362 105.818C167.857 105.818 167.462 105.929 167.175 106.149C166.889 106.37 166.687 106.606 166.571 106.857L165.568 106.499C165.747 106.081 165.986 105.755 166.284 105.523C166.586 105.287 166.914 105.123 167.269 105.03C167.627 104.935 167.98 104.887 168.326 104.887C168.547 104.887 168.8 104.914 169.087 104.967C169.376 105.018 169.656 105.124 169.924 105.285C170.196 105.447 170.421 105.69 170.6 106.015C170.779 106.34 170.869 106.776 170.869 107.323V111.853H169.812V110.922H169.759C169.687 111.071 169.567 111.231 169.4 111.401C169.233 111.571 169.011 111.716 168.733 111.836C168.456 111.955 168.117 112.015 167.717 112.015ZM167.878 111.065C168.296 111.065 168.648 110.983 168.935 110.819C169.224 110.655 169.442 110.443 169.588 110.183C169.738 109.924 169.812 109.651 169.812 109.364V108.397C169.767 108.451 169.669 108.5 169.517 108.545C169.367 108.587 169.194 108.624 168.997 108.657C168.803 108.687 168.614 108.713 168.429 108.737C168.247 108.758 168.099 108.776 167.986 108.791C167.711 108.827 167.454 108.885 167.215 108.966C166.98 109.043 166.789 109.161 166.642 109.319C166.499 109.475 166.427 109.686 166.427 109.955C166.427 110.322 166.563 110.6 166.835 110.788C167.109 110.973 167.457 111.065 167.878 111.065ZM172.797 111.853V104.976H173.818V106.015H173.89C174.015 105.675 174.242 105.399 174.57 105.187C174.899 104.975 175.269 104.869 175.681 104.869C175.758 104.869 175.855 104.87 175.972 104.873C176.088 104.876 176.176 104.881 176.236 104.887V105.961C176.2 105.952 176.118 105.939 175.99 105.921C175.864 105.9 175.732 105.89 175.591 105.89C175.257 105.89 174.958 105.96 174.696 106.1C174.436 106.238 174.23 106.429 174.078 106.673C173.929 106.915 173.854 107.191 173.854 107.502V111.853H172.797ZM184.097 104.976V105.872H180.39V104.976H184.097ZM181.5 111.853V104.027C181.5 103.633 181.593 103.305 181.778 103.042C181.963 102.78 182.203 102.583 182.498 102.451C182.794 102.32 183.106 102.254 183.434 102.254C183.694 102.254 183.906 102.275 184.07 102.317C184.234 102.359 184.357 102.398 184.437 102.433L184.133 103.347C184.079 103.329 184.004 103.306 183.909 103.28C183.816 103.253 183.694 103.239 183.542 103.239C183.192 103.239 182.94 103.327 182.785 103.503C182.633 103.68 182.557 103.938 182.557 104.278V111.853H181.5ZM185.578 111.853V104.976H186.598V106.015H186.67C186.795 105.675 187.022 105.399 187.351 105.187C187.679 104.975 188.049 104.869 188.461 104.869C188.539 104.869 188.636 104.87 188.752 104.873C188.868 104.876 188.956 104.881 189.016 104.887V105.961C188.98 105.952 188.898 105.939 188.77 105.921C188.645 105.9 188.512 105.89 188.371 105.89C188.037 105.89 187.739 105.96 187.476 106.1C187.216 106.238 187.01 106.429 186.858 106.673C186.709 106.915 186.634 107.191 186.634 107.502V111.853H185.578ZM192.853 111.997C192.232 111.997 191.688 111.849 191.219 111.553C190.753 111.258 190.389 110.845 190.127 110.313C189.867 109.782 189.737 109.161 189.737 108.451C189.737 107.734 189.867 107.109 190.127 106.575C190.389 106.041 190.753 105.626 191.219 105.33C191.688 105.035 192.232 104.887 192.853 104.887C193.474 104.887 194.017 105.035 194.483 105.33C194.951 105.626 195.316 106.041 195.575 106.575C195.838 107.109 195.969 107.734 195.969 108.451C195.969 109.161 195.838 109.782 195.575 110.313C195.316 110.845 194.951 111.258 194.483 111.553C194.017 111.849 193.474 111.997 192.853 111.997ZM192.853 111.048C193.325 111.048 193.713 110.927 194.017 110.685C194.322 110.443 194.547 110.125 194.693 109.731C194.84 109.337 194.913 108.91 194.913 108.451C194.913 107.991 194.84 107.563 194.693 107.166C194.547 106.769 194.322 106.448 194.017 106.203C193.713 105.958 193.325 105.836 192.853 105.836C192.382 105.836 191.994 105.958 191.689 106.203C191.385 106.448 191.159 106.769 191.013 107.166C190.867 107.563 190.794 107.991 190.794 108.451C190.794 108.91 190.867 109.337 191.013 109.731C191.159 110.125 191.385 110.443 191.689 110.685C191.994 110.927 192.382 111.048 192.853 111.048ZM197.582 111.853V104.976H198.603V106.051H198.693C198.836 105.684 199.067 105.399 199.387 105.196C199.706 104.99 200.089 104.887 200.537 104.887C200.991 104.887 201.368 104.99 201.67 105.196C201.974 105.399 202.212 105.684 202.382 106.051H202.453C202.63 105.696 202.894 105.414 203.246 105.205C203.598 104.993 204.02 104.887 204.513 104.887C205.128 104.887 205.631 105.079 206.022 105.464C206.413 105.847 206.608 106.442 206.608 107.251V111.853H205.552V107.251C205.552 106.743 205.413 106.381 205.135 106.163C204.858 105.945 204.531 105.836 204.155 105.836C203.671 105.836 203.297 105.982 203.031 106.275C202.765 106.564 202.633 106.931 202.633 107.376V111.853H201.558V107.143C201.558 106.752 201.431 106.438 201.177 106.199C200.924 105.957 200.597 105.836 200.197 105.836C199.922 105.836 199.666 105.909 199.427 106.055C199.191 106.202 199 106.405 198.854 106.664C198.71 106.921 198.639 107.218 198.639 107.555V111.853H197.582ZM212.767 114.432C212.588 114.432 212.428 114.417 212.288 114.388C212.147 114.361 212.05 114.334 211.997 114.307L212.265 113.376C212.522 113.441 212.749 113.465 212.946 113.447C213.143 113.429 213.317 113.341 213.47 113.183C213.625 113.028 213.767 112.776 213.895 112.427L214.092 111.889L211.549 104.976H212.695L214.593 110.457H214.665L216.563 104.976H217.71L214.79 112.856C214.659 113.212 214.496 113.506 214.302 113.738C214.108 113.974 213.883 114.149 213.626 114.262C213.373 114.376 213.086 114.432 212.767 114.432ZM221.652 111.997C221.031 111.997 220.486 111.849 220.018 111.553C219.552 111.258 219.188 110.845 218.925 110.313C218.665 109.782 218.536 109.161 218.536 108.451C218.536 107.734 218.665 107.109 218.925 106.575C219.188 106.041 219.552 105.626 220.018 105.33C220.486 105.035 221.031 104.887 221.652 104.887C222.273 104.887 222.816 105.035 223.282 105.33C223.75 105.626 224.114 106.041 224.374 106.575C224.637 107.109 224.768 107.734 224.768 108.451C224.768 109.161 224.637 109.782 224.374 110.313C224.114 110.845 223.75 111.258 223.282 111.553C222.816 111.849 222.273 111.997 221.652 111.997ZM221.652 111.048C222.123 111.048 222.511 110.927 222.816 110.685C223.12 110.443 223.346 110.125 223.492 109.731C223.638 109.337 223.711 108.91 223.711 108.451C223.711 107.991 223.638 107.563 223.492 107.166C223.346 106.769 223.12 106.448 222.816 106.203C222.511 105.958 222.123 105.836 221.652 105.836C221.18 105.836 220.792 105.958 220.488 106.203C220.183 106.448 219.958 106.769 219.812 107.166C219.665 107.563 219.592 107.991 219.592 108.451C219.592 108.91 219.665 109.337 219.812 109.731C219.958 110.125 220.183 110.443 220.488 110.685C220.792 110.927 221.18 111.048 221.652 111.048ZM230.715 109.042V104.976H231.771V111.853H230.715V110.689H230.643C230.482 111.039 230.231 111.336 229.891 111.58C229.551 111.822 229.121 111.943 228.602 111.943C228.172 111.943 227.79 111.849 227.455 111.661C227.121 111.47 226.858 111.183 226.667 110.801C226.476 110.416 226.381 109.931 226.381 109.346V104.976H227.437V109.275C227.437 109.776 227.578 110.176 227.858 110.474C228.142 110.773 228.503 110.922 228.942 110.922C229.205 110.922 229.472 110.855 229.743 110.721C230.018 110.586 230.248 110.38 230.433 110.103C230.621 109.825 230.715 109.472 230.715 109.042ZM235.104 102.684L235.014 109.275H233.975L233.886 102.684H235.104ZM234.495 111.925C234.274 111.925 234.084 111.846 233.926 111.688C233.768 111.53 233.689 111.34 233.689 111.119C233.689 110.898 233.768 110.709 233.926 110.551C234.084 110.392 234.274 110.313 234.495 110.313C234.716 110.313 234.905 110.392 235.063 110.551C235.222 110.709 235.301 110.898 235.301 111.119C235.301 111.265 235.263 111.4 235.189 111.522C235.117 111.645 235.02 111.743 234.898 111.818C234.778 111.889 234.644 111.925 234.495 111.925Z" fill="#575656"/>
<path d="M54.9752 129.461L60.0802 138.165L69.9934 140.297L63.2352 147.808L64.257 157.829L54.9752 153.767L45.6935 157.829L46.7152 147.808L39.957 140.297L49.8703 138.165L54.9752 129.461Z" fill="#FFCB45"/>
<path d="M103.922 129.461L109.027 138.165L118.941 140.297L112.182 147.808L113.204 157.829L103.922 153.767L94.6407 157.829L95.6625 147.808L88.9043 140.297L98.8175 138.165L103.922 129.461Z" fill="#FFCB45"/>
<path d="M152.872 129.461L157.977 138.165L167.89 140.297L161.132 147.808L162.153 157.829L152.872 153.767L143.59 157.829L144.612 147.808L137.854 140.297L147.767 138.165L152.872 129.461Z" fill="#FFCB45"/>
<path d="M201.819 129.461L206.924 138.165L216.837 140.297L210.079 147.808L211.101 157.829L201.819 153.767L192.537 157.829L193.559 147.808L186.801 140.297L196.714 138.165L201.819 129.461Z" fill="#F2F2F2"/>
<path d="M192.535 157.829L201.817 153.767V129.461L196.712 138.165L186.799 140.297L193.557 147.808L192.535 157.829Z" fill="#FFCB45"/>
<path d="M250.764 129.461L255.869 138.165L265.782 140.297L259.024 147.808L260.046 157.829L250.764 153.767L241.483 157.829L242.504 147.808L235.746 140.297L245.659 138.165L250.764 129.461Z" fill="#F2F2F2"/>
<path d="M20.2399 171.262L22.6218 178.016H22.7158L25.0977 171.262H26.1162L23.1702 179.285H22.1673L19.2213 171.262H20.2399ZM29.2033 179.41C28.6235 179.41 28.1233 179.282 27.7028 179.026C27.285 178.768 26.9624 178.407 26.7352 177.945C26.5106 177.48 26.3983 176.94 26.3983 176.323C26.3983 175.707 26.5106 175.164 26.7352 174.694C26.9624 174.221 27.2784 173.853 27.6833 173.589C28.0907 173.322 28.566 173.189 29.1093 173.189C29.4227 173.189 29.7321 173.241 30.0377 173.346C30.3433 173.45 30.6214 173.62 30.8722 173.855C31.1229 174.088 31.3227 174.396 31.4716 174.78C31.6204 175.164 31.6949 175.636 31.6949 176.198V176.59H27.0564V175.79H30.7546C30.7546 175.451 30.6867 175.148 30.5509 174.882C30.4177 174.615 30.2271 174.405 29.979 174.251C29.7335 174.097 29.4436 174.02 29.1093 174.02C28.741 174.02 28.4224 174.111 28.1534 174.294C27.887 174.474 27.682 174.709 27.5383 174.999C27.3947 175.289 27.3228 175.6 27.3228 175.931V176.464C27.3228 176.919 27.4012 177.304 27.5579 177.62C27.7172 177.933 27.9379 178.172 28.22 178.337C28.502 178.499 28.8298 178.58 29.2033 178.58C29.4462 178.58 29.6656 178.546 29.8614 178.478C30.0599 178.407 30.231 178.303 30.3746 178.164C30.5183 178.023 30.6293 177.848 30.7076 177.64L31.6008 177.89C31.5068 178.193 31.3488 178.46 31.1268 178.689C30.9048 178.917 30.6306 179.094 30.3041 179.222C29.9776 179.348 29.6107 179.41 29.2033 179.41ZM33.1013 179.285V173.268H33.9945V174.176H34.0571C34.1668 173.879 34.3653 173.637 34.6526 173.452C34.9399 173.266 35.2638 173.173 35.6242 173.173C35.6921 173.173 35.777 173.175 35.8788 173.177C35.9807 173.18 36.0577 173.184 36.11 173.189V174.129C36.0786 174.122 36.0068 174.11 35.8945 174.094C35.7848 174.076 35.6686 174.067 35.5458 174.067C35.2533 174.067 34.9921 174.128 34.7623 174.251C34.5351 174.371 34.3549 174.538 34.2217 174.752C34.0911 174.964 34.0258 175.205 34.0258 175.477V179.285H33.1013ZM37.9845 181.541C37.8278 181.541 37.6881 181.528 37.5653 181.502C37.4426 181.479 37.3577 181.455 37.3107 181.432L37.5457 180.617C37.7704 180.674 37.9688 180.695 38.1412 180.68C38.3136 180.664 38.4664 180.587 38.5996 180.448C38.7354 180.313 38.8594 180.092 38.9717 179.786L39.1441 179.316L36.9189 173.268H37.9218L39.5829 178.063H39.6456L41.3066 173.268H42.3095L39.7553 180.162C39.6403 180.473 39.498 180.73 39.3282 180.934C39.1585 181.141 38.9613 181.293 38.7367 181.393C38.5147 181.492 38.264 181.541 37.9845 181.541ZM50.4248 176.825V173.268H51.3493V179.285H50.4248V178.266H50.3621C50.2211 178.572 50.0017 178.832 49.7039 179.046C49.4062 179.257 49.0301 179.363 48.5757 179.363C48.1996 179.363 47.8653 179.281 47.5728 179.116C47.2803 178.949 47.0504 178.699 46.8833 178.364C46.7161 178.027 46.6326 177.603 46.6326 177.091V173.268H47.5571V177.028C47.5571 177.467 47.6799 177.817 47.9254 178.078C48.1735 178.339 48.4895 178.47 48.8734 178.47C49.1032 178.47 49.337 178.411 49.5747 178.294C49.8149 178.176 50.016 177.996 50.178 177.753C50.3425 177.51 50.4248 177.201 50.4248 176.825ZM53.9672 175.665V179.285H53.0427V173.268H53.9359V174.208H54.0142C54.1553 173.902 54.3694 173.657 54.6567 173.471C54.944 173.283 55.3149 173.189 55.7693 173.189C56.1767 173.189 56.5332 173.273 56.8388 173.44C57.1444 173.604 57.3821 173.855 57.5518 174.192C57.7216 174.526 57.8065 174.949 57.8065 175.461V179.285H56.8819V175.524C56.8819 175.051 56.7592 174.683 56.5137 174.419C56.2682 174.153 55.9312 174.02 55.5029 174.02C55.2078 174.02 54.944 174.084 54.7116 174.212C54.4817 174.34 54.3002 174.526 54.167 174.772C54.0338 175.017 53.9672 175.315 53.9672 175.665ZM63.7582 174.615L62.9277 174.85C62.8755 174.712 62.7984 174.577 62.6966 174.447C62.5973 174.314 62.4615 174.204 62.2891 174.118C62.1168 174.031 61.8961 173.988 61.6271 173.988C61.2588 173.988 60.9519 174.073 60.7064 174.243C60.4635 174.41 60.3421 174.623 60.3421 174.882C60.3421 175.111 60.4257 175.293 60.5928 175.426C60.76 175.559 61.0211 175.67 61.3763 175.759L62.2695 175.978C62.8076 176.109 63.2085 176.309 63.4722 176.578C63.736 176.844 63.8679 177.188 63.8679 177.608C63.8679 177.953 63.7687 178.261 63.5702 178.533C63.3743 178.804 63.1001 179.019 62.7475 179.175C62.3949 179.332 61.9849 179.41 61.5174 179.41C60.9036 179.41 60.3956 179.277 59.9934 179.011C59.5912 178.744 59.3366 178.355 59.2295 177.843L60.107 177.624C60.1906 177.948 60.3486 178.191 60.5811 178.353C60.8161 178.514 61.123 178.595 61.5017 178.595C61.9326 178.595 62.2748 178.504 62.5281 178.321C62.7841 178.136 62.912 177.914 62.912 177.655C62.912 177.446 62.8389 177.271 62.6926 177.13C62.5464 176.987 62.3218 176.88 62.0188 176.809L61.0159 176.574C60.4649 176.443 60.06 176.241 59.8015 175.967C59.5455 175.69 59.4176 175.344 59.4176 174.929C59.4176 174.589 59.5129 174.289 59.7035 174.028C59.8968 173.766 60.1593 173.561 60.491 173.412C60.8253 173.264 61.204 173.189 61.6271 173.189C62.2225 173.189 62.69 173.32 63.0296 173.581C63.3717 173.842 63.6146 174.187 63.7582 174.615ZM67.0304 179.426C66.6491 179.426 66.303 179.354 65.9922 179.21C65.6814 179.064 65.4346 178.854 65.2518 178.58C65.069 178.303 64.9776 177.969 64.9776 177.577C64.9776 177.232 65.0455 176.953 65.1813 176.738C65.3171 176.522 65.4986 176.352 65.7258 176.229C65.953 176.106 66.2038 176.015 66.478 175.955C66.7548 175.892 67.033 175.843 67.3124 175.806C67.6781 175.759 67.9745 175.724 68.2017 175.7C68.4316 175.674 68.5987 175.631 68.7032 175.571C68.8103 175.511 68.8638 175.407 68.8638 175.258V175.226C68.8638 174.84 68.758 174.539 68.5465 174.325C68.3375 174.111 68.0202 174.004 67.5945 174.004C67.1531 174.004 66.8071 174.101 66.5564 174.294C66.3056 174.487 66.1293 174.694 66.0275 174.913L65.1499 174.599C65.3066 174.234 65.5156 173.949 65.7768 173.745C66.0405 173.539 66.3278 173.395 66.6386 173.315C66.952 173.231 67.2602 173.189 67.5632 173.189C67.7564 173.189 67.9784 173.213 68.2292 173.26C68.4825 173.304 68.7267 173.397 68.9617 173.538C69.1994 173.679 69.3966 173.892 69.5533 174.176C69.71 174.461 69.7884 174.842 69.7884 175.32V179.285H68.8638V178.47H68.8168C68.7541 178.601 68.6496 178.74 68.5034 178.889C68.3571 179.038 68.1626 179.165 67.9197 179.269C67.6768 179.374 67.3803 179.426 67.0304 179.426ZM67.1714 178.595C67.5371 178.595 67.8452 178.524 68.096 178.38C68.3493 178.236 68.54 178.051 68.6679 177.824C68.7985 177.596 68.8638 177.357 68.8638 177.107V176.261C68.8246 176.308 68.7384 176.351 68.6052 176.39C68.4747 176.426 68.3232 176.459 68.1508 176.488C67.981 176.514 67.8152 176.537 67.6533 176.558C67.494 176.577 67.3647 176.592 67.2654 176.605C67.0252 176.637 66.8005 176.688 66.5916 176.758C66.3853 176.826 66.2181 176.929 66.0902 177.068C65.9648 177.203 65.9021 177.389 65.9021 177.624C65.9021 177.945 66.021 178.188 66.2586 178.353C66.4989 178.514 66.8032 178.595 67.1714 178.595ZM74.0928 173.268V174.051H70.9744V173.268H74.0928ZM71.8833 171.826H72.8078V177.561C72.8078 177.822 72.8457 178.018 72.9214 178.149C72.9998 178.277 73.099 178.363 73.2192 178.407C73.3419 178.449 73.4712 178.47 73.607 178.47C73.7089 178.47 73.7924 178.465 73.8577 178.454C73.923 178.441 73.9753 178.431 74.0144 178.423L74.2025 179.254C74.1398 179.277 74.0523 179.301 73.94 179.324C73.8277 179.35 73.6854 179.363 73.513 179.363C73.2518 179.363 72.9959 179.307 72.7451 179.195C72.497 179.083 72.2907 178.911 72.1262 178.682C71.9642 178.452 71.8833 178.162 71.8833 177.812V171.826ZM75.4835 179.285V173.268H76.4081V179.285H75.4835ZM75.9536 172.265C75.7734 172.265 75.618 172.203 75.4874 172.08C75.3595 171.958 75.2955 171.81 75.2955 171.638C75.2955 171.465 75.3595 171.318 75.4874 171.195C75.618 171.072 75.7734 171.011 75.9536 171.011C76.1338 171.011 76.2879 171.072 76.4159 171.195C76.5465 171.318 76.6118 171.465 76.6118 171.638C76.6118 171.81 76.5465 171.958 76.4159 172.08C76.2879 172.203 76.1338 172.265 75.9536 172.265ZM82.3638 174.615L81.5332 174.85C81.481 174.712 81.404 174.577 81.3021 174.447C81.2029 174.314 81.067 174.204 80.8947 174.118C80.7223 174.031 80.5016 173.988 80.2326 173.988C79.8643 173.988 79.5575 174.073 79.312 174.243C79.0691 174.41 78.9476 174.623 78.9476 174.882C78.9476 175.111 79.0312 175.293 79.1984 175.426C79.3655 175.559 79.6267 175.67 79.9819 175.759L80.8751 175.978C81.4131 176.109 81.814 176.309 82.0778 176.578C82.3416 176.844 82.4735 177.188 82.4735 177.608C82.4735 177.953 82.3742 178.261 82.1757 178.533C81.9798 178.804 81.7056 179.019 81.353 179.175C81.0004 179.332 80.5904 179.41 80.1229 179.41C79.5092 179.41 79.0012 179.277 78.599 179.011C78.1968 178.744 77.9421 178.355 77.835 177.843L78.7126 177.624C78.7962 177.948 78.9542 178.191 79.1866 178.353C79.4217 178.514 79.7285 178.595 80.1072 178.595C80.5382 178.595 80.8803 178.504 81.1336 178.321C81.3896 178.136 81.5176 177.914 81.5176 177.655C81.5176 177.446 81.4444 177.271 81.2982 177.13C81.1519 176.987 80.9273 176.88 80.6244 176.809L79.6215 176.574C79.0704 176.443 78.6656 176.241 78.407 175.967C78.1511 175.69 78.0231 175.344 78.0231 174.929C78.0231 174.589 78.1184 174.289 78.3091 174.028C78.5023 173.766 78.7648 173.561 79.0965 173.412C79.4308 173.264 79.8095 173.189 80.2326 173.189C80.8281 173.189 81.2956 173.32 81.6351 173.581C81.9772 173.842 82.2201 174.187 82.3638 174.615ZM86.5448 173.268V174.051H83.301V173.268H86.5448ZM84.2726 179.285V172.437C84.2726 172.092 84.3536 171.805 84.5155 171.575C84.6774 171.345 84.8877 171.173 85.1462 171.058C85.4048 170.943 85.6777 170.886 85.965 170.886C86.1922 170.886 86.3776 170.904 86.5213 170.94C86.6649 170.977 86.772 171.011 86.8425 171.042L86.5761 171.842C86.5291 171.826 86.4638 171.806 86.3803 171.783C86.2993 171.759 86.1922 171.748 86.059 171.748C85.7534 171.748 85.5328 171.825 85.3969 171.979C85.2638 172.133 85.1972 172.359 85.1972 172.656V179.285H84.2726ZM87.8405 179.285V173.268H88.7651V179.285H87.8405ZM88.3106 172.265C88.1304 172.265 87.975 172.203 87.8445 172.08C87.7165 171.958 87.6525 171.81 87.6525 171.638C87.6525 171.465 87.7165 171.318 87.8445 171.195C87.975 171.072 88.1304 171.011 88.3106 171.011C88.4909 171.011 88.6449 171.072 88.7729 171.195C88.9035 171.318 88.9688 171.465 88.9688 171.638C88.9688 171.81 88.9035 171.958 88.7729 172.08C88.6449 172.203 88.4909 172.265 88.3106 172.265ZM92.9814 179.41C92.4016 179.41 91.9014 179.282 91.4809 179.026C91.0631 178.768 90.7405 178.407 90.5133 177.945C90.2887 177.48 90.1764 176.94 90.1764 176.323C90.1764 175.707 90.2887 175.164 90.5133 174.694C90.7405 174.221 91.0565 173.853 91.4613 173.589C91.8688 173.322 92.3441 173.189 92.8873 173.189C93.2007 173.189 93.5102 173.241 93.8158 173.346C94.1214 173.45 94.3995 173.62 94.6502 173.855C94.901 174.088 95.1008 174.396 95.2496 174.78C95.3985 175.164 95.4729 175.636 95.4729 176.198V176.59H90.8345V175.79H94.5327C94.5327 175.451 94.4648 175.148 94.329 174.882C94.1958 174.615 94.0051 174.405 93.757 174.251C93.5115 174.097 93.2216 174.02 92.8873 174.02C92.5191 174.02 92.2005 174.111 91.9314 174.294C91.6651 174.474 91.46 174.709 91.3164 174.999C91.1727 175.289 91.1009 175.6 91.1009 175.931V176.464C91.1009 176.919 91.1793 177.304 91.336 177.62C91.4953 177.933 91.716 178.172 91.998 178.337C92.2801 178.499 92.6079 178.58 92.9814 178.58C93.2242 178.58 93.4436 178.546 93.6395 178.478C93.838 178.407 94.0091 178.303 94.1527 178.164C94.2964 178.023 94.4074 177.848 94.4857 177.64L95.3789 177.89C95.2849 178.193 95.1269 178.46 94.9049 178.689C94.6829 178.917 94.4087 179.094 94.0822 179.222C93.7557 179.348 93.3888 179.41 92.9814 179.41ZM99.1515 179.41C98.6501 179.41 98.2074 179.284 97.8235 179.03C97.4396 178.774 97.1392 178.414 96.9224 177.949C96.7057 177.482 96.5973 176.929 96.5973 176.292C96.5973 175.66 96.7057 175.111 96.9224 174.647C97.1392 174.182 97.4409 173.823 97.8274 173.569C98.2139 173.316 98.6605 173.189 99.1672 173.189C99.559 173.189 99.8685 173.254 100.096 173.385C100.326 173.513 100.5 173.659 100.621 173.824C100.743 173.986 100.839 174.119 100.907 174.223H100.985V171.262H101.91V179.285H101.016V178.36H100.907C100.839 178.47 100.742 178.608 100.617 178.776C100.491 178.94 100.312 179.088 100.08 179.218C99.8476 179.346 99.5381 179.41 99.1515 179.41ZM99.2769 178.58C99.6478 178.58 99.9612 178.483 100.217 178.29C100.473 178.094 100.668 177.824 100.801 177.479C100.934 177.132 101.001 176.731 101.001 176.276C101.001 175.827 100.935 175.434 100.805 175.097C100.674 174.758 100.481 174.494 100.225 174.306C99.969 174.115 99.653 174.02 99.2769 174.02C98.8852 174.02 98.5587 174.12 98.2975 174.321C98.039 174.52 97.8444 174.79 97.7138 175.132C97.5858 175.472 97.5218 175.853 97.5218 176.276C97.5218 176.705 97.5871 177.094 97.7177 177.444C97.8509 177.791 98.0468 178.068 98.3053 178.274C98.5665 178.478 98.8904 178.58 99.2769 178.58Z" fill="#999999"/>
<path d="M217.355 171.262L219.737 178.016H219.831L222.213 171.262H223.231L220.285 179.285H219.283L216.337 171.262H217.355ZM226.319 179.41C225.739 179.41 225.239 179.282 224.818 179.026C224.4 178.768 224.078 178.407 223.85 177.945C223.626 177.48 223.514 176.94 223.514 176.323C223.514 175.707 223.626 175.164 223.85 174.694C224.078 174.221 224.394 173.853 224.799 173.589C225.206 173.322 225.681 173.189 226.225 173.189C226.538 173.189 226.847 173.241 227.153 173.346C227.459 173.45 227.737 173.62 227.987 173.855C228.238 174.088 228.438 174.396 228.587 174.78C228.736 175.164 228.81 175.636 228.81 176.198V176.59H224.172V175.79H227.87C227.87 175.451 227.802 175.148 227.666 174.882C227.533 174.615 227.342 174.405 227.094 174.251C226.849 174.097 226.559 174.02 226.225 174.02C225.856 174.02 225.538 174.111 225.269 174.294C225.002 174.474 224.797 174.709 224.654 174.999C224.51 175.289 224.438 175.6 224.438 175.931V176.464C224.438 176.919 224.516 177.304 224.673 177.62C224.832 177.933 225.053 178.172 225.335 178.337C225.617 178.499 225.945 178.58 226.319 178.58C226.561 178.58 226.781 178.546 226.977 178.478C227.175 178.407 227.346 178.303 227.49 178.164C227.634 178.023 227.745 177.848 227.823 177.64L228.716 177.89C228.622 178.193 228.464 178.46 228.242 178.689C228.02 178.917 227.746 179.094 227.419 179.222C227.093 179.348 226.726 179.41 226.319 179.41ZM230.217 179.285V173.268H231.11V174.176H231.172C231.282 173.879 231.481 173.637 231.768 173.452C232.055 173.266 232.379 173.173 232.739 173.173C232.807 173.173 232.892 173.175 232.994 173.177C233.096 173.18 233.173 173.184 233.225 173.189V174.129C233.194 174.122 233.122 174.11 233.01 174.094C232.9 174.076 232.784 174.067 232.661 174.067C232.369 174.067 232.107 174.128 231.878 174.251C231.65 174.371 231.47 174.538 231.337 174.752C231.206 174.964 231.141 175.205 231.141 175.477V179.285H230.217ZM235.1 181.541C234.943 181.541 234.803 181.528 234.681 181.502C234.558 181.479 234.473 181.455 234.426 181.432L234.661 180.617C234.886 180.674 235.084 180.695 235.256 180.68C235.429 180.664 235.582 180.587 235.715 180.448C235.851 180.313 235.975 180.092 236.087 179.786L236.259 179.316L234.034 173.268H235.037L236.698 178.063H236.761L238.422 173.268H239.425L236.871 180.162C236.756 180.473 236.613 180.73 236.444 180.934C236.274 181.141 236.077 181.293 235.852 181.393C235.63 181.492 235.379 181.541 235.1 181.541ZM248.01 174.615L247.18 174.85C247.127 174.712 247.05 174.577 246.948 174.447C246.849 174.314 246.713 174.204 246.541 174.118C246.369 174.031 246.148 173.988 245.879 173.988C245.511 173.988 245.204 174.073 244.958 174.243C244.715 174.41 244.594 174.623 244.594 174.882C244.594 175.111 244.678 175.293 244.845 175.426C245.012 175.559 245.273 175.67 245.628 175.759L246.521 175.978C247.059 176.109 247.46 176.309 247.724 176.578C247.988 176.844 248.12 177.188 248.12 177.608C248.12 177.953 248.021 178.261 247.822 178.533C247.626 178.804 247.352 179.019 246.999 179.175C246.647 179.332 246.237 179.41 245.769 179.41C245.156 179.41 244.648 179.277 244.245 179.011C243.843 178.744 243.589 178.355 243.481 177.843L244.359 177.624C244.443 177.948 244.601 178.191 244.833 178.353C245.068 178.514 245.375 178.595 245.754 178.595C246.185 178.595 246.527 178.504 246.78 178.321C247.036 178.136 247.164 177.914 247.164 177.655C247.164 177.446 247.091 177.271 246.945 177.13C246.798 176.987 246.574 176.88 246.271 176.809L245.268 176.574C244.717 176.443 244.312 176.241 244.053 175.967C243.797 175.69 243.669 175.344 243.669 174.929C243.669 174.589 243.765 174.289 243.955 174.028C244.149 173.766 244.411 173.561 244.743 173.412C245.077 173.264 245.456 173.189 245.879 173.189C246.474 173.189 246.942 173.32 247.281 173.581C247.624 173.842 247.867 174.187 248.01 174.615ZM251.282 179.426C250.901 179.426 250.555 179.354 250.244 179.21C249.933 179.064 249.687 178.854 249.504 178.58C249.321 178.303 249.229 177.969 249.229 177.577C249.229 177.232 249.297 176.953 249.433 176.738C249.569 176.522 249.751 176.352 249.978 176.229C250.205 176.106 250.456 176.015 250.73 175.955C251.007 175.892 251.285 175.843 251.564 175.806C251.93 175.759 252.226 175.724 252.454 175.7C252.683 175.674 252.851 175.631 252.955 175.571C253.062 175.511 253.116 175.407 253.116 175.258V175.226C253.116 174.84 253.01 174.539 252.798 174.325C252.589 174.111 252.272 174.004 251.846 174.004C251.405 174.004 251.059 174.101 250.808 174.294C250.558 174.487 250.381 174.694 250.279 174.913L249.402 174.599C249.559 174.234 249.768 173.949 250.029 173.745C250.292 173.539 250.58 173.395 250.891 173.315C251.204 173.231 251.512 173.189 251.815 173.189C252.008 173.189 252.23 173.213 252.481 173.26C252.734 173.304 252.979 173.397 253.214 173.538C253.451 173.679 253.649 173.892 253.805 174.176C253.962 174.461 254.04 174.842 254.04 175.32V179.285H253.116V178.47H253.069C253.006 178.601 252.902 178.74 252.755 178.889C252.609 179.038 252.414 179.165 252.172 179.269C251.929 179.374 251.632 179.426 251.282 179.426ZM251.423 178.595C251.789 178.595 252.097 178.524 252.348 178.38C252.601 178.236 252.792 178.051 252.92 177.824C253.05 177.596 253.116 177.357 253.116 177.107V176.261C253.077 176.308 252.99 176.351 252.857 176.39C252.727 176.426 252.575 176.459 252.403 176.488C252.233 176.514 252.067 176.537 251.905 176.558C251.746 176.577 251.617 176.592 251.517 176.605C251.277 176.637 251.052 176.688 250.844 176.758C250.637 176.826 250.47 176.929 250.342 177.068C250.217 177.203 250.154 177.389 250.154 177.624C250.154 177.945 250.273 178.188 250.511 178.353C250.751 178.514 251.055 178.595 251.423 178.595ZM258.345 173.268V174.051H255.226V173.268H258.345ZM256.135 171.826H257.06V177.561C257.06 177.822 257.098 178.018 257.173 178.149C257.252 178.277 257.351 178.363 257.471 178.407C257.594 178.449 257.723 178.47 257.859 178.47C257.961 178.47 258.044 178.465 258.11 178.454C258.175 178.441 258.227 178.431 258.266 178.423L258.454 179.254C258.392 179.277 258.304 179.301 258.192 179.324C258.08 179.35 257.937 179.363 257.765 179.363C257.504 179.363 257.248 179.307 256.997 179.195C256.749 179.083 256.543 178.911 256.378 178.682C256.216 178.452 256.135 178.162 256.135 177.812V171.826ZM259.735 179.285V173.268H260.66V179.285H259.735ZM260.206 172.265C260.025 172.265 259.87 172.203 259.739 172.08C259.611 171.958 259.547 171.81 259.547 171.638C259.547 171.465 259.611 171.318 259.739 171.195C259.87 171.072 260.025 171.011 260.206 171.011C260.386 171.011 260.54 171.072 260.668 171.195C260.798 171.318 260.864 171.465 260.864 171.638C260.864 171.81 260.798 171.958 260.668 172.08C260.54 172.203 260.386 172.265 260.206 172.265ZM266.616 174.615L265.785 174.85C265.733 174.712 265.656 174.577 265.554 174.447C265.455 174.314 265.319 174.204 265.147 174.118C264.974 174.031 264.754 173.988 264.485 173.988C264.116 173.988 263.809 174.073 263.564 174.243C263.321 174.41 263.2 174.623 263.2 174.882C263.2 175.111 263.283 175.293 263.45 175.426C263.617 175.559 263.879 175.67 264.234 175.759L265.127 175.978C265.665 176.109 266.066 176.309 266.33 176.578C266.593 176.844 266.725 177.188 266.725 177.608C266.725 177.953 266.626 178.261 266.428 178.533C266.232 178.804 265.958 179.019 265.605 179.175C265.252 179.332 264.842 179.41 264.375 179.41C263.761 179.41 263.253 179.277 262.851 179.011C262.449 178.744 262.194 178.355 262.087 177.843L262.965 177.624C263.048 177.948 263.206 178.191 263.439 178.353C263.674 178.514 263.98 178.595 264.359 178.595C264.79 178.595 265.132 178.504 265.386 178.321C265.642 178.136 265.769 177.914 265.769 177.655C265.769 177.446 265.696 177.271 265.55 177.13C265.404 176.987 265.179 176.88 264.876 176.809L263.873 176.574C263.322 176.443 262.917 176.241 262.659 175.967C262.403 175.69 262.275 175.344 262.275 174.929C262.275 174.589 262.37 174.289 262.561 174.028C262.754 173.766 263.017 173.561 263.348 173.412C263.683 173.264 264.061 173.189 264.485 173.189C265.08 173.189 265.547 173.32 265.887 173.581C266.229 173.842 266.472 174.187 266.616 174.615ZM270.797 173.268V174.051H267.553V173.268H270.797ZM268.525 179.285V172.437C268.525 172.092 268.605 171.805 268.767 171.575C268.929 171.345 269.14 171.173 269.398 171.058C269.657 170.943 269.93 170.886 270.217 170.886C270.444 170.886 270.63 170.904 270.773 170.94C270.917 170.977 271.024 171.011 271.094 171.042L270.828 171.842C270.781 171.826 270.716 171.806 270.632 171.783C270.551 171.759 270.444 171.748 270.311 171.748C270.005 171.748 269.785 171.825 269.649 171.979C269.516 172.133 269.449 172.359 269.449 172.656V179.285H268.525ZM272.092 179.285V173.268H273.017V179.285H272.092ZM272.563 172.265C272.382 172.265 272.227 172.203 272.096 172.08C271.968 171.958 271.904 171.81 271.904 171.638C271.904 171.465 271.968 171.318 272.096 171.195C272.227 171.072 272.382 171.011 272.563 171.011C272.743 171.011 272.897 171.072 273.025 171.195C273.155 171.318 273.221 171.465 273.221 171.638C273.221 171.81 273.155 171.958 273.025 172.08C272.897 172.203 272.743 172.265 272.563 172.265ZM277.233 179.41C276.653 179.41 276.153 179.282 275.733 179.026C275.315 178.768 274.992 178.407 274.765 177.945C274.541 177.48 274.428 176.94 274.428 176.323C274.428 175.707 274.541 175.164 274.765 174.694C274.992 174.221 275.308 173.853 275.713 173.589C276.121 173.322 276.596 173.189 277.139 173.189C277.453 173.189 277.762 173.241 278.068 173.346C278.373 173.45 278.651 173.62 278.902 173.855C279.153 174.088 279.353 174.396 279.502 174.78C279.65 175.164 279.725 175.636 279.725 176.198V176.59H275.086V175.79H278.785C278.785 175.451 278.717 175.148 278.581 174.882C278.448 174.615 278.257 174.405 278.009 174.251C277.763 174.097 277.474 174.02 277.139 174.02C276.771 174.02 276.452 174.111 276.183 174.294C275.917 174.474 275.712 174.709 275.568 174.999C275.425 175.289 275.353 175.6 275.353 175.931V176.464C275.353 176.919 275.431 177.304 275.588 177.62C275.747 177.933 275.968 178.172 276.25 178.337C276.532 178.499 276.86 178.58 277.233 178.58C277.476 178.58 277.696 178.546 277.891 178.478C278.09 178.407 278.261 178.303 278.405 178.164C278.548 178.023 278.659 177.848 278.738 177.64L279.631 177.89C279.537 178.193 279.379 178.46 279.157 178.689C278.935 178.917 278.661 179.094 278.334 179.222C278.008 179.348 277.641 179.41 277.233 179.41ZM283.403 179.41C282.902 179.41 282.459 179.284 282.075 179.03C281.691 178.774 281.391 178.414 281.174 177.949C280.958 177.482 280.849 176.929 280.849 176.292C280.849 175.66 280.958 175.111 281.174 174.647C281.391 174.182 281.693 173.823 282.079 173.569C282.466 173.316 282.912 173.189 283.419 173.189C283.811 173.189 284.12 173.254 284.348 173.385C284.577 173.513 284.752 173.659 284.873 173.824C284.995 173.986 285.091 174.119 285.159 174.223H285.237V171.262H286.161V179.285H285.268V178.36H285.159C285.091 178.47 284.994 178.608 284.869 178.776C284.743 178.94 284.564 179.088 284.332 179.218C284.099 179.346 283.79 179.41 283.403 179.41ZM283.529 178.58C283.9 178.58 284.213 178.483 284.469 178.29C284.725 178.094 284.92 177.824 285.053 177.479C285.186 177.132 285.253 176.731 285.253 176.276C285.253 175.827 285.187 175.434 285.057 175.097C284.926 174.758 284.733 174.494 284.477 174.306C284.221 174.115 283.905 174.02 283.529 174.02C283.137 174.02 282.811 174.12 282.549 174.321C282.291 174.52 282.096 174.79 281.966 175.132C281.838 175.472 281.774 175.853 281.774 176.276C281.774 176.705 281.839 177.094 281.97 177.444C282.103 177.791 282.299 178.068 282.557 178.274C282.818 178.478 283.142 178.58 283.529 178.58Z" fill="#999999"/>
<path d="M92.1324 214.197V206.174H94.8434C95.4728 206.174 95.9873 206.287 96.3869 206.514C96.7891 206.739 97.0869 207.043 97.2801 207.427C97.4734 207.811 97.57 208.239 97.57 208.712C97.57 209.185 97.4734 209.614 97.2801 210.001C97.0895 210.388 96.7944 210.696 96.3948 210.926C95.9952 211.153 95.4833 211.266 94.8591 211.266H92.916V210.405H94.8277C95.2587 210.405 95.6047 210.33 95.8659 210.181C96.1271 210.032 96.3164 209.831 96.4339 209.578C96.5541 209.322 96.6141 209.033 96.6141 208.712C96.6141 208.391 96.5541 208.104 96.4339 207.85C96.3164 207.597 96.1258 207.398 95.862 207.255C95.5982 207.109 95.2482 207.035 94.8121 207.035H93.104V214.197H92.1324ZM101.39 214.322C100.846 214.322 100.37 214.193 99.9598 213.934C99.5523 213.676 99.2337 213.314 99.0039 212.849C98.7766 212.384 98.663 211.841 98.663 211.219C98.663 210.593 98.7766 210.045 99.0039 209.578C99.2337 209.11 99.5523 208.747 99.9598 208.489C100.37 208.23 100.846 208.101 101.39 208.101C101.933 208.101 102.408 208.23 102.816 208.489C103.226 208.747 103.544 209.11 103.772 209.578C104.001 210.045 104.116 210.593 104.116 211.219C104.116 211.841 104.001 212.384 103.772 212.849C103.544 213.314 103.226 213.676 102.816 213.934C102.408 214.193 101.933 214.322 101.39 214.322ZM101.39 213.492C101.802 213.492 102.142 213.386 102.408 213.174C102.675 212.963 102.872 212.685 103 212.34C103.128 211.995 103.192 211.622 103.192 211.219C103.192 210.817 103.128 210.442 103 210.095C102.872 209.748 102.675 209.467 102.408 209.253C102.142 209.039 101.802 208.931 101.39 208.931C100.977 208.931 100.637 209.039 100.371 209.253C100.105 209.467 99.9075 209.748 99.7795 210.095C99.6516 210.442 99.5876 210.817 99.5876 211.219C99.5876 211.622 99.6516 211.995 99.7795 212.34C99.9075 212.685 100.105 212.963 100.371 213.174C100.637 213.386 100.977 213.492 101.39 213.492ZM106.686 214.197L104.853 208.179H105.824L107.125 212.786H107.188L108.473 208.179H109.46L110.729 212.771H110.792L112.092 208.179H113.064L111.231 214.197H110.322L109.005 209.574H108.911L107.595 214.197H106.686ZM116.605 214.322C116.025 214.322 115.525 214.194 115.104 213.938C114.686 213.68 114.364 213.319 114.136 212.857C113.912 212.392 113.8 211.851 113.8 211.235C113.8 210.619 113.912 210.075 114.136 209.605C114.364 209.133 114.68 208.764 115.085 208.501C115.492 208.234 115.967 208.101 116.511 208.101C116.824 208.101 117.133 208.153 117.439 208.258C117.745 208.362 118.023 208.532 118.273 208.767C118.524 208.999 118.724 209.308 118.873 209.692C119.022 210.075 119.096 210.548 119.096 211.11V211.501H114.458V210.702H118.156C118.156 210.363 118.088 210.06 117.952 209.793C117.819 209.527 117.628 209.317 117.38 209.163C117.135 209.009 116.845 208.931 116.511 208.931C116.142 208.931 115.824 209.023 115.555 209.206C115.288 209.386 115.083 209.621 114.94 209.911C114.796 210.201 114.724 210.512 114.724 210.843V211.376C114.724 211.831 114.802 212.216 114.959 212.532C115.118 212.845 115.339 213.084 115.621 213.249C115.903 213.411 116.231 213.492 116.605 213.492C116.847 213.492 117.067 213.458 117.263 213.39C117.461 213.319 117.632 213.215 117.776 213.076C117.92 212.935 118.031 212.76 118.109 212.551L119.002 212.802C118.908 213.105 118.75 213.371 118.528 213.601C118.306 213.828 118.032 214.006 117.705 214.134C117.379 214.259 117.012 214.322 116.605 214.322ZM120.503 214.197V208.179H121.396V209.088H121.458C121.568 208.79 121.767 208.549 122.054 208.363C122.341 208.178 122.665 208.085 123.025 208.085C123.093 208.085 123.178 208.087 123.28 208.089C123.382 208.092 123.459 208.096 123.511 208.101V209.041C123.48 209.033 123.408 209.022 123.296 209.006C123.186 208.988 123.07 208.979 122.947 208.979C122.655 208.979 122.393 209.04 122.164 209.163C121.936 209.283 121.756 209.45 121.623 209.664C121.492 209.876 121.427 210.117 121.427 210.389V214.197H120.503ZM126.947 214.322C126.367 214.322 125.867 214.194 125.447 213.938C125.029 213.68 124.706 213.319 124.479 212.857C124.254 212.392 124.142 211.851 124.142 211.235C124.142 210.619 124.254 210.075 124.479 209.605C124.706 209.133 125.022 208.764 125.427 208.501C125.834 208.234 126.31 208.101 126.853 208.101C127.166 208.101 127.476 208.153 127.781 208.258C128.087 208.362 128.365 208.532 128.616 208.767C128.867 208.999 129.066 209.308 129.215 209.692C129.364 210.075 129.439 210.548 129.439 211.11V211.501H124.8V210.702H128.498C128.498 210.363 128.43 210.06 128.295 209.793C128.161 209.527 127.971 209.317 127.723 209.163C127.477 209.009 127.187 208.931 126.853 208.931C126.485 208.931 126.166 209.023 125.897 209.206C125.631 209.386 125.426 209.621 125.282 209.911C125.138 210.201 125.066 210.512 125.066 210.843V211.376C125.066 211.831 125.145 212.216 125.302 212.532C125.461 212.845 125.682 213.084 125.964 213.249C126.246 213.411 126.573 213.492 126.947 213.492C127.19 213.492 127.409 213.458 127.605 213.39C127.804 213.319 127.975 213.215 128.118 213.076C128.262 212.935 128.373 212.76 128.451 212.551L129.344 212.802C129.25 213.105 129.092 213.371 128.87 213.601C128.648 213.828 128.374 214.006 128.048 214.134C127.721 214.259 127.354 214.322 126.947 214.322ZM133.117 214.322C132.616 214.322 132.173 214.195 131.789 213.942C131.405 213.686 131.105 213.326 130.888 212.861C130.671 212.393 130.563 211.841 130.563 211.204C130.563 210.572 130.671 210.023 130.888 209.558C131.105 209.093 131.406 208.734 131.793 208.481C132.18 208.228 132.626 208.101 133.133 208.101C133.525 208.101 133.834 208.166 134.061 208.297C134.291 208.425 134.466 208.571 134.586 208.736C134.709 208.898 134.804 209.031 134.872 209.135H134.951V206.174H135.875V214.197H134.982V213.272H134.872C134.804 213.382 134.708 213.52 134.582 213.687C134.457 213.852 134.278 214 134.046 214.13C133.813 214.258 133.504 214.322 133.117 214.322ZM133.242 213.492C133.613 213.492 133.927 213.395 134.183 213.202C134.439 213.006 134.633 212.735 134.766 212.391C134.9 212.043 134.966 211.642 134.966 211.188C134.966 210.739 134.901 210.346 134.77 210.009C134.64 209.669 134.446 209.406 134.191 209.217C133.935 209.027 133.619 208.931 133.242 208.931C132.851 208.931 132.524 209.032 132.263 209.233C132.005 209.432 131.81 209.702 131.679 210.044C131.551 210.384 131.487 210.765 131.487 211.188C131.487 211.616 131.553 212.005 131.683 212.355C131.816 212.703 132.012 212.98 132.271 213.186C132.532 213.39 132.856 213.492 133.242 213.492ZM140.925 214.197V206.174H141.849V209.135H141.928C141.996 209.031 142.09 208.898 142.21 208.736C142.333 208.571 142.508 208.425 142.735 208.297C142.965 208.166 143.275 208.101 143.667 208.101C144.174 208.101 144.62 208.228 145.007 208.481C145.393 208.734 145.695 209.093 145.912 209.558C146.129 210.023 146.237 210.572 146.237 211.204C146.237 211.841 146.129 212.393 145.912 212.861C145.695 213.326 145.395 213.686 145.011 213.942C144.627 214.195 144.184 214.322 143.683 214.322C143.296 214.322 142.987 214.258 142.754 214.13C142.522 214 142.343 213.852 142.218 213.687C142.092 213.52 141.996 213.382 141.928 213.272H141.818V214.197H140.925ZM141.834 211.188C141.834 211.642 141.9 212.043 142.034 212.391C142.167 212.735 142.361 213.006 142.617 213.202C142.873 213.395 143.187 213.492 143.557 213.492C143.944 213.492 144.267 213.39 144.525 213.186C144.786 212.98 144.982 212.703 145.113 212.355C145.246 212.005 145.313 211.616 145.313 211.188C145.313 210.765 145.247 210.384 145.117 210.044C144.989 209.702 144.794 209.432 144.533 209.233C144.274 209.032 143.949 208.931 143.557 208.931C143.181 208.931 142.865 209.027 142.609 209.217C142.353 209.406 142.16 209.669 142.03 210.009C141.899 210.346 141.834 210.739 141.834 211.188ZM148.031 216.453C147.875 216.453 147.735 216.44 147.612 216.414C147.489 216.391 147.404 216.367 147.357 216.344L147.593 215.529C147.817 215.586 148.016 215.607 148.188 215.591C148.36 215.576 148.513 215.499 148.646 215.36C148.782 215.224 148.906 215.004 149.019 214.698L149.191 214.228L146.966 208.179H147.969L149.63 212.974H149.692L151.353 208.179H152.356L149.802 215.074C149.687 215.385 149.545 215.642 149.375 215.846C149.205 216.052 149.008 216.205 148.783 216.304C148.561 216.404 148.311 216.453 148.031 216.453Z" fill="#575656"/>
<path d="M156.621 214.197V208.179H157.792V214.197H156.621ZM157.212 207.251C157.008 207.251 156.833 207.183 156.687 207.047C156.544 206.909 156.472 206.744 156.472 206.554C156.472 206.36 156.544 206.196 156.687 206.06C156.833 205.921 157.008 205.852 157.212 205.852C157.416 205.852 157.59 205.921 157.733 206.06C157.879 206.196 157.953 206.36 157.953 206.554C157.953 206.744 157.879 206.909 157.733 207.047C157.59 207.183 157.416 207.251 157.212 207.251ZM160.539 210.624V214.197H159.368V208.179H160.492V209.159H160.567C160.705 208.84 160.922 208.584 161.217 208.391C161.515 208.198 161.889 208.101 162.341 208.101C162.751 208.101 163.11 208.187 163.419 208.36C163.727 208.529 163.966 208.783 164.135 209.12C164.305 209.456 164.39 209.873 164.39 210.369V214.197H163.219V210.51C163.219 210.074 163.105 209.733 162.878 209.488C162.651 209.24 162.339 209.116 161.942 209.116C161.67 209.116 161.428 209.174 161.217 209.292C161.008 209.409 160.842 209.582 160.719 209.809C160.599 210.034 160.539 210.305 160.539 210.624ZM168.77 208.179V209.12H165.483V208.179H168.77ZM166.365 206.738H167.536V212.43C167.536 212.657 167.57 212.828 167.638 212.943C167.706 213.055 167.793 213.132 167.9 213.174C168.01 213.213 168.129 213.233 168.257 213.233C168.351 213.233 168.433 213.226 168.504 213.213C168.574 213.2 168.629 213.19 168.668 213.182L168.88 214.15C168.812 214.176 168.715 214.202 168.59 214.228C168.464 214.257 168.308 214.272 168.12 214.275C167.811 214.28 167.524 214.225 167.258 214.111C166.991 213.996 166.776 213.818 166.611 213.578C166.447 213.337 166.365 213.036 166.365 212.673V206.738ZM172.594 214.318C172.002 214.318 171.491 214.191 171.063 213.938C170.637 213.682 170.308 213.323 170.075 212.861C169.846 212.396 169.731 211.851 169.731 211.227C169.731 210.611 169.846 210.068 170.075 209.597C170.308 209.127 170.632 208.76 171.047 208.497C171.465 208.233 171.953 208.101 172.512 208.101C172.852 208.101 173.181 208.157 173.499 208.269C173.818 208.382 174.104 208.558 174.357 208.798C174.611 209.039 174.811 209.351 174.957 209.735C175.103 210.116 175.176 210.579 175.176 211.125V211.541H170.393V210.663H174.028C174.028 210.355 173.966 210.082 173.84 209.844C173.715 209.604 173.539 209.415 173.311 209.276C173.087 209.138 172.823 209.069 172.52 209.069C172.191 209.069 171.904 209.15 171.658 209.312C171.415 209.471 171.227 209.68 171.094 209.938C170.963 210.194 170.898 210.472 170.898 210.773V211.458C170.898 211.861 170.969 212.203 171.11 212.485C171.253 212.767 171.453 212.982 171.709 213.131C171.965 213.277 172.264 213.351 172.606 213.351C172.828 213.351 173.031 213.319 173.213 213.256C173.396 213.191 173.554 213.095 173.687 212.967C173.821 212.839 173.923 212.681 173.993 212.493L175.102 212.692C175.013 213.019 174.854 213.305 174.624 213.55C174.397 213.793 174.111 213.983 173.766 214.118C173.424 214.252 173.033 214.318 172.594 214.318ZM178.999 216.579C178.521 216.579 178.109 216.516 177.765 216.391C177.423 216.265 177.143 216.099 176.926 215.893C176.71 215.687 176.548 215.461 176.441 215.215L177.447 214.8C177.518 214.915 177.612 215.036 177.729 215.164C177.85 215.295 178.012 215.406 178.215 215.497C178.422 215.589 178.687 215.634 179.011 215.634C179.454 215.634 179.821 215.526 180.111 215.309C180.401 215.095 180.546 214.753 180.546 214.283V213.1H180.472C180.401 213.228 180.299 213.37 180.166 213.527C180.036 213.684 179.855 213.819 179.626 213.934C179.396 214.049 179.097 214.107 178.728 214.107C178.253 214.107 177.825 213.996 177.443 213.774C177.065 213.549 176.764 213.219 176.542 212.782C176.323 212.344 176.213 211.804 176.213 211.165C176.213 210.525 176.322 209.976 176.539 209.519C176.758 209.062 177.058 208.712 177.44 208.469C177.821 208.224 178.253 208.101 178.736 208.101C179.11 208.101 179.411 208.164 179.641 208.289C179.871 208.412 180.05 208.555 180.178 208.72C180.309 208.884 180.409 209.029 180.48 209.155H180.566V208.179H181.714V214.33C181.714 214.847 181.593 215.271 181.353 215.603C181.113 215.935 180.788 216.18 180.378 216.34C179.97 216.499 179.511 216.579 178.999 216.579ZM178.987 213.135C179.324 213.135 179.609 213.057 179.841 212.9C180.076 212.741 180.254 212.513 180.374 212.218C180.497 211.921 180.558 211.564 180.558 211.149C180.558 210.744 180.498 210.388 180.378 210.079C180.258 209.771 180.081 209.531 179.849 209.359C179.616 209.184 179.329 209.096 178.987 209.096C178.634 209.096 178.341 209.187 178.106 209.37C177.87 209.55 177.693 209.796 177.573 210.107C177.455 210.418 177.396 210.765 177.396 211.149C177.396 211.543 177.457 211.889 177.577 212.187C177.697 212.485 177.874 212.717 178.109 212.884C178.347 213.051 178.64 213.135 178.987 213.135ZM183.285 214.197V208.179H184.417V209.135H184.479C184.589 208.811 184.782 208.557 185.059 208.371C185.339 208.183 185.655 208.089 186.007 208.089C186.08 208.089 186.167 208.092 186.266 208.097C186.368 208.102 186.447 208.109 186.505 208.117V209.237C186.458 209.224 186.374 209.21 186.254 209.194C186.134 209.176 186.014 209.167 185.894 209.167C185.617 209.167 185.37 209.225 185.153 209.343C184.939 209.458 184.769 209.618 184.644 209.825C184.519 210.028 184.456 210.261 184.456 210.522V214.197H183.285ZM189.216 214.33C188.834 214.33 188.49 214.259 188.182 214.118C187.873 213.975 187.629 213.767 187.449 213.495C187.271 213.224 187.183 212.891 187.183 212.496C187.183 212.157 187.248 211.878 187.378 211.658C187.509 211.439 187.685 211.265 187.907 211.137C188.129 211.009 188.377 210.912 188.652 210.847C188.926 210.782 189.205 210.732 189.49 210.698C189.85 210.657 190.143 210.623 190.368 210.596C190.592 210.568 190.755 210.522 190.857 210.459C190.959 210.397 191.01 210.295 191.01 210.154V210.126C191.01 209.784 190.913 209.519 190.72 209.331C190.529 209.143 190.245 209.049 189.866 209.049C189.472 209.049 189.161 209.137 188.934 209.312C188.709 209.484 188.554 209.676 188.468 209.887L187.367 209.637C187.497 209.271 187.688 208.976 187.939 208.751C188.192 208.524 188.483 208.36 188.812 208.258C189.141 208.153 189.487 208.101 189.85 208.101C190.091 208.101 190.345 208.13 190.614 208.187C190.886 208.242 191.139 208.344 191.374 208.493C191.612 208.642 191.807 208.854 191.958 209.131C192.11 209.406 192.185 209.762 192.185 210.201V214.197H191.041V213.374H190.994C190.919 213.526 190.805 213.674 190.654 213.821C190.502 213.967 190.307 214.088 190.07 214.185C189.832 214.282 189.547 214.33 189.216 214.33ZM189.47 213.39C189.794 213.39 190.071 213.326 190.301 213.198C190.533 213.07 190.71 212.903 190.83 212.696C190.953 212.487 191.014 212.264 191.014 212.026V211.251C190.972 211.292 190.891 211.332 190.771 211.368C190.654 211.402 190.519 211.432 190.368 211.458C190.216 211.482 190.068 211.504 189.925 211.525C189.781 211.543 189.661 211.559 189.564 211.572C189.337 211.601 189.13 211.649 188.942 211.717C188.756 211.785 188.607 211.883 188.495 212.011C188.385 212.136 188.33 212.303 188.33 212.512C188.33 212.802 188.437 213.021 188.652 213.17C188.866 213.317 189.139 213.39 189.47 213.39ZM196.609 208.179V209.12H193.209V208.179H196.609ZM194.141 214.197V207.482C194.141 207.106 194.223 206.794 194.388 206.546C194.552 206.295 194.771 206.108 195.042 205.985C195.314 205.86 195.609 205.797 195.928 205.797C196.163 205.797 196.364 205.817 196.531 205.856C196.698 205.893 196.822 205.927 196.903 205.958L196.629 206.906C196.574 206.89 196.503 206.872 196.417 206.851C196.331 206.828 196.227 206.816 196.104 206.816C195.819 206.816 195.615 206.887 195.493 207.028C195.373 207.169 195.312 207.372 195.312 207.639V214.197H194.141ZM198.989 206.174V214.197H197.818V206.174H198.989ZM203.1 214.318C202.536 214.318 202.043 214.189 201.623 213.93C201.202 213.672 200.876 213.31 200.643 212.845C200.411 212.38 200.295 211.837 200.295 211.215C200.295 210.591 200.411 210.045 200.643 209.578C200.876 209.11 201.202 208.747 201.623 208.489C202.043 208.23 202.536 208.101 203.1 208.101C203.664 208.101 204.156 208.23 204.577 208.489C204.997 208.747 205.324 209.11 205.556 209.578C205.788 210.045 205.905 210.591 205.905 211.215C205.905 211.837 205.788 212.38 205.556 212.845C205.324 213.31 204.997 213.672 204.577 213.93C204.156 214.189 203.664 214.318 203.1 214.318ZM203.104 213.335C203.469 213.335 203.772 213.238 204.012 213.045C204.253 212.852 204.43 212.594 204.545 212.273C204.663 211.952 204.722 211.598 204.722 211.212C204.722 210.828 204.663 210.475 204.545 210.154C204.43 209.83 204.253 209.57 204.012 209.374C203.772 209.178 203.469 209.08 203.104 209.08C202.735 209.08 202.43 209.178 202.187 209.374C201.947 209.57 201.768 209.83 201.65 210.154C201.535 210.475 201.478 210.828 201.478 211.212C201.478 211.598 201.535 211.952 201.65 212.273C201.768 212.594 201.947 212.852 202.187 213.045C202.43 213.238 202.735 213.335 203.104 213.335ZM208.334 214.197L206.563 208.179H207.773L208.953 212.598H209.011L210.194 208.179H211.405L212.58 212.579H212.639L213.81 208.179H215.021L213.254 214.197H212.059L210.837 209.852H210.747L209.524 214.197H208.334Z" fill="#050505"/>
</g>
</svg>
